%TF.GenerationSoftware,KiCad,Pcbnew,9.0.1*%
%TF.CreationDate,2025-09-15T21:48:15-05:00*%
%TF.ProjectId,IndicationPCB,496e6469-6361-4746-996f-6e5043422e6b,rev?*%
%TF.SameCoordinates,Original*%
%TF.FileFunction,Legend,Top*%
%TF.FilePolarity,Positive*%
%FSLAX46Y46*%
G04 Gerber Fmt 4.6, Leading zero omitted, Abs format (unit mm)*
G04 Created by KiCad (PCBNEW 9.0.1) date 2025-09-15 21:48:15*
%MOMM*%
%LPD*%
G01*
G04 APERTURE LIST*
G04 Aperture macros list*
%AMRoundRect*
0 Rectangle with rounded corners*
0 $1 Rounding radius*
0 $2 $3 $4 $5 $6 $7 $8 $9 X,Y pos of 4 corners*
0 Add a 4 corners polygon primitive as box body*
4,1,4,$2,$3,$4,$5,$6,$7,$8,$9,$2,$3,0*
0 Add four circle primitives for the rounded corners*
1,1,$1+$1,$2,$3*
1,1,$1+$1,$4,$5*
1,1,$1+$1,$6,$7*
1,1,$1+$1,$8,$9*
0 Add four rect primitives between the rounded corners*
20,1,$1+$1,$2,$3,$4,$5,0*
20,1,$1+$1,$4,$5,$6,$7,0*
20,1,$1+$1,$6,$7,$8,$9,0*
20,1,$1+$1,$8,$9,$2,$3,0*%
G04 Aperture macros list end*
%ADD10C,0.150000*%
%ADD11C,0.127000*%
%ADD12C,0.120000*%
%ADD13RoundRect,0.102000X0.750000X0.450000X-0.750000X0.450000X-0.750000X-0.450000X0.750000X-0.450000X0*%
%ADD14RoundRect,0.237500X0.237500X-0.300000X0.237500X0.300000X-0.237500X0.300000X-0.237500X-0.300000X0*%
%ADD15C,3.200000*%
%ADD16C,1.700000*%
%ADD17RoundRect,0.250000X0.850000X0.600000X-0.850000X0.600000X-0.850000X-0.600000X0.850000X-0.600000X0*%
%ADD18O,2.200000X1.700000*%
G04 APERTURE END LIST*
D10*
X144283809Y-77288276D02*
X143979047Y-77288276D01*
X143979047Y-77288276D02*
X143979047Y-76648276D01*
X144497142Y-76953038D02*
X144710476Y-76953038D01*
X144801904Y-77288276D02*
X144497142Y-77288276D01*
X144497142Y-77288276D02*
X144497142Y-76648276D01*
X144497142Y-76648276D02*
X144801904Y-76648276D01*
X145076190Y-77288276D02*
X145076190Y-76648276D01*
X145076190Y-76648276D02*
X145228571Y-76648276D01*
X145228571Y-76648276D02*
X145320000Y-76678752D01*
X145320000Y-76678752D02*
X145380952Y-76739704D01*
X145380952Y-76739704D02*
X145411429Y-76800657D01*
X145411429Y-76800657D02*
X145441905Y-76922561D01*
X145441905Y-76922561D02*
X145441905Y-77013990D01*
X145441905Y-77013990D02*
X145411429Y-77135895D01*
X145411429Y-77135895D02*
X145380952Y-77196847D01*
X145380952Y-77196847D02*
X145320000Y-77257800D01*
X145320000Y-77257800D02*
X145228571Y-77288276D01*
X145228571Y-77288276D02*
X145076190Y-77288276D01*
X145685714Y-76709228D02*
X145716190Y-76678752D01*
X145716190Y-76678752D02*
X145777143Y-76648276D01*
X145777143Y-76648276D02*
X145929524Y-76648276D01*
X145929524Y-76648276D02*
X145990476Y-76678752D01*
X145990476Y-76678752D02*
X146020952Y-76709228D01*
X146020952Y-76709228D02*
X146051429Y-76770180D01*
X146051429Y-76770180D02*
X146051429Y-76831133D01*
X146051429Y-76831133D02*
X146020952Y-76922561D01*
X146020952Y-76922561D02*
X145655238Y-77288276D01*
X145655238Y-77288276D02*
X146051429Y-77288276D01*
X144283809Y-70288276D02*
X143979047Y-70288276D01*
X143979047Y-70288276D02*
X143979047Y-69648276D01*
X144497142Y-69953038D02*
X144710476Y-69953038D01*
X144801904Y-70288276D02*
X144497142Y-70288276D01*
X144497142Y-70288276D02*
X144497142Y-69648276D01*
X144497142Y-69648276D02*
X144801904Y-69648276D01*
X145076190Y-70288276D02*
X145076190Y-69648276D01*
X145076190Y-69648276D02*
X145228571Y-69648276D01*
X145228571Y-69648276D02*
X145320000Y-69678752D01*
X145320000Y-69678752D02*
X145380952Y-69739704D01*
X145380952Y-69739704D02*
X145411429Y-69800657D01*
X145411429Y-69800657D02*
X145441905Y-69922561D01*
X145441905Y-69922561D02*
X145441905Y-70013990D01*
X145441905Y-70013990D02*
X145411429Y-70135895D01*
X145411429Y-70135895D02*
X145380952Y-70196847D01*
X145380952Y-70196847D02*
X145320000Y-70257800D01*
X145320000Y-70257800D02*
X145228571Y-70288276D01*
X145228571Y-70288276D02*
X145076190Y-70288276D01*
X146051429Y-70288276D02*
X145685714Y-70288276D01*
X145868571Y-70288276D02*
X145868571Y-69648276D01*
X145868571Y-69648276D02*
X145807619Y-69739704D01*
X145807619Y-69739704D02*
X145746667Y-69800657D01*
X145746667Y-69800657D02*
X145685714Y-69831133D01*
X141859580Y-80666666D02*
X141907200Y-80714285D01*
X141907200Y-80714285D02*
X141954819Y-80857142D01*
X141954819Y-80857142D02*
X141954819Y-80952380D01*
X141954819Y-80952380D02*
X141907200Y-81095237D01*
X141907200Y-81095237D02*
X141811961Y-81190475D01*
X141811961Y-81190475D02*
X141716723Y-81238094D01*
X141716723Y-81238094D02*
X141526247Y-81285713D01*
X141526247Y-81285713D02*
X141383390Y-81285713D01*
X141383390Y-81285713D02*
X141192914Y-81238094D01*
X141192914Y-81238094D02*
X141097676Y-81190475D01*
X141097676Y-81190475D02*
X141002438Y-81095237D01*
X141002438Y-81095237D02*
X140954819Y-80952380D01*
X140954819Y-80952380D02*
X140954819Y-80857142D01*
X140954819Y-80857142D02*
X141002438Y-80714285D01*
X141002438Y-80714285D02*
X141050057Y-80666666D01*
X141050057Y-80285713D02*
X141002438Y-80238094D01*
X141002438Y-80238094D02*
X140954819Y-80142856D01*
X140954819Y-80142856D02*
X140954819Y-79904761D01*
X140954819Y-79904761D02*
X141002438Y-79809523D01*
X141002438Y-79809523D02*
X141050057Y-79761904D01*
X141050057Y-79761904D02*
X141145295Y-79714285D01*
X141145295Y-79714285D02*
X141240533Y-79714285D01*
X141240533Y-79714285D02*
X141383390Y-79761904D01*
X141383390Y-79761904D02*
X141954819Y-80333332D01*
X141954819Y-80333332D02*
X141954819Y-79714285D01*
X144283809Y-84788276D02*
X143979047Y-84788276D01*
X143979047Y-84788276D02*
X143979047Y-84148276D01*
X144497142Y-84453038D02*
X144710476Y-84453038D01*
X144801904Y-84788276D02*
X144497142Y-84788276D01*
X144497142Y-84788276D02*
X144497142Y-84148276D01*
X144497142Y-84148276D02*
X144801904Y-84148276D01*
X145076190Y-84788276D02*
X145076190Y-84148276D01*
X145076190Y-84148276D02*
X145228571Y-84148276D01*
X145228571Y-84148276D02*
X145320000Y-84178752D01*
X145320000Y-84178752D02*
X145380952Y-84239704D01*
X145380952Y-84239704D02*
X145411429Y-84300657D01*
X145411429Y-84300657D02*
X145441905Y-84422561D01*
X145441905Y-84422561D02*
X145441905Y-84513990D01*
X145441905Y-84513990D02*
X145411429Y-84635895D01*
X145411429Y-84635895D02*
X145380952Y-84696847D01*
X145380952Y-84696847D02*
X145320000Y-84757800D01*
X145320000Y-84757800D02*
X145228571Y-84788276D01*
X145228571Y-84788276D02*
X145076190Y-84788276D01*
X145655238Y-84148276D02*
X146051429Y-84148276D01*
X146051429Y-84148276D02*
X145838095Y-84392085D01*
X145838095Y-84392085D02*
X145929524Y-84392085D01*
X145929524Y-84392085D02*
X145990476Y-84422561D01*
X145990476Y-84422561D02*
X146020952Y-84453038D01*
X146020952Y-84453038D02*
X146051429Y-84513990D01*
X146051429Y-84513990D02*
X146051429Y-84666371D01*
X146051429Y-84666371D02*
X146020952Y-84727323D01*
X146020952Y-84727323D02*
X145990476Y-84757800D01*
X145990476Y-84757800D02*
X145929524Y-84788276D01*
X145929524Y-84788276D02*
X145746667Y-84788276D01*
X145746667Y-84788276D02*
X145685714Y-84757800D01*
X145685714Y-84757800D02*
X145655238Y-84727323D01*
X142359580Y-88666666D02*
X142407200Y-88714285D01*
X142407200Y-88714285D02*
X142454819Y-88857142D01*
X142454819Y-88857142D02*
X142454819Y-88952380D01*
X142454819Y-88952380D02*
X142407200Y-89095237D01*
X142407200Y-89095237D02*
X142311961Y-89190475D01*
X142311961Y-89190475D02*
X142216723Y-89238094D01*
X142216723Y-89238094D02*
X142026247Y-89285713D01*
X142026247Y-89285713D02*
X141883390Y-89285713D01*
X141883390Y-89285713D02*
X141692914Y-89238094D01*
X141692914Y-89238094D02*
X141597676Y-89190475D01*
X141597676Y-89190475D02*
X141502438Y-89095237D01*
X141502438Y-89095237D02*
X141454819Y-88952380D01*
X141454819Y-88952380D02*
X141454819Y-88857142D01*
X141454819Y-88857142D02*
X141502438Y-88714285D01*
X141502438Y-88714285D02*
X141550057Y-88666666D01*
X141454819Y-88333332D02*
X141454819Y-87714285D01*
X141454819Y-87714285D02*
X141835771Y-88047618D01*
X141835771Y-88047618D02*
X141835771Y-87904761D01*
X141835771Y-87904761D02*
X141883390Y-87809523D01*
X141883390Y-87809523D02*
X141931009Y-87761904D01*
X141931009Y-87761904D02*
X142026247Y-87714285D01*
X142026247Y-87714285D02*
X142264342Y-87714285D01*
X142264342Y-87714285D02*
X142359580Y-87761904D01*
X142359580Y-87761904D02*
X142407200Y-87809523D01*
X142407200Y-87809523D02*
X142454819Y-87904761D01*
X142454819Y-87904761D02*
X142454819Y-88190475D01*
X142454819Y-88190475D02*
X142407200Y-88285713D01*
X142407200Y-88285713D02*
X142359580Y-88333332D01*
X144283809Y-91788276D02*
X143979047Y-91788276D01*
X143979047Y-91788276D02*
X143979047Y-91148276D01*
X144497142Y-91453038D02*
X144710476Y-91453038D01*
X144801904Y-91788276D02*
X144497142Y-91788276D01*
X144497142Y-91788276D02*
X144497142Y-91148276D01*
X144497142Y-91148276D02*
X144801904Y-91148276D01*
X145076190Y-91788276D02*
X145076190Y-91148276D01*
X145076190Y-91148276D02*
X145228571Y-91148276D01*
X145228571Y-91148276D02*
X145320000Y-91178752D01*
X145320000Y-91178752D02*
X145380952Y-91239704D01*
X145380952Y-91239704D02*
X145411429Y-91300657D01*
X145411429Y-91300657D02*
X145441905Y-91422561D01*
X145441905Y-91422561D02*
X145441905Y-91513990D01*
X145441905Y-91513990D02*
X145411429Y-91635895D01*
X145411429Y-91635895D02*
X145380952Y-91696847D01*
X145380952Y-91696847D02*
X145320000Y-91757800D01*
X145320000Y-91757800D02*
X145228571Y-91788276D01*
X145228571Y-91788276D02*
X145076190Y-91788276D01*
X145990476Y-91361609D02*
X145990476Y-91788276D01*
X145838095Y-91117800D02*
X145685714Y-91574942D01*
X145685714Y-91574942D02*
X146081905Y-91574942D01*
X142359580Y-95666666D02*
X142407200Y-95714285D01*
X142407200Y-95714285D02*
X142454819Y-95857142D01*
X142454819Y-95857142D02*
X142454819Y-95952380D01*
X142454819Y-95952380D02*
X142407200Y-96095237D01*
X142407200Y-96095237D02*
X142311961Y-96190475D01*
X142311961Y-96190475D02*
X142216723Y-96238094D01*
X142216723Y-96238094D02*
X142026247Y-96285713D01*
X142026247Y-96285713D02*
X141883390Y-96285713D01*
X141883390Y-96285713D02*
X141692914Y-96238094D01*
X141692914Y-96238094D02*
X141597676Y-96190475D01*
X141597676Y-96190475D02*
X141502438Y-96095237D01*
X141502438Y-96095237D02*
X141454819Y-95952380D01*
X141454819Y-95952380D02*
X141454819Y-95857142D01*
X141454819Y-95857142D02*
X141502438Y-95714285D01*
X141502438Y-95714285D02*
X141550057Y-95666666D01*
X141788152Y-94809523D02*
X142454819Y-94809523D01*
X141407200Y-95047618D02*
X142121485Y-95285713D01*
X142121485Y-95285713D02*
X142121485Y-94666666D01*
X141859580Y-73666666D02*
X141907200Y-73714285D01*
X141907200Y-73714285D02*
X141954819Y-73857142D01*
X141954819Y-73857142D02*
X141954819Y-73952380D01*
X141954819Y-73952380D02*
X141907200Y-74095237D01*
X141907200Y-74095237D02*
X141811961Y-74190475D01*
X141811961Y-74190475D02*
X141716723Y-74238094D01*
X141716723Y-74238094D02*
X141526247Y-74285713D01*
X141526247Y-74285713D02*
X141383390Y-74285713D01*
X141383390Y-74285713D02*
X141192914Y-74238094D01*
X141192914Y-74238094D02*
X141097676Y-74190475D01*
X141097676Y-74190475D02*
X141002438Y-74095237D01*
X141002438Y-74095237D02*
X140954819Y-73952380D01*
X140954819Y-73952380D02*
X140954819Y-73857142D01*
X140954819Y-73857142D02*
X141002438Y-73714285D01*
X141002438Y-73714285D02*
X141050057Y-73666666D01*
X141954819Y-72714285D02*
X141954819Y-73285713D01*
X141954819Y-72999999D02*
X140954819Y-72999999D01*
X140954819Y-72999999D02*
X141097676Y-73095237D01*
X141097676Y-73095237D02*
X141192914Y-73190475D01*
X141192914Y-73190475D02*
X141240533Y-73285713D01*
X142359580Y-102666666D02*
X142407200Y-102714285D01*
X142407200Y-102714285D02*
X142454819Y-102857142D01*
X142454819Y-102857142D02*
X142454819Y-102952380D01*
X142454819Y-102952380D02*
X142407200Y-103095237D01*
X142407200Y-103095237D02*
X142311961Y-103190475D01*
X142311961Y-103190475D02*
X142216723Y-103238094D01*
X142216723Y-103238094D02*
X142026247Y-103285713D01*
X142026247Y-103285713D02*
X141883390Y-103285713D01*
X141883390Y-103285713D02*
X141692914Y-103238094D01*
X141692914Y-103238094D02*
X141597676Y-103190475D01*
X141597676Y-103190475D02*
X141502438Y-103095237D01*
X141502438Y-103095237D02*
X141454819Y-102952380D01*
X141454819Y-102952380D02*
X141454819Y-102857142D01*
X141454819Y-102857142D02*
X141502438Y-102714285D01*
X141502438Y-102714285D02*
X141550057Y-102666666D01*
X141454819Y-101761904D02*
X141454819Y-102238094D01*
X141454819Y-102238094D02*
X141931009Y-102285713D01*
X141931009Y-102285713D02*
X141883390Y-102238094D01*
X141883390Y-102238094D02*
X141835771Y-102142856D01*
X141835771Y-102142856D02*
X141835771Y-101904761D01*
X141835771Y-101904761D02*
X141883390Y-101809523D01*
X141883390Y-101809523D02*
X141931009Y-101761904D01*
X141931009Y-101761904D02*
X142026247Y-101714285D01*
X142026247Y-101714285D02*
X142264342Y-101714285D01*
X142264342Y-101714285D02*
X142359580Y-101761904D01*
X142359580Y-101761904D02*
X142407200Y-101809523D01*
X142407200Y-101809523D02*
X142454819Y-101904761D01*
X142454819Y-101904761D02*
X142454819Y-102142856D01*
X142454819Y-102142856D02*
X142407200Y-102238094D01*
X142407200Y-102238094D02*
X142359580Y-102285713D01*
X144283809Y-98788276D02*
X143979047Y-98788276D01*
X143979047Y-98788276D02*
X143979047Y-98148276D01*
X144497142Y-98453038D02*
X144710476Y-98453038D01*
X144801904Y-98788276D02*
X144497142Y-98788276D01*
X144497142Y-98788276D02*
X144497142Y-98148276D01*
X144497142Y-98148276D02*
X144801904Y-98148276D01*
X145076190Y-98788276D02*
X145076190Y-98148276D01*
X145076190Y-98148276D02*
X145228571Y-98148276D01*
X145228571Y-98148276D02*
X145320000Y-98178752D01*
X145320000Y-98178752D02*
X145380952Y-98239704D01*
X145380952Y-98239704D02*
X145411429Y-98300657D01*
X145411429Y-98300657D02*
X145441905Y-98422561D01*
X145441905Y-98422561D02*
X145441905Y-98513990D01*
X145441905Y-98513990D02*
X145411429Y-98635895D01*
X145411429Y-98635895D02*
X145380952Y-98696847D01*
X145380952Y-98696847D02*
X145320000Y-98757800D01*
X145320000Y-98757800D02*
X145228571Y-98788276D01*
X145228571Y-98788276D02*
X145076190Y-98788276D01*
X146020952Y-98148276D02*
X145716190Y-98148276D01*
X145716190Y-98148276D02*
X145685714Y-98453038D01*
X145685714Y-98453038D02*
X145716190Y-98422561D01*
X145716190Y-98422561D02*
X145777143Y-98392085D01*
X145777143Y-98392085D02*
X145929524Y-98392085D01*
X145929524Y-98392085D02*
X145990476Y-98422561D01*
X145990476Y-98422561D02*
X146020952Y-98453038D01*
X146020952Y-98453038D02*
X146051429Y-98513990D01*
X146051429Y-98513990D02*
X146051429Y-98666371D01*
X146051429Y-98666371D02*
X146020952Y-98727323D01*
X146020952Y-98727323D02*
X145990476Y-98757800D01*
X145990476Y-98757800D02*
X145929524Y-98788276D01*
X145929524Y-98788276D02*
X145777143Y-98788276D01*
X145777143Y-98788276D02*
X145716190Y-98757800D01*
X145716190Y-98757800D02*
X145685714Y-98727323D01*
D11*
%TO.C,LED2*%
X142500000Y-78000000D02*
X147500000Y-78000000D01*
X142500000Y-83000000D02*
X142500000Y-78000000D01*
X146300000Y-83300000D02*
X146700000Y-83700000D01*
X146600000Y-83000000D02*
X142500000Y-83000000D01*
X146600000Y-83000000D02*
X146300000Y-83300000D01*
X146700000Y-83700000D02*
X147500000Y-83000000D01*
X147500000Y-78000000D02*
X147500000Y-82100000D01*
X147500000Y-82100000D02*
X146600000Y-83000000D01*
X147500000Y-82100000D02*
X147500000Y-83000000D01*
X147500000Y-83000000D02*
X146600000Y-83000000D01*
X146720460Y-80500000D02*
G75*
G02*
X143279540Y-80500000I-1720460J0D01*
G01*
X143279540Y-80500000D02*
G75*
G02*
X146720460Y-80500000I1720460J0D01*
G01*
%TO.C,LED1*%
X142500000Y-71000000D02*
X147500000Y-71000000D01*
X142500000Y-76000000D02*
X142500000Y-71000000D01*
X146300000Y-76300000D02*
X146700000Y-76700000D01*
X146600000Y-76000000D02*
X142500000Y-76000000D01*
X146600000Y-76000000D02*
X146300000Y-76300000D01*
X146700000Y-76700000D02*
X147500000Y-76000000D01*
X147500000Y-71000000D02*
X147500000Y-75100000D01*
X147500000Y-75100000D02*
X146600000Y-76000000D01*
X147500000Y-75100000D02*
X147500000Y-76000000D01*
X147500000Y-76000000D02*
X146600000Y-76000000D01*
X146720460Y-73500000D02*
G75*
G02*
X143279540Y-73500000I-1720460J0D01*
G01*
X143279540Y-73500000D02*
G75*
G02*
X146720460Y-73500000I1720460J0D01*
G01*
D12*
%TO.C,C2*%
X139490000Y-80146267D02*
X139490000Y-79853733D01*
X140510000Y-80146267D02*
X140510000Y-79853733D01*
D11*
%TO.C,LED3*%
X142500000Y-85500000D02*
X147500000Y-85500000D01*
X142500000Y-90500000D02*
X142500000Y-85500000D01*
X146300000Y-90800000D02*
X146700000Y-91200000D01*
X146600000Y-90500000D02*
X142500000Y-90500000D01*
X146600000Y-90500000D02*
X146300000Y-90800000D01*
X146700000Y-91200000D02*
X147500000Y-90500000D01*
X147500000Y-85500000D02*
X147500000Y-89600000D01*
X147500000Y-89600000D02*
X146600000Y-90500000D01*
X147500000Y-89600000D02*
X147500000Y-90500000D01*
X147500000Y-90500000D02*
X146600000Y-90500000D01*
X146720460Y-88000000D02*
G75*
G02*
X143279540Y-88000000I-1720460J0D01*
G01*
X143279540Y-88000000D02*
G75*
G02*
X146720460Y-88000000I1720460J0D01*
G01*
D12*
%TO.C,C3*%
X139490000Y-88146267D02*
X139490000Y-87853733D01*
X140510000Y-88146267D02*
X140510000Y-87853733D01*
D11*
%TO.C,LED4*%
X142500000Y-92500000D02*
X147500000Y-92500000D01*
X142500000Y-97500000D02*
X142500000Y-92500000D01*
X146300000Y-97800000D02*
X146700000Y-98200000D01*
X146600000Y-97500000D02*
X142500000Y-97500000D01*
X146600000Y-97500000D02*
X146300000Y-97800000D01*
X146700000Y-98200000D02*
X147500000Y-97500000D01*
X147500000Y-92500000D02*
X147500000Y-96600000D01*
X147500000Y-96600000D02*
X146600000Y-97500000D01*
X147500000Y-96600000D02*
X147500000Y-97500000D01*
X147500000Y-97500000D02*
X146600000Y-97500000D01*
X146720460Y-95000000D02*
G75*
G02*
X143279540Y-95000000I-1720460J0D01*
G01*
X143279540Y-95000000D02*
G75*
G02*
X146720460Y-95000000I1720460J0D01*
G01*
D12*
%TO.C,C4*%
X139490000Y-95146267D02*
X139490000Y-94853733D01*
X140510000Y-95146267D02*
X140510000Y-94853733D01*
%TO.C,J1*%
X137650000Y-58670000D02*
X137650000Y-67330000D01*
X137650000Y-67330000D02*
X146330000Y-67330000D01*
X146330000Y-58670000D02*
X137650000Y-58670000D01*
X146330000Y-60350000D02*
X146330000Y-60650000D01*
X146330000Y-60650000D02*
X146780000Y-60650000D01*
X146330000Y-62850000D02*
X146330000Y-63150000D01*
X146330000Y-63150000D02*
X146780000Y-63150000D01*
X146330000Y-65350000D02*
X146330000Y-65650000D01*
X146330000Y-65650000D02*
X146780000Y-65650000D01*
X146330000Y-67330000D02*
X146330000Y-58670000D01*
X146780000Y-60350000D02*
X146330000Y-60350000D01*
X146780000Y-60650000D02*
X146780000Y-60350000D01*
X146780000Y-62850000D02*
X146330000Y-62850000D01*
X146780000Y-63150000D02*
X146780000Y-62850000D01*
X146780000Y-65350000D02*
X146330000Y-65350000D01*
X146780000Y-65650000D02*
X146780000Y-65350000D01*
X147840000Y-67034264D02*
X148440000Y-67034264D01*
X148140000Y-66610000D02*
X147840000Y-67034264D01*
X148440000Y-67034264D02*
X148140000Y-66610000D01*
%TO.C,C1*%
X139490000Y-72146267D02*
X139490000Y-71853733D01*
X140510000Y-72146267D02*
X140510000Y-71853733D01*
%TO.C,C5*%
X139490000Y-102146267D02*
X139490000Y-101853733D01*
X140510000Y-102146267D02*
X140510000Y-101853733D01*
D11*
%TO.C,LED5*%
X142450000Y-99650000D02*
X147450000Y-99650000D01*
X142450000Y-104650000D02*
X142450000Y-99650000D01*
X146250000Y-104950000D02*
X146650000Y-105350000D01*
X146550000Y-104650000D02*
X142450000Y-104650000D01*
X146550000Y-104650000D02*
X146250000Y-104950000D01*
X146650000Y-105350000D02*
X147450000Y-104650000D01*
X147450000Y-99650000D02*
X147450000Y-103750000D01*
X147450000Y-103750000D02*
X146550000Y-104650000D01*
X147450000Y-103750000D02*
X147450000Y-104650000D01*
X147450000Y-104650000D02*
X146550000Y-104650000D01*
X146670460Y-102150000D02*
G75*
G02*
X143229540Y-102150000I-1720460J0D01*
G01*
X143229540Y-102150000D02*
G75*
G02*
X146670460Y-102150000I1720460J0D01*
G01*
%TD*%
%LPC*%
D13*
%TO.C,LED2*%
X142550000Y-78850000D03*
X142550000Y-82150000D03*
X147450000Y-82150000D03*
X147450000Y-78850000D03*
%TD*%
%TO.C,LED1*%
X142550000Y-71850000D03*
X142550000Y-75150000D03*
X147450000Y-75150000D03*
X147450000Y-71850000D03*
%TD*%
D14*
%TO.C,C2*%
X140000000Y-80862500D03*
X140000000Y-79137500D03*
%TD*%
D13*
%TO.C,LED3*%
X142550000Y-86350000D03*
X142550000Y-89650000D03*
X147450000Y-89650000D03*
X147450000Y-86350000D03*
%TD*%
D15*
%TO.C,H1*%
X144500000Y-52000000D03*
%TD*%
D14*
%TO.C,C3*%
X140000000Y-88862500D03*
X140000000Y-87137500D03*
%TD*%
D13*
%TO.C,LED4*%
X142550000Y-93350000D03*
X142550000Y-96650000D03*
X147450000Y-96650000D03*
X147450000Y-93350000D03*
%TD*%
D14*
%TO.C,C4*%
X140000000Y-95862500D03*
X140000000Y-94137500D03*
%TD*%
D15*
%TO.C,H2*%
X144500000Y-108000000D03*
%TD*%
D16*
%TO.C,J1*%
X140960000Y-65500000D03*
X140960000Y-60500000D03*
D17*
X148140000Y-65500000D03*
D18*
X148140000Y-63000000D03*
X148140000Y-60500000D03*
%TD*%
D14*
%TO.C,C1*%
X140000000Y-72862500D03*
X140000000Y-71137500D03*
%TD*%
%TO.C,C5*%
X140000000Y-102862500D03*
X140000000Y-101137500D03*
%TD*%
D13*
%TO.C,LED5*%
X142500000Y-100500000D03*
X142500000Y-103800000D03*
X147400000Y-103800000D03*
X147400000Y-100500000D03*
%TD*%
%LPD*%
M02*
