%TF.GenerationSoftware,KiCad,Pcbnew,9.0.1*%
%TF.CreationDate,2025-09-15T21:48:15-05:00*%
%TF.ProjectId,IndicationPCB,496e6469-6361-4746-996f-6e5043422e6b,rev?*%
%TF.SameCoordinates,Original*%
%TF.FileFunction,Copper,L2,Bot*%
%TF.FilePolarity,Positive*%
%FSLAX46Y46*%
G04 Gerber Fmt 4.6, Leading zero omitted, Abs format (unit mm)*
G04 Created by KiCad (PCBNEW 9.0.1) date 2025-09-15 21:48:15*
%MOMM*%
%LPD*%
G01*
G04 APERTURE LIST*
G04 Aperture macros list*
%AMRoundRect*
0 Rectangle with rounded corners*
0 $1 Rounding radius*
0 $2 $3 $4 $5 $6 $7 $8 $9 X,Y pos of 4 corners*
0 Add a 4 corners polygon primitive as box body*
4,1,4,$2,$3,$4,$5,$6,$7,$8,$9,$2,$3,0*
0 Add four circle primitives for the rounded corners*
1,1,$1+$1,$2,$3*
1,1,$1+$1,$4,$5*
1,1,$1+$1,$6,$7*
1,1,$1+$1,$8,$9*
0 Add four rect primitives between the rounded corners*
20,1,$1+$1,$2,$3,$4,$5,0*
20,1,$1+$1,$4,$5,$6,$7,0*
20,1,$1+$1,$6,$7,$8,$9,0*
20,1,$1+$1,$8,$9,$2,$3,0*%
G04 Aperture macros list end*
%TA.AperFunction,ComponentPad*%
%ADD10RoundRect,0.250000X0.850000X0.600000X-0.850000X0.600000X-0.850000X-0.600000X0.850000X-0.600000X0*%
%TD*%
%TA.AperFunction,ComponentPad*%
%ADD11O,2.200000X1.700000*%
%TD*%
%TA.AperFunction,ViaPad*%
%ADD12C,0.600000*%
%TD*%
%TA.AperFunction,Conductor*%
%ADD13C,0.200000*%
%TD*%
G04 APERTURE END LIST*
D10*
%TO.P,J1,1,Pin_1*%
%TO.N,+5V*%
X148140000Y-65500000D03*
D11*
%TO.P,J1,2,Pin_2*%
%TO.N,GND*%
X148140000Y-63000000D03*
%TO.P,J1,3,Pin_3*%
%TO.N,/DIN*%
X148140000Y-60500000D03*
%TD*%
D12*
%TO.N,/DIN*%
X149150000Y-70150000D03*
%TD*%
D13*
%TO.N,/DIN*%
X150500000Y-68800000D02*
X150500000Y-62860000D01*
X150500000Y-62860000D02*
X148140000Y-60500000D01*
X149150000Y-70150000D02*
X150500000Y-68800000D01*
%TD*%
%TA.AperFunction,Conductor*%
%TO.N,GND*%
G36*
X150506922Y-49001280D02*
G01*
X150597266Y-49011459D01*
X150624331Y-49017636D01*
X150703540Y-49045352D01*
X150728553Y-49057398D01*
X150799606Y-49102043D01*
X150821313Y-49119355D01*
X150880644Y-49178686D01*
X150897957Y-49200395D01*
X150942600Y-49271444D01*
X150954648Y-49296462D01*
X150982362Y-49375666D01*
X150988540Y-49402735D01*
X150998720Y-49493076D01*
X150999500Y-49506961D01*
X150999500Y-62210903D01*
X150979815Y-62277942D01*
X150927011Y-62323697D01*
X150857853Y-62333641D01*
X150794297Y-62304616D01*
X150787819Y-62298584D01*
X149660061Y-61170826D01*
X149626576Y-61109503D01*
X149631560Y-61039811D01*
X149637260Y-61026845D01*
X149641555Y-61018415D01*
X149641557Y-61018412D01*
X149707246Y-60816243D01*
X149740500Y-60606287D01*
X149740500Y-60393713D01*
X149707246Y-60183757D01*
X149641557Y-59981588D01*
X149545051Y-59792184D01*
X149545049Y-59792181D01*
X149545048Y-59792179D01*
X149420109Y-59620213D01*
X149269786Y-59469890D01*
X149097820Y-59344951D01*
X148908414Y-59248444D01*
X148908413Y-59248443D01*
X148908412Y-59248443D01*
X148706243Y-59182754D01*
X148706241Y-59182753D01*
X148706240Y-59182753D01*
X148544957Y-59157208D01*
X148496287Y-59149500D01*
X147783713Y-59149500D01*
X147735042Y-59157208D01*
X147573760Y-59182753D01*
X147371585Y-59248444D01*
X147182179Y-59344951D01*
X147010213Y-59469890D01*
X146859890Y-59620213D01*
X146734951Y-59792179D01*
X146638444Y-59981585D01*
X146572753Y-60183760D01*
X146563481Y-60242302D01*
X146539500Y-60393713D01*
X146539500Y-60606287D01*
X146572754Y-60816243D01*
X146607261Y-60922445D01*
X146638444Y-61018414D01*
X146734951Y-61207820D01*
X146859890Y-61379786D01*
X147010209Y-61530105D01*
X147010214Y-61530109D01*
X147175218Y-61649991D01*
X147217884Y-61705320D01*
X147223863Y-61774934D01*
X147191258Y-61836729D01*
X147175218Y-61850627D01*
X147010540Y-61970272D01*
X147010535Y-61970276D01*
X146860276Y-62120535D01*
X146860272Y-62120540D01*
X146735379Y-62292442D01*
X146638904Y-62481782D01*
X146573242Y-62683870D01*
X146573242Y-62683873D01*
X146562769Y-62750000D01*
X147591518Y-62750000D01*
X147580889Y-62768409D01*
X147540000Y-62921009D01*
X147540000Y-63078991D01*
X147580889Y-63231591D01*
X147591518Y-63250000D01*
X146562769Y-63250000D01*
X146573242Y-63316126D01*
X146573242Y-63316129D01*
X146638904Y-63518217D01*
X146735379Y-63707557D01*
X146860272Y-63879459D01*
X146860276Y-63879464D01*
X146999143Y-64018331D01*
X147032628Y-64079654D01*
X147027644Y-64149346D01*
X146985772Y-64205279D01*
X146976559Y-64211551D01*
X146821342Y-64307289D01*
X146697289Y-64431342D01*
X146605187Y-64580663D01*
X146605186Y-64580666D01*
X146550001Y-64747203D01*
X146550001Y-64747204D01*
X146550000Y-64747204D01*
X146539500Y-64849983D01*
X146539500Y-66150001D01*
X146539501Y-66150018D01*
X146550000Y-66252796D01*
X146550001Y-66252799D01*
X146578702Y-66339411D01*
X146605186Y-66419334D01*
X146697288Y-66568656D01*
X146821344Y-66692712D01*
X146970666Y-66784814D01*
X147137203Y-66839999D01*
X147239991Y-66850500D01*
X149040008Y-66850499D01*
X149142797Y-66839999D01*
X149309334Y-66784814D01*
X149458656Y-66692712D01*
X149582712Y-66568656D01*
X149669961Y-66427201D01*
X149721909Y-66380477D01*
X149790871Y-66369254D01*
X149854954Y-66397098D01*
X149893810Y-66455166D01*
X149899500Y-66492298D01*
X149899500Y-68499903D01*
X149879815Y-68566942D01*
X149863181Y-68587584D01*
X149135339Y-69315425D01*
X149074016Y-69348910D01*
X149071850Y-69349361D01*
X148916508Y-69380261D01*
X148916498Y-69380264D01*
X148770827Y-69440602D01*
X148770814Y-69440609D01*
X148639711Y-69528210D01*
X148639707Y-69528213D01*
X148528213Y-69639707D01*
X148528210Y-69639711D01*
X148440609Y-69770814D01*
X148440602Y-69770827D01*
X148380264Y-69916498D01*
X148380261Y-69916510D01*
X148349500Y-70071153D01*
X148349500Y-70228846D01*
X148380261Y-70383489D01*
X148380264Y-70383501D01*
X148440602Y-70529172D01*
X148440609Y-70529185D01*
X148528210Y-70660288D01*
X148528213Y-70660292D01*
X148639707Y-70771786D01*
X148639711Y-70771789D01*
X148770814Y-70859390D01*
X148770827Y-70859397D01*
X148916498Y-70919735D01*
X148916503Y-70919737D01*
X149071153Y-70950499D01*
X149071156Y-70950500D01*
X149071158Y-70950500D01*
X149228844Y-70950500D01*
X149228845Y-70950499D01*
X149383497Y-70919737D01*
X149529179Y-70859394D01*
X149660289Y-70771789D01*
X149771789Y-70660289D01*
X149859394Y-70529179D01*
X149919737Y-70383497D01*
X149939113Y-70286085D01*
X149950638Y-70228150D01*
X149983023Y-70166239D01*
X149984520Y-70164714D01*
X150787819Y-69361414D01*
X150849142Y-69327930D01*
X150918834Y-69332914D01*
X150974767Y-69374786D01*
X150999184Y-69440250D01*
X150999500Y-69449096D01*
X150999500Y-110493038D01*
X150998720Y-110506922D01*
X150998720Y-110506923D01*
X150988540Y-110597264D01*
X150982362Y-110624333D01*
X150954648Y-110703537D01*
X150942600Y-110728555D01*
X150897957Y-110799604D01*
X150880644Y-110821313D01*
X150821313Y-110880644D01*
X150799604Y-110897957D01*
X150728555Y-110942600D01*
X150703537Y-110954648D01*
X150624333Y-110982362D01*
X150597264Y-110988540D01*
X150517075Y-110997576D01*
X150506921Y-110998720D01*
X150493038Y-110999500D01*
X138006962Y-110999500D01*
X137993078Y-110998720D01*
X137980553Y-110997308D01*
X137902735Y-110988540D01*
X137875666Y-110982362D01*
X137796462Y-110954648D01*
X137771444Y-110942600D01*
X137700395Y-110897957D01*
X137678686Y-110880644D01*
X137619355Y-110821313D01*
X137602042Y-110799604D01*
X137557399Y-110728555D01*
X137545351Y-110703537D01*
X137517637Y-110624333D01*
X137511459Y-110597263D01*
X137501280Y-110506922D01*
X137500500Y-110493038D01*
X137500500Y-107878711D01*
X142649500Y-107878711D01*
X142649500Y-108121288D01*
X142681161Y-108361785D01*
X142743947Y-108596104D01*
X142836773Y-108820205D01*
X142836776Y-108820212D01*
X142958064Y-109030289D01*
X142958066Y-109030292D01*
X142958067Y-109030293D01*
X143105733Y-109222736D01*
X143105739Y-109222743D01*
X143277256Y-109394260D01*
X143277262Y-109394265D01*
X143469711Y-109541936D01*
X143679788Y-109663224D01*
X143903900Y-109756054D01*
X144138211Y-109818838D01*
X144318586Y-109842584D01*
X144378711Y-109850500D01*
X144378712Y-109850500D01*
X144621289Y-109850500D01*
X144669388Y-109844167D01*
X144861789Y-109818838D01*
X145096100Y-109756054D01*
X145320212Y-109663224D01*
X145530289Y-109541936D01*
X145722738Y-109394265D01*
X145894265Y-109222738D01*
X146041936Y-109030289D01*
X146163224Y-108820212D01*
X146256054Y-108596100D01*
X146318838Y-108361789D01*
X146350500Y-108121288D01*
X146350500Y-107878712D01*
X146318838Y-107638211D01*
X146256054Y-107403900D01*
X146163224Y-107179788D01*
X146041936Y-106969711D01*
X145894265Y-106777262D01*
X145894260Y-106777256D01*
X145722743Y-106605739D01*
X145722736Y-106605733D01*
X145530293Y-106458067D01*
X145530292Y-106458066D01*
X145530289Y-106458064D01*
X145320212Y-106336776D01*
X145320205Y-106336773D01*
X145096104Y-106243947D01*
X144861785Y-106181161D01*
X144621289Y-106149500D01*
X144621288Y-106149500D01*
X144378712Y-106149500D01*
X144378711Y-106149500D01*
X144138214Y-106181161D01*
X143903895Y-106243947D01*
X143679794Y-106336773D01*
X143679785Y-106336777D01*
X143469706Y-106458067D01*
X143277263Y-106605733D01*
X143277256Y-106605739D01*
X143105739Y-106777256D01*
X143105733Y-106777263D01*
X142958067Y-106969706D01*
X142836777Y-107179785D01*
X142836773Y-107179794D01*
X142743947Y-107403895D01*
X142681161Y-107638214D01*
X142649500Y-107878711D01*
X137500500Y-107878711D01*
X137500500Y-65413389D01*
X139859500Y-65413389D01*
X139859500Y-65586611D01*
X139886598Y-65757701D01*
X139940127Y-65922445D01*
X140018768Y-66076788D01*
X140120586Y-66216928D01*
X140243072Y-66339414D01*
X140383212Y-66441232D01*
X140537555Y-66519873D01*
X140702299Y-66573402D01*
X140873389Y-66600500D01*
X140873390Y-66600500D01*
X141046610Y-66600500D01*
X141046611Y-66600500D01*
X141217701Y-66573402D01*
X141382445Y-66519873D01*
X141536788Y-66441232D01*
X141676928Y-66339414D01*
X141799414Y-66216928D01*
X141901232Y-66076788D01*
X141979873Y-65922445D01*
X142033402Y-65757701D01*
X142060500Y-65586611D01*
X142060500Y-65413389D01*
X142033402Y-65242299D01*
X141979873Y-65077555D01*
X141901232Y-64923212D01*
X141799414Y-64783072D01*
X141676928Y-64660586D01*
X141536788Y-64558768D01*
X141382447Y-64480128D01*
X141382446Y-64480127D01*
X141382445Y-64480127D01*
X141217701Y-64426598D01*
X141217699Y-64426597D01*
X141217698Y-64426597D01*
X141086271Y-64405781D01*
X141046611Y-64399500D01*
X140873389Y-64399500D01*
X140833728Y-64405781D01*
X140702302Y-64426597D01*
X140537552Y-64480128D01*
X140383211Y-64558768D01*
X140353069Y-64580668D01*
X140243072Y-64660586D01*
X140243070Y-64660588D01*
X140243069Y-64660588D01*
X140120588Y-64783069D01*
X140120588Y-64783070D01*
X140120586Y-64783072D01*
X140076859Y-64843256D01*
X140018768Y-64923211D01*
X139940128Y-65077552D01*
X139886597Y-65242302D01*
X139859500Y-65413389D01*
X137500500Y-65413389D01*
X137500500Y-60413389D01*
X139859500Y-60413389D01*
X139859500Y-60586611D01*
X139886598Y-60757701D01*
X139940127Y-60922445D01*
X140018768Y-61076788D01*
X140120586Y-61216928D01*
X140243072Y-61339414D01*
X140383212Y-61441232D01*
X140537555Y-61519873D01*
X140702299Y-61573402D01*
X140873389Y-61600500D01*
X140873390Y-61600500D01*
X141046610Y-61600500D01*
X141046611Y-61600500D01*
X141217701Y-61573402D01*
X141382445Y-61519873D01*
X141536788Y-61441232D01*
X141676928Y-61339414D01*
X141799414Y-61216928D01*
X141901232Y-61076788D01*
X141979873Y-60922445D01*
X142033402Y-60757701D01*
X142060500Y-60586611D01*
X142060500Y-60413389D01*
X142033402Y-60242299D01*
X141979873Y-60077555D01*
X141901232Y-59923212D01*
X141799414Y-59783072D01*
X141676928Y-59660586D01*
X141536788Y-59558768D01*
X141382445Y-59480127D01*
X141217701Y-59426598D01*
X141217699Y-59426597D01*
X141217698Y-59426597D01*
X141086271Y-59405781D01*
X141046611Y-59399500D01*
X140873389Y-59399500D01*
X140833728Y-59405781D01*
X140702302Y-59426597D01*
X140537552Y-59480128D01*
X140383211Y-59558768D01*
X140303256Y-59616859D01*
X140243072Y-59660586D01*
X140243070Y-59660588D01*
X140243069Y-59660588D01*
X140120588Y-59783069D01*
X140120588Y-59783070D01*
X140120586Y-59783072D01*
X140113966Y-59792184D01*
X140018768Y-59923211D01*
X139940128Y-60077552D01*
X139886597Y-60242302D01*
X139862616Y-60393713D01*
X139859500Y-60413389D01*
X137500500Y-60413389D01*
X137500500Y-51878711D01*
X142649500Y-51878711D01*
X142649500Y-52121288D01*
X142681161Y-52361785D01*
X142743947Y-52596104D01*
X142836773Y-52820205D01*
X142836776Y-52820212D01*
X142958064Y-53030289D01*
X142958066Y-53030292D01*
X142958067Y-53030293D01*
X143105733Y-53222736D01*
X143105739Y-53222743D01*
X143277256Y-53394260D01*
X143277262Y-53394265D01*
X143469711Y-53541936D01*
X143679788Y-53663224D01*
X143903900Y-53756054D01*
X144138211Y-53818838D01*
X144318586Y-53842584D01*
X144378711Y-53850500D01*
X144378712Y-53850500D01*
X144621289Y-53850500D01*
X144669388Y-53844167D01*
X144861789Y-53818838D01*
X145096100Y-53756054D01*
X145320212Y-53663224D01*
X145530289Y-53541936D01*
X145722738Y-53394265D01*
X145894265Y-53222738D01*
X146041936Y-53030289D01*
X146163224Y-52820212D01*
X146256054Y-52596100D01*
X146318838Y-52361789D01*
X146350500Y-52121288D01*
X146350500Y-51878712D01*
X146318838Y-51638211D01*
X146256054Y-51403900D01*
X146163224Y-51179788D01*
X146041936Y-50969711D01*
X145894265Y-50777262D01*
X145894260Y-50777256D01*
X145722743Y-50605739D01*
X145722736Y-50605733D01*
X145530293Y-50458067D01*
X145530292Y-50458066D01*
X145530289Y-50458064D01*
X145320212Y-50336776D01*
X145320205Y-50336773D01*
X145096104Y-50243947D01*
X144861785Y-50181161D01*
X144621289Y-50149500D01*
X144621288Y-50149500D01*
X144378712Y-50149500D01*
X144378711Y-50149500D01*
X144138214Y-50181161D01*
X143903895Y-50243947D01*
X143679794Y-50336773D01*
X143679785Y-50336777D01*
X143469706Y-50458067D01*
X143277263Y-50605733D01*
X143277256Y-50605739D01*
X143105739Y-50777256D01*
X143105733Y-50777263D01*
X142958067Y-50969706D01*
X142836777Y-51179785D01*
X142836773Y-51179794D01*
X142743947Y-51403895D01*
X142681161Y-51638214D01*
X142649500Y-51878711D01*
X137500500Y-51878711D01*
X137500500Y-49506961D01*
X137501280Y-49493077D01*
X137501280Y-49493076D01*
X137511460Y-49402729D01*
X137517635Y-49375670D01*
X137545353Y-49296456D01*
X137557396Y-49271450D01*
X137602046Y-49200389D01*
X137619351Y-49178690D01*
X137678690Y-49119351D01*
X137700389Y-49102046D01*
X137771450Y-49057396D01*
X137796456Y-49045353D01*
X137875670Y-49017635D01*
X137902733Y-49011459D01*
X137965419Y-49004396D01*
X137993079Y-49001280D01*
X138006962Y-49000500D01*
X138065892Y-49000500D01*
X150434108Y-49000500D01*
X150493038Y-49000500D01*
X150506922Y-49001280D01*
G37*
%TD.AperFunction*%
%TD*%
M02*
