%TF.GenerationSoftware,KiCad,Pcbnew,9.0.5*%
%TF.CreationDate,2025-10-25T18:18:29-05:00*%
%TF.ProjectId,IndicationPCB,496e6469-6361-4746-996f-6e5043422e6b,rev?*%
%TF.SameCoordinates,Original*%
%TF.FileFunction,Legend,Bot*%
%TF.FilePolarity,Positive*%
%FSLAX46Y46*%
G04 Gerber Fmt 4.6, Leading zero omitted, Abs format (unit mm)*
G04 Created by KiCad (PCBNEW 9.0.5) date 2025-10-25 18:18:29*
%MOMM*%
%LPD*%
G01*
G04 APERTURE LIST*
G04 Aperture macros list*
%AMFreePoly0*
4,1,22,0.945671,0.830970,1.026777,0.776777,1.080970,0.695671,1.100000,0.600000,1.100000,-0.600000,1.080970,-0.695671,1.026777,-0.776777,0.945671,-0.830970,0.850000,-0.850000,-0.850000,-0.850000,-0.945671,-0.830970,-1.026777,-0.776777,-1.080970,-0.695671,-1.100000,-0.600000,-1.100000,0.346447,-1.080970,0.442118,-1.026777,0.523224,-0.773224,0.776777,-0.692118,0.830970,-0.596447,0.850000,
0.850000,0.850000,0.945671,0.830970,0.945671,0.830970,$1*%
G04 Aperture macros list end*
%ADD10C,0.100000*%
%ADD11C,0.150000*%
%ADD12C,0.120000*%
%ADD13C,0.000000*%
%ADD14C,3.200000*%
%ADD15C,1.300000*%
%ADD16FreePoly0,0.000000*%
%ADD17O,2.200000X1.700000*%
G04 APERTURE END LIST*
D10*
X149983734Y-103566704D02*
X149507544Y-103566704D01*
X150078972Y-103852419D02*
X149745639Y-102852419D01*
X149745639Y-102852419D02*
X149412306Y-103852419D01*
X149078972Y-103852419D02*
X149078972Y-102852419D01*
X149078972Y-103233371D02*
X148983734Y-103185752D01*
X148983734Y-103185752D02*
X148793258Y-103185752D01*
X148793258Y-103185752D02*
X148698020Y-103233371D01*
X148698020Y-103233371D02*
X148650401Y-103280990D01*
X148650401Y-103280990D02*
X148602782Y-103376228D01*
X148602782Y-103376228D02*
X148602782Y-103661942D01*
X148602782Y-103661942D02*
X148650401Y-103757180D01*
X148650401Y-103757180D02*
X148698020Y-103804800D01*
X148698020Y-103804800D02*
X148793258Y-103852419D01*
X148793258Y-103852419D02*
X148983734Y-103852419D01*
X148983734Y-103852419D02*
X149078972Y-103804800D01*
X148174210Y-103852419D02*
X148174210Y-103185752D01*
X148174210Y-102852419D02*
X148221829Y-102900038D01*
X148221829Y-102900038D02*
X148174210Y-102947657D01*
X148174210Y-102947657D02*
X148126591Y-102900038D01*
X148126591Y-102900038D02*
X148174210Y-102852419D01*
X148174210Y-102852419D02*
X148174210Y-102947657D01*
X147269449Y-103185752D02*
X147269449Y-103995276D01*
X147269449Y-103995276D02*
X147317068Y-104090514D01*
X147317068Y-104090514D02*
X147364687Y-104138133D01*
X147364687Y-104138133D02*
X147459925Y-104185752D01*
X147459925Y-104185752D02*
X147602782Y-104185752D01*
X147602782Y-104185752D02*
X147698020Y-104138133D01*
X147269449Y-103804800D02*
X147364687Y-103852419D01*
X147364687Y-103852419D02*
X147555163Y-103852419D01*
X147555163Y-103852419D02*
X147650401Y-103804800D01*
X147650401Y-103804800D02*
X147698020Y-103757180D01*
X147698020Y-103757180D02*
X147745639Y-103661942D01*
X147745639Y-103661942D02*
X147745639Y-103376228D01*
X147745639Y-103376228D02*
X147698020Y-103280990D01*
X147698020Y-103280990D02*
X147650401Y-103233371D01*
X147650401Y-103233371D02*
X147555163Y-103185752D01*
X147555163Y-103185752D02*
X147364687Y-103185752D01*
X147364687Y-103185752D02*
X147269449Y-103233371D01*
X146364687Y-103852419D02*
X146364687Y-103328609D01*
X146364687Y-103328609D02*
X146412306Y-103233371D01*
X146412306Y-103233371D02*
X146507544Y-103185752D01*
X146507544Y-103185752D02*
X146698020Y-103185752D01*
X146698020Y-103185752D02*
X146793258Y-103233371D01*
X146364687Y-103804800D02*
X146459925Y-103852419D01*
X146459925Y-103852419D02*
X146698020Y-103852419D01*
X146698020Y-103852419D02*
X146793258Y-103804800D01*
X146793258Y-103804800D02*
X146840877Y-103709561D01*
X146840877Y-103709561D02*
X146840877Y-103614323D01*
X146840877Y-103614323D02*
X146793258Y-103519085D01*
X146793258Y-103519085D02*
X146698020Y-103471466D01*
X146698020Y-103471466D02*
X146459925Y-103471466D01*
X146459925Y-103471466D02*
X146364687Y-103423847D01*
X145888496Y-103852419D02*
X145888496Y-103185752D01*
X145888496Y-102852419D02*
X145936115Y-102900038D01*
X145936115Y-102900038D02*
X145888496Y-102947657D01*
X145888496Y-102947657D02*
X145840877Y-102900038D01*
X145840877Y-102900038D02*
X145888496Y-102852419D01*
X145888496Y-102852419D02*
X145888496Y-102947657D01*
X145269449Y-103852419D02*
X145364687Y-103804800D01*
X145364687Y-103804800D02*
X145412306Y-103709561D01*
X145412306Y-103709561D02*
X145412306Y-102852419D01*
X144126591Y-103852419D02*
X144126591Y-102852419D01*
X144126591Y-102852419D02*
X143745639Y-102852419D01*
X143745639Y-102852419D02*
X143650401Y-102900038D01*
X143650401Y-102900038D02*
X143602782Y-102947657D01*
X143602782Y-102947657D02*
X143555163Y-103042895D01*
X143555163Y-103042895D02*
X143555163Y-103185752D01*
X143555163Y-103185752D02*
X143602782Y-103280990D01*
X143602782Y-103280990D02*
X143650401Y-103328609D01*
X143650401Y-103328609D02*
X143745639Y-103376228D01*
X143745639Y-103376228D02*
X144126591Y-103376228D01*
X142698020Y-103852419D02*
X142698020Y-103328609D01*
X142698020Y-103328609D02*
X142745639Y-103233371D01*
X142745639Y-103233371D02*
X142840877Y-103185752D01*
X142840877Y-103185752D02*
X143031353Y-103185752D01*
X143031353Y-103185752D02*
X143126591Y-103233371D01*
X142698020Y-103804800D02*
X142793258Y-103852419D01*
X142793258Y-103852419D02*
X143031353Y-103852419D01*
X143031353Y-103852419D02*
X143126591Y-103804800D01*
X143126591Y-103804800D02*
X143174210Y-103709561D01*
X143174210Y-103709561D02*
X143174210Y-103614323D01*
X143174210Y-103614323D02*
X143126591Y-103519085D01*
X143126591Y-103519085D02*
X143031353Y-103471466D01*
X143031353Y-103471466D02*
X142793258Y-103471466D01*
X142793258Y-103471466D02*
X142698020Y-103423847D01*
X142221829Y-103852419D02*
X142221829Y-103185752D01*
X142221829Y-103376228D02*
X142174210Y-103280990D01*
X142174210Y-103280990D02*
X142126591Y-103233371D01*
X142126591Y-103233371D02*
X142031353Y-103185752D01*
X142031353Y-103185752D02*
X141936115Y-103185752D01*
X141650400Y-103804800D02*
X141555162Y-103852419D01*
X141555162Y-103852419D02*
X141364686Y-103852419D01*
X141364686Y-103852419D02*
X141269448Y-103804800D01*
X141269448Y-103804800D02*
X141221829Y-103709561D01*
X141221829Y-103709561D02*
X141221829Y-103661942D01*
X141221829Y-103661942D02*
X141269448Y-103566704D01*
X141269448Y-103566704D02*
X141364686Y-103519085D01*
X141364686Y-103519085D02*
X141507543Y-103519085D01*
X141507543Y-103519085D02*
X141602781Y-103471466D01*
X141602781Y-103471466D02*
X141650400Y-103376228D01*
X141650400Y-103376228D02*
X141650400Y-103328609D01*
X141650400Y-103328609D02*
X141602781Y-103233371D01*
X141602781Y-103233371D02*
X141507543Y-103185752D01*
X141507543Y-103185752D02*
X141364686Y-103185752D01*
X141364686Y-103185752D02*
X141269448Y-103233371D01*
X140650400Y-103852419D02*
X140745638Y-103804800D01*
X140745638Y-103804800D02*
X140793257Y-103757180D01*
X140793257Y-103757180D02*
X140840876Y-103661942D01*
X140840876Y-103661942D02*
X140840876Y-103376228D01*
X140840876Y-103376228D02*
X140793257Y-103280990D01*
X140793257Y-103280990D02*
X140745638Y-103233371D01*
X140745638Y-103233371D02*
X140650400Y-103185752D01*
X140650400Y-103185752D02*
X140507543Y-103185752D01*
X140507543Y-103185752D02*
X140412305Y-103233371D01*
X140412305Y-103233371D02*
X140364686Y-103280990D01*
X140364686Y-103280990D02*
X140317067Y-103376228D01*
X140317067Y-103376228D02*
X140317067Y-103661942D01*
X140317067Y-103661942D02*
X140364686Y-103757180D01*
X140364686Y-103757180D02*
X140412305Y-103804800D01*
X140412305Y-103804800D02*
X140507543Y-103852419D01*
X140507543Y-103852419D02*
X140650400Y-103852419D01*
X139888495Y-103185752D02*
X139888495Y-103852419D01*
X139888495Y-103280990D02*
X139840876Y-103233371D01*
X139840876Y-103233371D02*
X139745638Y-103185752D01*
X139745638Y-103185752D02*
X139602781Y-103185752D01*
X139602781Y-103185752D02*
X139507543Y-103233371D01*
X139507543Y-103233371D02*
X139459924Y-103328609D01*
X139459924Y-103328609D02*
X139459924Y-103852419D01*
X139031352Y-103804800D02*
X138936114Y-103852419D01*
X138936114Y-103852419D02*
X138745638Y-103852419D01*
X138745638Y-103852419D02*
X138650400Y-103804800D01*
X138650400Y-103804800D02*
X138602781Y-103709561D01*
X138602781Y-103709561D02*
X138602781Y-103661942D01*
X138602781Y-103661942D02*
X138650400Y-103566704D01*
X138650400Y-103566704D02*
X138745638Y-103519085D01*
X138745638Y-103519085D02*
X138888495Y-103519085D01*
X138888495Y-103519085D02*
X138983733Y-103471466D01*
X138983733Y-103471466D02*
X139031352Y-103376228D01*
X139031352Y-103376228D02*
X139031352Y-103328609D01*
X139031352Y-103328609D02*
X138983733Y-103233371D01*
X138983733Y-103233371D02*
X138888495Y-103185752D01*
X138888495Y-103185752D02*
X138745638Y-103185752D01*
X138745638Y-103185752D02*
X138650400Y-103233371D01*
G36*
X149352302Y-97684591D02*
G01*
X149369094Y-97711153D01*
X149370498Y-97725136D01*
X149366596Y-97735432D01*
X149352892Y-97743278D01*
X149321528Y-97747545D01*
X149311758Y-97747545D01*
X149280987Y-97744801D01*
X149264863Y-97738447D01*
X149257346Y-97729349D01*
X149265596Y-97729349D01*
X149273272Y-97737337D01*
X149314567Y-97741927D01*
X149348501Y-97738815D01*
X149362548Y-97732199D01*
X149366285Y-97723731D01*
X149362977Y-97710941D01*
X149353277Y-97703129D01*
X149334106Y-97699979D01*
X149311898Y-97702367D01*
X149288677Y-97709809D01*
X149269908Y-97720903D01*
X149265596Y-97729349D01*
X149257346Y-97729349D01*
X149255183Y-97726731D01*
X149251552Y-97707001D01*
X149255260Y-97689620D01*
X149265334Y-97679847D01*
X149283731Y-97676165D01*
X149318719Y-97673417D01*
X149338319Y-97672013D01*
X149352302Y-97684591D01*
G37*
G36*
X149453053Y-97681782D02*
G01*
X149451187Y-97696074D01*
X149447496Y-97699979D01*
X149437665Y-97695826D01*
X149433452Y-97683187D01*
X149437665Y-97687400D01*
X149439070Y-97691552D01*
X149445728Y-97696952D01*
X149451648Y-97680378D01*
X149454457Y-97664991D01*
X149453053Y-97681782D01*
G37*
G36*
X149393180Y-97559944D02*
G01*
X149402006Y-97568515D01*
X149407761Y-97580344D01*
X149409699Y-97593672D01*
X149406274Y-97615516D01*
X149397908Y-97626370D01*
X149384481Y-97630003D01*
X149367690Y-97623042D01*
X149359468Y-97610192D01*
X149356516Y-97592267D01*
X149359725Y-97575677D01*
X149369094Y-97562897D01*
X149383077Y-97557280D01*
X149393180Y-97559944D01*
G37*
G36*
X149244591Y-97564302D02*
G01*
X149250768Y-97575187D01*
X149252957Y-97589459D01*
X149251020Y-97602796D01*
X149245263Y-97614677D01*
X149236658Y-97623302D01*
X149227800Y-97625851D01*
X149220778Y-97624446D01*
X149209734Y-97614888D01*
X149205390Y-97593672D01*
X149208698Y-97571601D01*
X149216663Y-97560822D01*
X149229204Y-97557280D01*
X149244591Y-97564302D01*
G37*
G36*
X149215221Y-97192137D02*
G01*
X149250209Y-97252281D01*
X149271153Y-97285865D01*
X149272557Y-97242512D01*
X149278561Y-97174979D01*
X149283731Y-97165575D01*
X149285136Y-97166919D01*
X149290753Y-97194213D01*
X149301988Y-97245321D01*
X149308949Y-97270478D01*
X149315910Y-97255090D01*
X149337947Y-97203546D01*
X149343937Y-97196350D01*
X149345341Y-97206120D01*
X149343937Y-97238299D01*
X149342533Y-97273286D01*
X149345341Y-97291482D01*
X149348089Y-97288674D01*
X149372575Y-97254419D01*
X149420874Y-97197754D01*
X149444626Y-97173941D01*
X149442550Y-97181634D01*
X149435589Y-97200563D01*
X149427834Y-97221507D01*
X149412508Y-97263517D01*
X149402677Y-97291482D01*
X149425087Y-97271882D01*
X149475232Y-97229578D01*
X149493597Y-97221507D01*
X149479614Y-97242512D01*
X149449572Y-97284460D01*
X149437665Y-97305465D01*
X149487369Y-97278904D01*
X149538354Y-97252281D01*
X149539759Y-97253686D01*
X149534115Y-97265229D01*
X149497810Y-97315235D01*
X149521915Y-97304824D01*
X149618100Y-97241107D01*
X149657301Y-97215889D01*
X149650340Y-97228529D01*
X149627930Y-97262112D01*
X149598560Y-97307541D01*
X149594347Y-97327814D01*
X149597156Y-97346010D01*
X149655896Y-97325066D01*
X149629335Y-97350223D01*
X149602773Y-97373304D01*
X149598560Y-97386615D01*
X149601308Y-97397789D01*
X149650279Y-97390767D01*
X149700654Y-97383806D01*
X149704867Y-97385211D01*
X149682458Y-97400598D01*
X149625573Y-97436066D01*
X149599965Y-97456530D01*
X149598560Y-97457934D01*
X149598069Y-97461260D01*
X149602712Y-97463551D01*
X149613948Y-97465689D01*
X149626526Y-97466360D01*
X149696656Y-97477033D01*
X149704867Y-97480343D01*
X149656629Y-97490846D01*
X149606926Y-97499944D01*
X149592943Y-97504096D01*
X149611139Y-97512522D01*
X149686120Y-97550312D01*
X149710484Y-97567049D01*
X149713232Y-97569858D01*
X149707676Y-97571263D01*
X149650279Y-97564302D01*
X149592943Y-97557280D01*
X149620969Y-97588787D01*
X149653820Y-97625851D01*
X149665666Y-97643986D01*
X149664323Y-97645390D01*
X149594347Y-97614616D01*
X149592943Y-97618829D01*
X149599578Y-97650620D01*
X149627930Y-97713961D01*
X149652299Y-97771932D01*
X149658705Y-97809094D01*
X149658705Y-97817520D01*
X149655413Y-97838879D01*
X149651683Y-97842677D01*
X149650279Y-97834312D01*
X149645217Y-97809945D01*
X149626526Y-97775511D01*
X149610499Y-97755147D01*
X149605521Y-97751758D01*
X149605521Y-97754567D01*
X149608330Y-97771297D01*
X149612543Y-97810498D01*
X149607895Y-97850707D01*
X149595751Y-97877665D01*
X149584577Y-97888839D01*
X149582277Y-97886427D01*
X149581769Y-97865087D01*
X149580152Y-97836093D01*
X149576151Y-97817520D01*
X149569190Y-97796516D01*
X149566381Y-97817520D01*
X149557250Y-97849824D01*
X149542568Y-97873452D01*
X149549590Y-97897266D01*
X149587325Y-98060908D01*
X149599965Y-98114092D01*
X149605554Y-98114638D01*
X149623717Y-98100109D01*
X149636771Y-98084479D01*
X149642646Y-98072144D01*
X149646127Y-98020364D01*
X149651990Y-97958963D01*
X149665666Y-97926636D01*
X149684805Y-97909030D01*
X149700654Y-97904227D01*
X149709649Y-97906275D01*
X149717445Y-97912653D01*
X149721252Y-97926146D01*
X149709080Y-97947580D01*
X149695097Y-97971393D01*
X149692288Y-98007786D01*
X149692288Y-98021769D01*
X149690553Y-98064446D01*
X149686671Y-98086127D01*
X149672252Y-98117224D01*
X149649427Y-98142145D01*
X149616756Y-98161659D01*
X149601308Y-98167276D01*
X149612543Y-98185411D01*
X149625647Y-98211722D01*
X149629335Y-98231634D01*
X149627930Y-98242808D01*
X149618100Y-98258196D01*
X149609734Y-98265157D01*
X149602773Y-98275659D01*
X149591538Y-98281948D01*
X149577555Y-98287566D01*
X149569190Y-98290375D01*
X149563572Y-98289642D01*
X149557955Y-98284757D01*
X149553742Y-98279200D01*
X149525776Y-98286161D01*
X149495001Y-98294588D01*
X149491655Y-98296338D01*
X149492192Y-98302953D01*
X149496406Y-98326706D01*
X149499214Y-98347711D01*
X149501500Y-98411181D01*
X149508984Y-98487601D01*
X149508984Y-98494623D01*
X149503429Y-98513863D01*
X149488040Y-98519780D01*
X149478210Y-98519780D01*
X149494622Y-98505590D01*
X149499214Y-98491814D01*
X149497810Y-98475022D01*
X149495001Y-98424647D01*
X149491943Y-98356138D01*
X149483827Y-98304357D01*
X149480308Y-98298484D01*
X149476805Y-98298740D01*
X149460013Y-98301549D01*
X149426491Y-98307166D01*
X149409699Y-98311379D01*
X149418065Y-98360289D01*
X149430643Y-98438691D01*
X149434856Y-98470809D01*
X149425087Y-98490409D01*
X149415256Y-98515628D01*
X149411043Y-98519780D01*
X149407036Y-98515116D01*
X149415256Y-98489005D01*
X149425087Y-98468061D01*
X149419469Y-98428860D01*
X149402380Y-98328383D01*
X149397060Y-98311379D01*
X149370498Y-98308571D01*
X149346746Y-98308571D01*
X149346746Y-98400894D01*
X149343937Y-98498836D01*
X149338948Y-98505042D01*
X149325741Y-98512819D01*
X149308382Y-98517582D01*
X149271153Y-98519780D01*
X149236570Y-98517641D01*
X149229204Y-98514223D01*
X149227800Y-98508606D01*
X149228226Y-98507201D01*
X149237569Y-98507201D01*
X149241254Y-98514058D01*
X149255765Y-98517032D01*
X149294740Y-98512015D01*
X149336915Y-98496027D01*
X149338319Y-98421899D01*
X149336915Y-98328110D01*
X149335511Y-98309975D01*
X149314567Y-98308571D01*
X149282388Y-98307166D01*
X149265508Y-98303987D01*
X149262787Y-98305762D01*
X149269809Y-98372196D01*
X149276770Y-98434478D01*
X149278175Y-98459635D01*
X149258574Y-98477831D01*
X149241403Y-98497059D01*
X149237569Y-98507201D01*
X149228226Y-98507201D01*
X149232603Y-98492756D01*
X149250209Y-98473618D01*
X149264002Y-98459811D01*
X149267001Y-98452674D01*
X149264433Y-98404298D01*
X149254361Y-98316936D01*
X149252957Y-98301549D01*
X149232013Y-98295931D01*
X149194216Y-98281948D01*
X149180966Y-98273583D01*
X149180233Y-98262409D01*
X149191468Y-98208553D01*
X149215221Y-98105666D01*
X149227800Y-98052543D01*
X149230608Y-98037156D01*
X149206725Y-98051058D01*
X149174439Y-98060275D01*
X149131263Y-98063717D01*
X149087909Y-98063717D01*
X149081485Y-98056756D01*
X149103297Y-98056756D01*
X149115875Y-98056756D01*
X149121243Y-98055352D01*
X149142437Y-98055352D01*
X149167655Y-98052543D01*
X149206549Y-98041630D01*
X149224991Y-98024577D01*
X149229377Y-98004555D01*
X149232013Y-97926636D01*
X149234822Y-97834312D01*
X149238974Y-97907035D01*
X149238974Y-97982568D01*
X149234822Y-98058832D01*
X149213817Y-98153232D01*
X149188599Y-98262409D01*
X149194385Y-98271260D01*
X149222151Y-98283228D01*
X149297775Y-98298740D01*
X149317315Y-98301549D01*
X149318719Y-98283353D01*
X149319898Y-98270774D01*
X149329954Y-98270774D01*
X149329954Y-98297336D01*
X149341128Y-98298740D01*
X149359324Y-98300144D01*
X149450976Y-98291718D01*
X149505095Y-98282227D01*
X149537011Y-98273583D01*
X149551666Y-98266561D01*
X149552398Y-98256791D01*
X149546597Y-98234663D01*
X149537011Y-98223208D01*
X149535607Y-98223208D01*
X149525104Y-98237191D01*
X149515559Y-98248472D01*
X149508984Y-98251174D01*
X149499214Y-98244152D01*
X149495001Y-98228825D01*
X149495295Y-98227421D01*
X149504832Y-98227421D01*
X149506299Y-98239104D01*
X149508984Y-98241404D01*
X149515334Y-98234443D01*
X149524433Y-98219727D01*
X149529989Y-98210629D01*
X149532798Y-98210629D01*
X149539393Y-98213695D01*
X149550261Y-98227421D01*
X149563572Y-98262409D01*
X149566638Y-98276311D01*
X149570533Y-98279200D01*
X149576450Y-98277482D01*
X149580364Y-98272178D01*
X149581769Y-98265157D01*
X149574747Y-98223208D01*
X149576151Y-98216186D01*
X149584577Y-98232978D01*
X149588729Y-98258196D01*
X149590134Y-98267965D01*
X149594347Y-98269370D01*
X149600103Y-98264857D01*
X149602712Y-98249769D01*
X149599965Y-98227421D01*
X149597156Y-98209225D01*
X149598113Y-98205719D01*
X149601308Y-98209225D01*
X149609734Y-98230230D01*
X149612543Y-98237191D01*
X149617565Y-98246422D01*
X149619504Y-98231634D01*
X149615023Y-98212820D01*
X149595751Y-98175642D01*
X149585921Y-98160254D01*
X149570533Y-98165872D01*
X149537011Y-98174237D01*
X149518815Y-98175642D01*
X149511793Y-98192433D01*
X149504832Y-98227421D01*
X149495295Y-98227421D01*
X149502023Y-98195242D01*
X149508984Y-98174237D01*
X149498965Y-98157387D01*
X149493688Y-98136502D01*
X149500619Y-98136502D01*
X149501352Y-98144867D01*
X149502756Y-98151889D01*
X149504160Y-98156041D01*
X149506236Y-98159583D01*
X149510389Y-98160987D01*
X149517411Y-98163063D01*
X149522295Y-98163796D01*
X149528585Y-98164467D01*
X149569856Y-98158759D01*
X149591538Y-98144867D01*
X149592943Y-98129480D01*
X149588729Y-98116901D01*
X149571938Y-98125266D01*
X149555785Y-98131541D01*
X149528585Y-98135097D01*
X149500619Y-98136502D01*
X149493688Y-98136502D01*
X149489445Y-98119710D01*
X149465980Y-97991340D01*
X149451648Y-97940619D01*
X149446031Y-97921018D01*
X149448839Y-97925232D01*
X149454457Y-97930788D01*
X149458609Y-97908440D01*
X149467441Y-97867534D01*
X149486636Y-97838464D01*
X149496406Y-97831503D01*
X149497279Y-97833272D01*
X149488040Y-97845486D01*
X149469844Y-97879070D01*
X149462822Y-97921018D01*
X149474057Y-97995146D01*
X149483827Y-98042041D01*
X149492192Y-98083318D01*
X149502023Y-98126671D01*
X149518815Y-98130884D01*
X149548847Y-98127781D01*
X149569190Y-98119710D01*
X149584258Y-98110761D01*
X149587325Y-98105666D01*
X149565648Y-97999359D01*
X149534202Y-97874856D01*
X149520219Y-97837060D01*
X149509628Y-97823878D01*
X149485232Y-97806285D01*
X149475401Y-97813307D01*
X149464959Y-97818192D01*
X149453053Y-97823810D01*
X149448839Y-97832908D01*
X149443059Y-97844694D01*
X149426430Y-97851043D01*
X149415256Y-97853852D01*
X149423682Y-97867834D01*
X149429239Y-97881878D01*
X149415103Y-97895384D01*
X149360729Y-97933597D01*
X149342533Y-97946175D01*
X149341128Y-98037156D01*
X149334839Y-98153232D01*
X149329954Y-98270774D01*
X149319898Y-98270774D01*
X149329842Y-98164726D01*
X149335511Y-98039965D01*
X149336915Y-97960219D01*
X149328466Y-97932943D01*
X149335475Y-97932943D01*
X149339724Y-97937810D01*
X149383138Y-97910516D01*
X149416101Y-97884950D01*
X149420874Y-97879070D01*
X149413852Y-97863682D01*
X149407637Y-97850225D01*
X149413852Y-97846891D01*
X149427896Y-97843410D01*
X149441878Y-97839869D01*
X149441878Y-97820268D01*
X149438248Y-97792302D01*
X149446031Y-97792302D01*
X149449664Y-97800734D01*
X149453053Y-97799324D01*
X149451297Y-97792302D01*
X149500619Y-97792302D01*
X149502023Y-97792302D01*
X149510389Y-97776915D01*
X149520219Y-97748949D01*
X149507580Y-97772702D01*
X149500619Y-97792302D01*
X149451297Y-97792302D01*
X149450244Y-97788089D01*
X149446031Y-97792302D01*
X149438248Y-97792302D01*
X149437324Y-97785180D01*
X149426430Y-97767145D01*
X149412447Y-97757315D01*
X149409699Y-97769954D01*
X149401837Y-97791363D01*
X149346746Y-97905631D01*
X149335475Y-97932943D01*
X149328466Y-97932943D01*
X149324337Y-97919614D01*
X149316044Y-97879385D01*
X149313162Y-97834312D01*
X149314106Y-97816533D01*
X149318395Y-97816533D01*
X149322932Y-97821673D01*
X149345341Y-97824481D01*
X149373307Y-97821673D01*
X149383146Y-97816012D01*
X149392908Y-97802133D01*
X149399869Y-97774106D01*
X149399869Y-97764337D01*
X149376116Y-97772702D01*
X149338319Y-97783937D01*
X149322932Y-97785341D01*
X149325741Y-97799324D01*
X149325540Y-97805650D01*
X149322932Y-97806285D01*
X149318719Y-97809094D01*
X149318395Y-97816533D01*
X149314106Y-97816533D01*
X149315910Y-97782533D01*
X149317315Y-97778319D01*
X149312386Y-97775224D01*
X149296371Y-97783937D01*
X149276099Y-97808422D01*
X149262787Y-97830099D01*
X149264192Y-97834312D01*
X149287944Y-97846891D01*
X149264192Y-97870643D01*
X149276770Y-97887435D01*
X149291486Y-97905631D01*
X149315971Y-97937138D01*
X149325741Y-97951793D01*
X149318267Y-97946744D01*
X149290081Y-97914729D01*
X149264402Y-97880442D01*
X149259979Y-97870643D01*
X149263520Y-97863682D01*
X149271885Y-97853913D01*
X149278175Y-97846891D01*
X149260284Y-97834584D01*
X149257170Y-97830099D01*
X149276770Y-97792302D01*
X149273961Y-97790898D01*
X149258659Y-97795453D01*
X149236165Y-97813307D01*
X149223181Y-97831538D01*
X149205390Y-97870643D01*
X149190342Y-97904758D01*
X149178829Y-97921018D01*
X149167655Y-97935001D01*
X149170118Y-97937698D01*
X149183042Y-97939214D01*
X149208199Y-97942023D01*
X149197025Y-97943428D01*
X149173272Y-97947641D01*
X149162037Y-97954602D01*
X149170464Y-97958815D01*
X149189066Y-97965702D01*
X149201238Y-97977011D01*
X149207527Y-97988918D01*
X149195621Y-97981163D01*
X149174355Y-97966389D01*
X149150863Y-97961624D01*
X149148635Y-97964006D01*
X149149459Y-97977011D01*
X149155076Y-98007786D01*
X149153182Y-98026223D01*
X149148054Y-98039965D01*
X149142437Y-98055352D01*
X149121243Y-98055352D01*
X149129494Y-98053194D01*
X149140361Y-98042041D01*
X149147115Y-98026379D01*
X149149459Y-98007786D01*
X149143841Y-97979759D01*
X149131059Y-97960758D01*
X149120088Y-97956006D01*
X149113066Y-97957411D01*
X149117280Y-97971393D01*
X149122897Y-98002168D01*
X149118000Y-98031195D01*
X149103297Y-98056756D01*
X149081485Y-98056756D01*
X149071118Y-98045521D01*
X149068309Y-98062313D01*
X149058086Y-98090842D01*
X149036130Y-98122458D01*
X148996990Y-98157445D01*
X148954184Y-98199223D01*
X148932233Y-98235884D01*
X148925610Y-98269370D01*
X148932632Y-98321149D01*
X148938189Y-98371524D01*
X148932457Y-98407980D01*
X148915640Y-98438707D01*
X148886409Y-98465252D01*
X148855696Y-98480579D01*
X148827669Y-98489005D01*
X148826264Y-98480640D01*
X148829806Y-98472213D01*
X148845865Y-98465252D01*
X148880027Y-98448527D01*
X148902540Y-98427643D01*
X148915840Y-98402299D01*
X148919993Y-98374333D01*
X148913703Y-98323225D01*
X148907414Y-98270774D01*
X148911630Y-98232929D01*
X148922801Y-98206477D01*
X148944551Y-98180312D01*
X148996990Y-98130884D01*
X149021140Y-98104777D01*
X149035452Y-98079827D01*
X149041748Y-98055352D01*
X149041420Y-98042773D01*
X149082292Y-98042773D01*
X149087238Y-98049063D01*
X149097008Y-98048330D01*
X149103297Y-98041308D01*
X149093466Y-98038560D01*
X149084286Y-98039966D01*
X149082292Y-98042773D01*
X149041420Y-98042773D01*
X149041377Y-98041136D01*
X149038939Y-98038560D01*
X149022880Y-98028790D01*
X149012377Y-98013403D01*
X149008164Y-98004977D01*
X149002547Y-97988185D01*
X148996990Y-97971393D01*
X148996990Y-97957411D01*
X149005355Y-97957411D01*
X149007493Y-97968646D01*
X149009569Y-97982568D01*
X149015125Y-97999359D01*
X149022147Y-98010533D01*
X149029841Y-98021036D01*
X149040343Y-98028729D01*
X149044556Y-98021769D01*
X149047541Y-98016654D01*
X149062020Y-98007786D01*
X149076754Y-97999158D01*
X149079483Y-97995207D01*
X149075331Y-97989590D01*
X149069713Y-97988185D01*
X149047304Y-97993070D01*
X149029169Y-97997955D01*
X149027765Y-97996550D01*
X149032930Y-97990063D01*
X149059944Y-97981163D01*
X149068904Y-97978326D01*
X149071118Y-97974202D01*
X149068294Y-97966579D01*
X149059070Y-97963112D01*
X149037534Y-97965776D01*
X149023551Y-97968585D01*
X149016098Y-97968096D01*
X149019338Y-97964371D01*
X149032111Y-97958329D01*
X149051517Y-97956006D01*
X149055157Y-97954005D01*
X149055730Y-97946175D01*
X149051947Y-97940163D01*
X149041748Y-97937810D01*
X149017934Y-97942023D01*
X149008206Y-97949020D01*
X149005355Y-97957411D01*
X148996990Y-97957411D01*
X148996990Y-97937810D01*
X148997488Y-97936406D01*
X149061287Y-97936406D01*
X149065500Y-97953197D01*
X149070767Y-97954953D01*
X149075331Y-97951793D01*
X149079483Y-97936406D01*
X149079483Y-97933597D01*
X149082292Y-97926636D01*
X149085101Y-97940619D01*
X149082292Y-97957411D01*
X149079483Y-97967180D01*
X149084429Y-97984705D01*
X149089314Y-98000764D01*
X149087377Y-98006837D01*
X149080887Y-98011938D01*
X149073927Y-98021769D01*
X149077190Y-98026416D01*
X149092123Y-98028729D01*
X149107157Y-98026122D01*
X149111662Y-98020364D01*
X149114471Y-98007786D01*
X149113066Y-97986781D01*
X149111662Y-97977011D01*
X149109685Y-97974207D01*
X149106106Y-97977011D01*
X149101892Y-97978354D01*
X149100488Y-97967180D01*
X149097573Y-97928893D01*
X149090884Y-97908944D01*
X149082292Y-97900013D01*
X149078079Y-97898609D01*
X149069882Y-97901670D01*
X149063959Y-97912264D01*
X149061287Y-97936406D01*
X148997488Y-97936406D01*
X148998984Y-97932192D01*
X149006760Y-97932192D01*
X149019338Y-97933597D01*
X149043152Y-97928040D01*
X149053162Y-97925949D01*
X149055730Y-97921079D01*
X149052250Y-97911981D01*
X149036130Y-97909844D01*
X149015858Y-97916133D01*
X149008959Y-97923427D01*
X149006760Y-97932192D01*
X148998984Y-97932192D01*
X149004684Y-97916133D01*
X149022147Y-97902822D01*
X149030813Y-97896310D01*
X149037534Y-97877665D01*
X149042390Y-97863682D01*
X149050113Y-97863682D01*
X149051517Y-97865087D01*
X149054326Y-97859469D01*
X149055730Y-97853852D01*
X149054326Y-97853852D01*
X149050113Y-97863682D01*
X149042390Y-97863682D01*
X149048709Y-97845486D01*
X149054309Y-97828621D01*
X149048709Y-97817520D01*
X149044556Y-97813307D01*
X149044556Y-97821673D01*
X149044556Y-97825886D01*
X149036130Y-97810498D01*
X149034726Y-97809094D01*
X149023551Y-97785341D01*
X149038939Y-97796516D01*
X149051517Y-97810498D01*
X149054326Y-97795111D01*
X149055059Y-97783204D01*
X149057135Y-97772702D01*
X149058539Y-97768550D01*
X149061287Y-97776915D01*
X149064096Y-97806285D01*
X149068263Y-97820720D01*
X149075331Y-97821673D01*
X149078079Y-97820268D01*
X149078284Y-97823208D01*
X149068309Y-97848295D01*
X149060935Y-97869551D01*
X149059944Y-97881878D01*
X149063424Y-97893785D01*
X149071118Y-97891648D01*
X149073927Y-97890976D01*
X149076674Y-97890244D01*
X149089416Y-97896718D01*
X149103297Y-97923827D01*
X149110258Y-97944832D01*
X149125645Y-97947580D01*
X149149790Y-97945331D01*
X149159228Y-97932192D01*
X149169059Y-97918210D01*
X149179785Y-97903404D01*
X149198429Y-97862278D01*
X149205451Y-97846158D01*
X149211008Y-97830099D01*
X149206795Y-97814712D01*
X149192024Y-97784403D01*
X149184446Y-97753162D01*
X149180233Y-97739180D01*
X149176915Y-97744441D01*
X149174616Y-97779724D01*
X149176241Y-97814001D01*
X149180233Y-97835655D01*
X149181638Y-97844082D01*
X149169059Y-97837060D01*
X149148556Y-97811649D01*
X149133018Y-97778688D01*
X149122897Y-97736371D01*
X149120088Y-97719579D01*
X149114471Y-97736371D01*
X149109586Y-97757315D01*
X149106106Y-97775511D01*
X149101892Y-97799324D01*
X149093589Y-97775869D01*
X149090718Y-97748949D01*
X149099084Y-97699979D01*
X149116247Y-97636741D01*
X149121493Y-97600633D01*
X149122897Y-97582437D01*
X149121493Y-97575476D01*
X149107510Y-97614616D01*
X149101527Y-97606972D01*
X149097679Y-97560088D01*
X149098124Y-97551662D01*
X149148054Y-97551662D01*
X149150863Y-97621638D01*
X149158557Y-97684591D01*
X149165573Y-97700446D01*
X149177424Y-97715366D01*
X149204352Y-97735286D01*
X149242515Y-97753162D01*
X149283623Y-97764847D01*
X149321528Y-97768550D01*
X149334106Y-97768550D01*
X149380438Y-97759236D01*
X149433452Y-97737775D01*
X149468440Y-97715366D01*
X149472733Y-97705742D01*
X149476805Y-97681782D01*
X149479843Y-97620233D01*
X149534202Y-97620233D01*
X149535858Y-97627989D01*
X149539759Y-97630003D01*
X149546781Y-97632812D01*
X149542568Y-97635621D01*
X149537275Y-97640832D01*
X149534202Y-97669204D01*
X149534202Y-97685996D01*
X149535656Y-97690577D01*
X149539759Y-97690209D01*
X149555061Y-97674642D01*
X149560764Y-97646795D01*
X149556958Y-97627265D01*
X149546781Y-97616020D01*
X149536278Y-97612540D01*
X149534202Y-97620233D01*
X149479843Y-97620233D01*
X149481018Y-97596420D01*
X149479034Y-97537068D01*
X149475401Y-97518079D01*
X149471249Y-97502691D01*
X149469844Y-97523696D01*
X149469844Y-97544701D01*
X149464227Y-97539084D01*
X149460013Y-97536275D01*
X149464227Y-97547510D01*
X149469393Y-97562411D01*
X149471249Y-97581032D01*
X149467035Y-97609059D01*
X149461479Y-97620966D01*
X149453785Y-97630064D01*
X149448839Y-97631407D01*
X149451648Y-97624446D01*
X149459818Y-97608702D01*
X149462822Y-97586650D01*
X149455861Y-97553066D01*
X149445754Y-97537976D01*
X149429740Y-97528619D01*
X149405486Y-97525101D01*
X149387783Y-97527504D01*
X149370498Y-97534870D01*
X149359324Y-97540488D01*
X149355464Y-97540805D01*
X149360729Y-97530718D01*
X149377094Y-97518683D01*
X149406891Y-97513927D01*
X149426661Y-97516152D01*
X149441878Y-97522292D01*
X149451648Y-97526505D01*
X149434185Y-97502020D01*
X149418065Y-97483152D01*
X149406891Y-97488709D01*
X149402189Y-97495420D01*
X149404082Y-97512522D01*
X149399197Y-97508309D01*
X149394312Y-97504829D01*
X149390099Y-97503424D01*
X149385214Y-97503424D01*
X149378925Y-97504829D01*
X149370498Y-97508309D01*
X149349494Y-97513927D01*
X149350226Y-97512522D01*
X149356516Y-97509042D01*
X149364209Y-97504829D01*
X149372636Y-97500615D01*
X149378925Y-97497135D01*
X149381673Y-97495730D01*
X149374712Y-97484556D01*
X149357799Y-97452374D01*
X149350035Y-97429968D01*
X149385886Y-97429968D01*
X149390099Y-97462819D01*
X149395312Y-97482592D01*
X149398464Y-97485900D01*
X149415256Y-97476130D01*
X149404082Y-97457934D01*
X149385886Y-97417390D01*
X149385886Y-97429968D01*
X149350035Y-97429968D01*
X149348089Y-97424351D01*
X149342533Y-97411772D01*
X149338870Y-97415749D01*
X149329954Y-97441142D01*
X149317315Y-97502691D01*
X149311758Y-97540488D01*
X149304736Y-97525101D01*
X149299180Y-97507637D01*
X149291486Y-97476863D01*
X149286540Y-97462147D01*
X149283308Y-97467908D01*
X149280983Y-97508309D01*
X149277045Y-97526380D01*
X149271153Y-97523696D01*
X149261288Y-97494532D01*
X149257170Y-97443951D01*
X149255765Y-97414581D01*
X149236417Y-97446722D01*
X149219434Y-97483152D01*
X149221516Y-97488602D01*
X149236165Y-97499944D01*
X149254361Y-97512522D01*
X149234822Y-97505500D01*
X149217043Y-97499986D01*
X149211008Y-97501287D01*
X149208199Y-97509713D01*
X149222182Y-97513927D01*
X149243187Y-97525772D01*
X149252957Y-97540488D01*
X149251381Y-97542508D01*
X149243187Y-97536275D01*
X149227585Y-97525842D01*
X149208199Y-97522292D01*
X149194699Y-97524357D01*
X149181638Y-97530718D01*
X149166539Y-97549405D01*
X149160633Y-97583841D01*
X149167655Y-97613211D01*
X149173211Y-97624446D01*
X149171759Y-97627099D01*
X149164846Y-97620233D01*
X149156671Y-97603132D01*
X149153672Y-97579689D01*
X149156146Y-97558030D01*
X149163442Y-97538412D01*
X149175289Y-97522532D01*
X149190003Y-97513927D01*
X149197553Y-97508909D01*
X149201238Y-97498539D01*
X149198039Y-97486182D01*
X149181638Y-97467765D01*
X149191407Y-97469108D01*
X149201238Y-97471917D01*
X149202643Y-97452377D01*
X149203986Y-97432777D01*
X149195621Y-97445355D01*
X149175348Y-97474726D01*
X149159228Y-97504096D01*
X149150851Y-97527179D01*
X149148054Y-97551662D01*
X149098124Y-97551662D01*
X149100488Y-97506905D01*
X149090718Y-97518079D01*
X149069713Y-97547510D01*
X149066905Y-97553066D01*
X149060917Y-97559479D01*
X149058539Y-97555875D01*
X149065500Y-97525101D01*
X149073927Y-97501287D01*
X149037534Y-97502691D01*
X149019338Y-97504096D01*
X149003951Y-97506233D01*
X148996990Y-97506905D01*
X148991372Y-97505500D01*
X149019338Y-97491517D01*
X149073007Y-97467910D01*
X149080887Y-97460743D01*
X149079483Y-97459338D01*
X149058114Y-97443706D01*
X149005355Y-97415985D01*
X148985755Y-97404811D01*
X148989968Y-97403407D01*
X149045961Y-97409024D01*
X149092123Y-97414581D01*
X149080887Y-97402002D01*
X149048709Y-97369823D01*
X149019338Y-97341125D01*
X149003951Y-97326409D01*
X149023551Y-97333431D01*
X149062691Y-97350223D01*
X149082292Y-97358588D01*
X149084960Y-97355976D01*
X149085434Y-97351627D01*
X149107510Y-97351627D01*
X149111723Y-97392233D01*
X149118684Y-97423007D01*
X149122333Y-97423116D01*
X149133400Y-97415314D01*
X149141734Y-97405258D01*
X149141244Y-97402002D01*
X149500619Y-97402002D01*
X149529989Y-97394980D01*
X149532005Y-97396362D01*
X149525776Y-97403407D01*
X149516006Y-97414581D01*
X149524371Y-97418794D01*
X149534164Y-97423480D01*
X149531393Y-97427159D01*
X149527180Y-97431372D01*
X149537011Y-97443951D01*
X149545376Y-97456591D01*
X149552398Y-97466360D01*
X149555146Y-97470512D01*
X149562168Y-97449569D01*
X149570465Y-97406491D01*
X149573342Y-97358588D01*
X149572670Y-97348147D01*
X149571938Y-97339049D01*
X149567786Y-97318044D01*
X149541163Y-97344605D01*
X149506418Y-97389830D01*
X149500619Y-97402002D01*
X149141244Y-97402002D01*
X149141032Y-97400598D01*
X149145245Y-97394980D01*
X149152265Y-97389959D01*
X149148054Y-97383806D01*
X149131263Y-97371228D01*
X149152267Y-97373975D01*
X149161204Y-97373798D01*
X149159228Y-97368419D01*
X149134804Y-97340453D01*
X149113066Y-97319448D01*
X149109701Y-97323901D01*
X149107510Y-97351627D01*
X149085434Y-97351627D01*
X149086505Y-97341796D01*
X149087238Y-97320853D01*
X149087909Y-97306870D01*
X149084534Y-97292074D01*
X149071118Y-97267669D01*
X149054326Y-97240375D01*
X149054326Y-97234085D01*
X149071199Y-97240874D01*
X149156420Y-97287269D01*
X149183042Y-97299848D01*
X149168387Y-97272554D01*
X149135476Y-97222240D01*
X149121493Y-97197754D01*
X149150863Y-97220163D01*
X149185851Y-97253686D01*
X149195621Y-97264921D01*
X149204719Y-97274691D01*
X149211008Y-97284460D01*
X149197025Y-97171132D01*
X149198429Y-97164171D01*
X149215221Y-97192137D01*
G37*
G36*
X148999738Y-97842677D02*
G01*
X149002547Y-97844082D01*
X149010101Y-97848862D01*
X149010973Y-97852447D01*
X148996990Y-97862278D01*
X149003951Y-97867834D01*
X149008164Y-97873452D01*
X148989968Y-97870643D01*
X148978837Y-97865209D01*
X148979163Y-97860407D01*
X148992777Y-97852447D01*
X148985755Y-97844082D01*
X148981542Y-97838464D01*
X148983983Y-97837102D01*
X148999738Y-97842677D01*
G37*
G36*
X149111662Y-97832908D02*
G01*
X149107510Y-97837060D01*
X149101892Y-97842677D01*
X149101388Y-97849742D01*
X149108853Y-97855256D01*
X149111662Y-97856660D01*
X149116608Y-97862278D01*
X149099084Y-97866430D01*
X149097679Y-97866430D01*
X149093466Y-97866430D01*
X149090718Y-97863682D01*
X149093084Y-97856689D01*
X149089314Y-97853852D01*
X149084410Y-97849340D01*
X149096275Y-97837060D01*
X149110258Y-97828695D01*
X149111662Y-97832908D01*
G37*
G36*
X148943806Y-97715366D02*
G01*
X148975538Y-97736618D01*
X148980198Y-97741927D01*
X148973176Y-97747545D01*
X148963407Y-97754567D01*
X148980198Y-97769954D01*
X148996990Y-97786746D01*
X148961331Y-97771359D01*
X148927015Y-97753162D01*
X148942402Y-97744736D01*
X148956385Y-97739180D01*
X148945882Y-97730753D01*
X148934036Y-97720251D01*
X148922801Y-97709748D01*
X148911037Y-97698640D01*
X148911627Y-97697170D01*
X148943806Y-97715366D01*
G37*
G36*
X149008164Y-97623042D02*
G01*
X149023551Y-97648199D01*
X149034726Y-97664991D01*
X149040343Y-97679706D01*
X149029841Y-97680378D01*
X149015125Y-97680378D01*
X149013721Y-97683187D01*
X149018667Y-97700711D01*
X149029841Y-97724464D01*
X149036130Y-97737775D01*
X148977390Y-97664991D01*
X148991372Y-97662182D01*
X149005355Y-97659434D01*
X148996990Y-97627255D01*
X148988564Y-97596420D01*
X149008164Y-97623042D01*
G37*
X149733734Y-101097657D02*
X149686115Y-101050038D01*
X149686115Y-101050038D02*
X149590877Y-101002419D01*
X149590877Y-101002419D02*
X149352782Y-101002419D01*
X149352782Y-101002419D02*
X149257544Y-101050038D01*
X149257544Y-101050038D02*
X149209925Y-101097657D01*
X149209925Y-101097657D02*
X149162306Y-101192895D01*
X149162306Y-101192895D02*
X149162306Y-101288133D01*
X149162306Y-101288133D02*
X149209925Y-101430990D01*
X149209925Y-101430990D02*
X149781353Y-102002419D01*
X149781353Y-102002419D02*
X149162306Y-102002419D01*
X148543258Y-101002419D02*
X148448020Y-101002419D01*
X148448020Y-101002419D02*
X148352782Y-101050038D01*
X148352782Y-101050038D02*
X148305163Y-101097657D01*
X148305163Y-101097657D02*
X148257544Y-101192895D01*
X148257544Y-101192895D02*
X148209925Y-101383371D01*
X148209925Y-101383371D02*
X148209925Y-101621466D01*
X148209925Y-101621466D02*
X148257544Y-101811942D01*
X148257544Y-101811942D02*
X148305163Y-101907180D01*
X148305163Y-101907180D02*
X148352782Y-101954800D01*
X148352782Y-101954800D02*
X148448020Y-102002419D01*
X148448020Y-102002419D02*
X148543258Y-102002419D01*
X148543258Y-102002419D02*
X148638496Y-101954800D01*
X148638496Y-101954800D02*
X148686115Y-101907180D01*
X148686115Y-101907180D02*
X148733734Y-101811942D01*
X148733734Y-101811942D02*
X148781353Y-101621466D01*
X148781353Y-101621466D02*
X148781353Y-101383371D01*
X148781353Y-101383371D02*
X148733734Y-101192895D01*
X148733734Y-101192895D02*
X148686115Y-101097657D01*
X148686115Y-101097657D02*
X148638496Y-101050038D01*
X148638496Y-101050038D02*
X148543258Y-101002419D01*
X147828972Y-101097657D02*
X147781353Y-101050038D01*
X147781353Y-101050038D02*
X147686115Y-101002419D01*
X147686115Y-101002419D02*
X147448020Y-101002419D01*
X147448020Y-101002419D02*
X147352782Y-101050038D01*
X147352782Y-101050038D02*
X147305163Y-101097657D01*
X147305163Y-101097657D02*
X147257544Y-101192895D01*
X147257544Y-101192895D02*
X147257544Y-101288133D01*
X147257544Y-101288133D02*
X147305163Y-101430990D01*
X147305163Y-101430990D02*
X147876591Y-102002419D01*
X147876591Y-102002419D02*
X147257544Y-102002419D01*
X146352782Y-101002419D02*
X146828972Y-101002419D01*
X146828972Y-101002419D02*
X146876591Y-101478609D01*
X146876591Y-101478609D02*
X146828972Y-101430990D01*
X146828972Y-101430990D02*
X146733734Y-101383371D01*
X146733734Y-101383371D02*
X146495639Y-101383371D01*
X146495639Y-101383371D02*
X146400401Y-101430990D01*
X146400401Y-101430990D02*
X146352782Y-101478609D01*
X146352782Y-101478609D02*
X146305163Y-101573847D01*
X146305163Y-101573847D02*
X146305163Y-101811942D01*
X146305163Y-101811942D02*
X146352782Y-101907180D01*
X146352782Y-101907180D02*
X146400401Y-101954800D01*
X146400401Y-101954800D02*
X146495639Y-102002419D01*
X146495639Y-102002419D02*
X146733734Y-102002419D01*
X146733734Y-102002419D02*
X146828972Y-101954800D01*
X146828972Y-101954800D02*
X146876591Y-101907180D01*
X149786115Y-100202419D02*
X149786115Y-99202419D01*
X149309925Y-99535752D02*
X149309925Y-100202419D01*
X149309925Y-99630990D02*
X149262306Y-99583371D01*
X149262306Y-99583371D02*
X149167068Y-99535752D01*
X149167068Y-99535752D02*
X149024211Y-99535752D01*
X149024211Y-99535752D02*
X148928973Y-99583371D01*
X148928973Y-99583371D02*
X148881354Y-99678609D01*
X148881354Y-99678609D02*
X148881354Y-100202419D01*
X147976592Y-100202419D02*
X147976592Y-99202419D01*
X147976592Y-100154800D02*
X148071830Y-100202419D01*
X148071830Y-100202419D02*
X148262306Y-100202419D01*
X148262306Y-100202419D02*
X148357544Y-100154800D01*
X148357544Y-100154800D02*
X148405163Y-100107180D01*
X148405163Y-100107180D02*
X148452782Y-100011942D01*
X148452782Y-100011942D02*
X148452782Y-99726228D01*
X148452782Y-99726228D02*
X148405163Y-99630990D01*
X148405163Y-99630990D02*
X148357544Y-99583371D01*
X148357544Y-99583371D02*
X148262306Y-99535752D01*
X148262306Y-99535752D02*
X148071830Y-99535752D01*
X148071830Y-99535752D02*
X147976592Y-99583371D01*
X147500401Y-100202419D02*
X147500401Y-99535752D01*
X147500401Y-99202419D02*
X147548020Y-99250038D01*
X147548020Y-99250038D02*
X147500401Y-99297657D01*
X147500401Y-99297657D02*
X147452782Y-99250038D01*
X147452782Y-99250038D02*
X147500401Y-99202419D01*
X147500401Y-99202419D02*
X147500401Y-99297657D01*
X146595640Y-100154800D02*
X146690878Y-100202419D01*
X146690878Y-100202419D02*
X146881354Y-100202419D01*
X146881354Y-100202419D02*
X146976592Y-100154800D01*
X146976592Y-100154800D02*
X147024211Y-100107180D01*
X147024211Y-100107180D02*
X147071830Y-100011942D01*
X147071830Y-100011942D02*
X147071830Y-99726228D01*
X147071830Y-99726228D02*
X147024211Y-99630990D01*
X147024211Y-99630990D02*
X146976592Y-99583371D01*
X146976592Y-99583371D02*
X146881354Y-99535752D01*
X146881354Y-99535752D02*
X146690878Y-99535752D01*
X146690878Y-99535752D02*
X146595640Y-99583371D01*
X145738497Y-100202419D02*
X145738497Y-99678609D01*
X145738497Y-99678609D02*
X145786116Y-99583371D01*
X145786116Y-99583371D02*
X145881354Y-99535752D01*
X145881354Y-99535752D02*
X146071830Y-99535752D01*
X146071830Y-99535752D02*
X146167068Y-99583371D01*
X145738497Y-100154800D02*
X145833735Y-100202419D01*
X145833735Y-100202419D02*
X146071830Y-100202419D01*
X146071830Y-100202419D02*
X146167068Y-100154800D01*
X146167068Y-100154800D02*
X146214687Y-100059561D01*
X146214687Y-100059561D02*
X146214687Y-99964323D01*
X146214687Y-99964323D02*
X146167068Y-99869085D01*
X146167068Y-99869085D02*
X146071830Y-99821466D01*
X146071830Y-99821466D02*
X145833735Y-99821466D01*
X145833735Y-99821466D02*
X145738497Y-99773847D01*
X145405163Y-99535752D02*
X145024211Y-99535752D01*
X145262306Y-99202419D02*
X145262306Y-100059561D01*
X145262306Y-100059561D02*
X145214687Y-100154800D01*
X145214687Y-100154800D02*
X145119449Y-100202419D01*
X145119449Y-100202419D02*
X145024211Y-100202419D01*
X144690877Y-100202419D02*
X144690877Y-99535752D01*
X144690877Y-99202419D02*
X144738496Y-99250038D01*
X144738496Y-99250038D02*
X144690877Y-99297657D01*
X144690877Y-99297657D02*
X144643258Y-99250038D01*
X144643258Y-99250038D02*
X144690877Y-99202419D01*
X144690877Y-99202419D02*
X144690877Y-99297657D01*
X144071830Y-100202419D02*
X144167068Y-100154800D01*
X144167068Y-100154800D02*
X144214687Y-100107180D01*
X144214687Y-100107180D02*
X144262306Y-100011942D01*
X144262306Y-100011942D02*
X144262306Y-99726228D01*
X144262306Y-99726228D02*
X144214687Y-99630990D01*
X144214687Y-99630990D02*
X144167068Y-99583371D01*
X144167068Y-99583371D02*
X144071830Y-99535752D01*
X144071830Y-99535752D02*
X143928973Y-99535752D01*
X143928973Y-99535752D02*
X143833735Y-99583371D01*
X143833735Y-99583371D02*
X143786116Y-99630990D01*
X143786116Y-99630990D02*
X143738497Y-99726228D01*
X143738497Y-99726228D02*
X143738497Y-100011942D01*
X143738497Y-100011942D02*
X143786116Y-100107180D01*
X143786116Y-100107180D02*
X143833735Y-100154800D01*
X143833735Y-100154800D02*
X143928973Y-100202419D01*
X143928973Y-100202419D02*
X144071830Y-100202419D01*
X143309925Y-99535752D02*
X143309925Y-100202419D01*
X143309925Y-99630990D02*
X143262306Y-99583371D01*
X143262306Y-99583371D02*
X143167068Y-99535752D01*
X143167068Y-99535752D02*
X143024211Y-99535752D01*
X143024211Y-99535752D02*
X142928973Y-99583371D01*
X142928973Y-99583371D02*
X142881354Y-99678609D01*
X142881354Y-99678609D02*
X142881354Y-100202419D01*
X141643258Y-100202419D02*
X141643258Y-99202419D01*
X141643258Y-99202419D02*
X141262306Y-99202419D01*
X141262306Y-99202419D02*
X141167068Y-99250038D01*
X141167068Y-99250038D02*
X141119449Y-99297657D01*
X141119449Y-99297657D02*
X141071830Y-99392895D01*
X141071830Y-99392895D02*
X141071830Y-99535752D01*
X141071830Y-99535752D02*
X141119449Y-99630990D01*
X141119449Y-99630990D02*
X141167068Y-99678609D01*
X141167068Y-99678609D02*
X141262306Y-99726228D01*
X141262306Y-99726228D02*
X141643258Y-99726228D01*
X140071830Y-100107180D02*
X140119449Y-100154800D01*
X140119449Y-100154800D02*
X140262306Y-100202419D01*
X140262306Y-100202419D02*
X140357544Y-100202419D01*
X140357544Y-100202419D02*
X140500401Y-100154800D01*
X140500401Y-100154800D02*
X140595639Y-100059561D01*
X140595639Y-100059561D02*
X140643258Y-99964323D01*
X140643258Y-99964323D02*
X140690877Y-99773847D01*
X140690877Y-99773847D02*
X140690877Y-99630990D01*
X140690877Y-99630990D02*
X140643258Y-99440514D01*
X140643258Y-99440514D02*
X140595639Y-99345276D01*
X140595639Y-99345276D02*
X140500401Y-99250038D01*
X140500401Y-99250038D02*
X140357544Y-99202419D01*
X140357544Y-99202419D02*
X140262306Y-99202419D01*
X140262306Y-99202419D02*
X140119449Y-99250038D01*
X140119449Y-99250038D02*
X140071830Y-99297657D01*
X139309925Y-99678609D02*
X139167068Y-99726228D01*
X139167068Y-99726228D02*
X139119449Y-99773847D01*
X139119449Y-99773847D02*
X139071830Y-99869085D01*
X139071830Y-99869085D02*
X139071830Y-100011942D01*
X139071830Y-100011942D02*
X139119449Y-100107180D01*
X139119449Y-100107180D02*
X139167068Y-100154800D01*
X139167068Y-100154800D02*
X139262306Y-100202419D01*
X139262306Y-100202419D02*
X139643258Y-100202419D01*
X139643258Y-100202419D02*
X139643258Y-99202419D01*
X139643258Y-99202419D02*
X139309925Y-99202419D01*
X139309925Y-99202419D02*
X139214687Y-99250038D01*
X139214687Y-99250038D02*
X139167068Y-99297657D01*
X139167068Y-99297657D02*
X139119449Y-99392895D01*
X139119449Y-99392895D02*
X139119449Y-99488133D01*
X139119449Y-99488133D02*
X139167068Y-99583371D01*
X139167068Y-99583371D02*
X139214687Y-99630990D01*
X139214687Y-99630990D02*
X139309925Y-99678609D01*
X139309925Y-99678609D02*
X139643258Y-99678609D01*
D11*
X145353333Y-67984819D02*
X145353333Y-68699104D01*
X145353333Y-68699104D02*
X145400952Y-68841961D01*
X145400952Y-68841961D02*
X145496190Y-68937200D01*
X145496190Y-68937200D02*
X145639047Y-68984819D01*
X145639047Y-68984819D02*
X145734285Y-68984819D01*
X144353333Y-68984819D02*
X144924761Y-68984819D01*
X144639047Y-68984819D02*
X144639047Y-67984819D01*
X144639047Y-67984819D02*
X144734285Y-68127676D01*
X144734285Y-68127676D02*
X144829523Y-68222914D01*
X144829523Y-68222914D02*
X144924761Y-68270533D01*
D12*
%TO.C,J1*%
X140310000Y-60400000D02*
X140310000Y-63110000D01*
X140310000Y-65820000D02*
X140310000Y-63110000D01*
X142870000Y-67740000D02*
X142870000Y-65820000D01*
X143170000Y-58780000D02*
X143170000Y-60400000D01*
X143170000Y-60400000D02*
X140310000Y-60400000D01*
X143170000Y-65820000D02*
X140310000Y-65820000D01*
X143170000Y-67440000D02*
X143170000Y-65820000D01*
X145020000Y-67740000D02*
X142870000Y-67740000D01*
X146870000Y-58780000D02*
X143170000Y-58780000D01*
X146870000Y-63110000D02*
X146870000Y-58780000D01*
X146870000Y-63110000D02*
X146870000Y-67440000D01*
X146870000Y-67440000D02*
X143170000Y-67440000D01*
%TD*%
%LPC*%
D13*
%TO.C,LOGO1*%
G36*
X143545524Y-84814038D02*
G01*
X143559167Y-85834573D01*
X144693095Y-85859772D01*
X145827024Y-85884970D01*
X145827024Y-86162153D01*
X145827024Y-86439335D01*
X144428512Y-86452732D01*
X143030000Y-86466128D01*
X143030000Y-85129815D01*
X143030000Y-83793502D01*
X143280941Y-83793502D01*
X143531881Y-83793502D01*
X143545524Y-84814038D01*
G37*
G36*
X144449048Y-73775844D02*
G01*
X144449048Y-74556995D01*
X144701032Y-74556995D01*
X144953016Y-74556995D01*
X144953016Y-73775844D01*
X144953016Y-72994693D01*
X145179802Y-72994693D01*
X145406587Y-72994693D01*
X145406587Y-74002630D01*
X145406587Y-75010566D01*
X144701032Y-75010566D01*
X143995476Y-75010566D01*
X143995476Y-74229415D01*
X143995476Y-73448265D01*
X143743492Y-73448265D01*
X143491508Y-73448265D01*
X143491508Y-74229415D01*
X143491508Y-75010566D01*
X143264722Y-75010566D01*
X143037937Y-75010566D01*
X143037937Y-74002630D01*
X143037937Y-72994693D01*
X143743492Y-72994693D01*
X144449048Y-72994693D01*
X144449048Y-73775844D01*
G37*
G36*
X144428512Y-79773558D02*
G01*
X145827024Y-79786954D01*
X145843130Y-79983738D01*
X145854070Y-80158268D01*
X145842895Y-80280576D01*
X145793491Y-80356785D01*
X145690221Y-80398795D01*
X145517445Y-80418505D01*
X145259526Y-80427814D01*
X144718294Y-80442113D01*
X144718294Y-81525645D01*
X144718294Y-82609177D01*
X145219439Y-82623719D01*
X145356199Y-82629690D01*
X145558757Y-82646515D01*
X145711427Y-82669291D01*
X145788756Y-82694838D01*
X145794580Y-82700203D01*
X145837139Y-82808776D01*
X145841975Y-83007875D01*
X145827024Y-83264335D01*
X144426086Y-83277736D01*
X143025149Y-83291137D01*
X143040174Y-82975355D01*
X143055199Y-82659573D01*
X143623141Y-82645315D01*
X144191084Y-82631056D01*
X144177506Y-81536584D01*
X144163929Y-80442113D01*
X143596964Y-80427863D01*
X143030000Y-80413614D01*
X143030000Y-80086888D01*
X143030000Y-79760162D01*
X144428512Y-79773558D01*
G37*
G36*
X145111144Y-75555214D02*
G01*
X145270868Y-75583873D01*
X145427906Y-75624294D01*
X145552008Y-75681384D01*
X145647279Y-75765658D01*
X145717822Y-75887632D01*
X145767743Y-76057822D01*
X145801144Y-76286743D01*
X145822131Y-76584911D01*
X145834807Y-76962841D01*
X145843276Y-77431049D01*
X145847120Y-77754177D01*
X145848894Y-78091562D01*
X145848097Y-78387719D01*
X145844850Y-78627761D01*
X145839274Y-78796802D01*
X145831491Y-78879958D01*
X145799905Y-79005804D01*
X144877884Y-79005804D01*
X144414953Y-79005804D01*
X143030000Y-79005804D01*
X143030000Y-78678224D01*
X143030000Y-78350645D01*
X143458373Y-78350645D01*
X143886746Y-78350645D01*
X143886746Y-77632221D01*
X144395481Y-77632221D01*
X144396239Y-77896002D01*
X144400796Y-78108322D01*
X144408801Y-78252747D01*
X144419901Y-78312847D01*
X144430988Y-78318750D01*
X144522626Y-78335024D01*
X144680347Y-78346378D01*
X144877884Y-78350645D01*
X145297857Y-78350645D01*
X145297857Y-77398688D01*
X145297446Y-77143502D01*
X145294877Y-76871326D01*
X145288753Y-76673778D01*
X145277713Y-76535752D01*
X145260399Y-76442143D01*
X145235454Y-76377846D01*
X145201516Y-76327756D01*
X145126804Y-76257156D01*
X145019871Y-76218775D01*
X144850538Y-76208780D01*
X144815503Y-76209159D01*
X144624038Y-76233371D01*
X144505907Y-76298713D01*
X144491103Y-76315217D01*
X144462449Y-76365707D01*
X144441115Y-76444425D01*
X144425596Y-76565885D01*
X144414390Y-76744601D01*
X144405993Y-76995084D01*
X144398902Y-77331847D01*
X144398874Y-77333408D01*
X144395481Y-77632221D01*
X143886746Y-77632221D01*
X143886746Y-77396763D01*
X143886746Y-76442881D01*
X143753958Y-76338430D01*
X143675649Y-76288668D01*
X143532287Y-76246224D01*
X143325585Y-76233978D01*
X143030000Y-76233978D01*
X143030000Y-75900234D01*
X143030000Y-75566490D01*
X143482571Y-75588128D01*
X143519095Y-75589932D01*
X143736366Y-75605250D01*
X143881225Y-75628336D01*
X143978649Y-75665003D01*
X144053615Y-75721067D01*
X144063428Y-75730278D01*
X144143618Y-75797269D01*
X144195924Y-75797436D01*
X144261840Y-75733195D01*
X144317034Y-75689144D01*
X144477652Y-75618871D01*
X144686195Y-75568378D01*
X144908686Y-75544785D01*
X145111144Y-75555214D01*
G37*
%TD*%
D14*
%TO.C,H1*%
X144500000Y-52000000D03*
%TD*%
%TO.C,H2*%
X144500000Y-108000000D03*
%TD*%
D15*
%TO.C,J1*%
X143680000Y-64360000D03*
D16*
X145020000Y-65610000D03*
D17*
X145020000Y-63110000D03*
X145020000Y-60610000D03*
%TD*%
%LPD*%
M02*
