%TF.GenerationSoftware,KiCad,Pcbnew,9.0.5*%
%TF.CreationDate,2025-10-25T18:18:29-05:00*%
%TF.ProjectId,IndicationPCB,496e6469-6361-4746-996f-6e5043422e6b,rev?*%
%TF.SameCoordinates,Original*%
%TF.FileFunction,Legend,Top*%
%TF.FilePolarity,Positive*%
%FSLAX46Y46*%
G04 Gerber Fmt 4.6, Leading zero omitted, Abs format (unit mm)*
G04 Created by KiCad (PCBNEW 9.0.5) date 2025-10-25 18:18:29*
%MOMM*%
%LPD*%
G01*
G04 APERTURE LIST*
G04 Aperture macros list*
%AMRoundRect*
0 Rectangle with rounded corners*
0 $1 Rounding radius*
0 $2 $3 $4 $5 $6 $7 $8 $9 X,Y pos of 4 corners*
0 Add a 4 corners polygon primitive as box body*
4,1,4,$2,$3,$4,$5,$6,$7,$8,$9,$2,$3,0*
0 Add four circle primitives for the rounded corners*
1,1,$1+$1,$2,$3*
1,1,$1+$1,$4,$5*
1,1,$1+$1,$6,$7*
1,1,$1+$1,$8,$9*
0 Add four rect primitives between the rounded corners*
20,1,$1+$1,$2,$3,$4,$5,0*
20,1,$1+$1,$4,$5,$6,$7,0*
20,1,$1+$1,$6,$7,$8,$9,0*
20,1,$1+$1,$8,$9,$2,$3,0*%
%AMFreePoly0*
4,1,22,0.945671,0.830970,1.026777,0.776777,1.080970,0.695671,1.100000,0.600000,1.100000,-0.600000,1.080970,-0.695671,1.026777,-0.776777,0.945671,-0.830970,0.850000,-0.850000,-0.850000,-0.850000,-0.945671,-0.830970,-1.026777,-0.776777,-1.080970,-0.695671,-1.100000,-0.600000,-1.100000,0.346447,-1.080970,0.442118,-1.026777,0.523224,-0.773224,0.776777,-0.692118,0.830970,-0.596447,0.850000,
0.850000,0.850000,0.945671,0.830970,0.945671,0.830970,$1*%
G04 Aperture macros list end*
%ADD10C,0.150000*%
%ADD11C,0.127000*%
%ADD12C,0.120000*%
%ADD13RoundRect,0.102000X0.750000X0.450000X-0.750000X0.450000X-0.750000X-0.450000X0.750000X-0.450000X0*%
%ADD14RoundRect,0.237500X0.237500X-0.300000X0.237500X0.300000X-0.237500X0.300000X-0.237500X-0.300000X0*%
%ADD15C,3.200000*%
%ADD16C,1.300000*%
%ADD17FreePoly0,0.000000*%
%ADD18O,2.200000X1.700000*%
G04 APERTURE END LIST*
D10*
X144023809Y-74470776D02*
X143719047Y-74470776D01*
X143719047Y-74470776D02*
X143719047Y-73830776D01*
X144237142Y-74135538D02*
X144450476Y-74135538D01*
X144541904Y-74470776D02*
X144237142Y-74470776D01*
X144237142Y-74470776D02*
X144237142Y-73830776D01*
X144237142Y-73830776D02*
X144541904Y-73830776D01*
X144816190Y-74470776D02*
X144816190Y-73830776D01*
X144816190Y-73830776D02*
X144968571Y-73830776D01*
X144968571Y-73830776D02*
X145060000Y-73861252D01*
X145060000Y-73861252D02*
X145120952Y-73922204D01*
X145120952Y-73922204D02*
X145151429Y-73983157D01*
X145151429Y-73983157D02*
X145181905Y-74105061D01*
X145181905Y-74105061D02*
X145181905Y-74196490D01*
X145181905Y-74196490D02*
X145151429Y-74318395D01*
X145151429Y-74318395D02*
X145120952Y-74379347D01*
X145120952Y-74379347D02*
X145060000Y-74440300D01*
X145060000Y-74440300D02*
X144968571Y-74470776D01*
X144968571Y-74470776D02*
X144816190Y-74470776D01*
X145425714Y-73891728D02*
X145456190Y-73861252D01*
X145456190Y-73861252D02*
X145517143Y-73830776D01*
X145517143Y-73830776D02*
X145669524Y-73830776D01*
X145669524Y-73830776D02*
X145730476Y-73861252D01*
X145730476Y-73861252D02*
X145760952Y-73891728D01*
X145760952Y-73891728D02*
X145791429Y-73952680D01*
X145791429Y-73952680D02*
X145791429Y-74013633D01*
X145791429Y-74013633D02*
X145760952Y-74105061D01*
X145760952Y-74105061D02*
X145395238Y-74470776D01*
X145395238Y-74470776D02*
X145791429Y-74470776D01*
X144023809Y-67678276D02*
X143719047Y-67678276D01*
X143719047Y-67678276D02*
X143719047Y-67038276D01*
X144237142Y-67343038D02*
X144450476Y-67343038D01*
X144541904Y-67678276D02*
X144237142Y-67678276D01*
X144237142Y-67678276D02*
X144237142Y-67038276D01*
X144237142Y-67038276D02*
X144541904Y-67038276D01*
X144816190Y-67678276D02*
X144816190Y-67038276D01*
X144816190Y-67038276D02*
X144968571Y-67038276D01*
X144968571Y-67038276D02*
X145060000Y-67068752D01*
X145060000Y-67068752D02*
X145120952Y-67129704D01*
X145120952Y-67129704D02*
X145151429Y-67190657D01*
X145151429Y-67190657D02*
X145181905Y-67312561D01*
X145181905Y-67312561D02*
X145181905Y-67403990D01*
X145181905Y-67403990D02*
X145151429Y-67525895D01*
X145151429Y-67525895D02*
X145120952Y-67586847D01*
X145120952Y-67586847D02*
X145060000Y-67647800D01*
X145060000Y-67647800D02*
X144968571Y-67678276D01*
X144968571Y-67678276D02*
X144816190Y-67678276D01*
X145791429Y-67678276D02*
X145425714Y-67678276D01*
X145608571Y-67678276D02*
X145608571Y-67038276D01*
X145608571Y-67038276D02*
X145547619Y-67129704D01*
X145547619Y-67129704D02*
X145486667Y-67190657D01*
X145486667Y-67190657D02*
X145425714Y-67221133D01*
X141799580Y-78116666D02*
X141847200Y-78164285D01*
X141847200Y-78164285D02*
X141894819Y-78307142D01*
X141894819Y-78307142D02*
X141894819Y-78402380D01*
X141894819Y-78402380D02*
X141847200Y-78545237D01*
X141847200Y-78545237D02*
X141751961Y-78640475D01*
X141751961Y-78640475D02*
X141656723Y-78688094D01*
X141656723Y-78688094D02*
X141466247Y-78735713D01*
X141466247Y-78735713D02*
X141323390Y-78735713D01*
X141323390Y-78735713D02*
X141132914Y-78688094D01*
X141132914Y-78688094D02*
X141037676Y-78640475D01*
X141037676Y-78640475D02*
X140942438Y-78545237D01*
X140942438Y-78545237D02*
X140894819Y-78402380D01*
X140894819Y-78402380D02*
X140894819Y-78307142D01*
X140894819Y-78307142D02*
X140942438Y-78164285D01*
X140942438Y-78164285D02*
X140990057Y-78116666D01*
X140990057Y-77735713D02*
X140942438Y-77688094D01*
X140942438Y-77688094D02*
X140894819Y-77592856D01*
X140894819Y-77592856D02*
X140894819Y-77354761D01*
X140894819Y-77354761D02*
X140942438Y-77259523D01*
X140942438Y-77259523D02*
X140990057Y-77211904D01*
X140990057Y-77211904D02*
X141085295Y-77164285D01*
X141085295Y-77164285D02*
X141180533Y-77164285D01*
X141180533Y-77164285D02*
X141323390Y-77211904D01*
X141323390Y-77211904D02*
X141894819Y-77783332D01*
X141894819Y-77783332D02*
X141894819Y-77164285D01*
X144023809Y-81263276D02*
X143719047Y-81263276D01*
X143719047Y-81263276D02*
X143719047Y-80623276D01*
X144237142Y-80928038D02*
X144450476Y-80928038D01*
X144541904Y-81263276D02*
X144237142Y-81263276D01*
X144237142Y-81263276D02*
X144237142Y-80623276D01*
X144237142Y-80623276D02*
X144541904Y-80623276D01*
X144816190Y-81263276D02*
X144816190Y-80623276D01*
X144816190Y-80623276D02*
X144968571Y-80623276D01*
X144968571Y-80623276D02*
X145060000Y-80653752D01*
X145060000Y-80653752D02*
X145120952Y-80714704D01*
X145120952Y-80714704D02*
X145151429Y-80775657D01*
X145151429Y-80775657D02*
X145181905Y-80897561D01*
X145181905Y-80897561D02*
X145181905Y-80988990D01*
X145181905Y-80988990D02*
X145151429Y-81110895D01*
X145151429Y-81110895D02*
X145120952Y-81171847D01*
X145120952Y-81171847D02*
X145060000Y-81232800D01*
X145060000Y-81232800D02*
X144968571Y-81263276D01*
X144968571Y-81263276D02*
X144816190Y-81263276D01*
X145395238Y-80623276D02*
X145791429Y-80623276D01*
X145791429Y-80623276D02*
X145578095Y-80867085D01*
X145578095Y-80867085D02*
X145669524Y-80867085D01*
X145669524Y-80867085D02*
X145730476Y-80897561D01*
X145730476Y-80897561D02*
X145760952Y-80928038D01*
X145760952Y-80928038D02*
X145791429Y-80988990D01*
X145791429Y-80988990D02*
X145791429Y-81141371D01*
X145791429Y-81141371D02*
X145760952Y-81202323D01*
X145760952Y-81202323D02*
X145730476Y-81232800D01*
X145730476Y-81232800D02*
X145669524Y-81263276D01*
X145669524Y-81263276D02*
X145486667Y-81263276D01*
X145486667Y-81263276D02*
X145425714Y-81232800D01*
X145425714Y-81232800D02*
X145395238Y-81202323D01*
X142299580Y-86116666D02*
X142347200Y-86164285D01*
X142347200Y-86164285D02*
X142394819Y-86307142D01*
X142394819Y-86307142D02*
X142394819Y-86402380D01*
X142394819Y-86402380D02*
X142347200Y-86545237D01*
X142347200Y-86545237D02*
X142251961Y-86640475D01*
X142251961Y-86640475D02*
X142156723Y-86688094D01*
X142156723Y-86688094D02*
X141966247Y-86735713D01*
X141966247Y-86735713D02*
X141823390Y-86735713D01*
X141823390Y-86735713D02*
X141632914Y-86688094D01*
X141632914Y-86688094D02*
X141537676Y-86640475D01*
X141537676Y-86640475D02*
X141442438Y-86545237D01*
X141442438Y-86545237D02*
X141394819Y-86402380D01*
X141394819Y-86402380D02*
X141394819Y-86307142D01*
X141394819Y-86307142D02*
X141442438Y-86164285D01*
X141442438Y-86164285D02*
X141490057Y-86116666D01*
X141394819Y-85783332D02*
X141394819Y-85164285D01*
X141394819Y-85164285D02*
X141775771Y-85497618D01*
X141775771Y-85497618D02*
X141775771Y-85354761D01*
X141775771Y-85354761D02*
X141823390Y-85259523D01*
X141823390Y-85259523D02*
X141871009Y-85211904D01*
X141871009Y-85211904D02*
X141966247Y-85164285D01*
X141966247Y-85164285D02*
X142204342Y-85164285D01*
X142204342Y-85164285D02*
X142299580Y-85211904D01*
X142299580Y-85211904D02*
X142347200Y-85259523D01*
X142347200Y-85259523D02*
X142394819Y-85354761D01*
X142394819Y-85354761D02*
X142394819Y-85640475D01*
X142394819Y-85640475D02*
X142347200Y-85735713D01*
X142347200Y-85735713D02*
X142299580Y-85783332D01*
X144023809Y-88055776D02*
X143719047Y-88055776D01*
X143719047Y-88055776D02*
X143719047Y-87415776D01*
X144237142Y-87720538D02*
X144450476Y-87720538D01*
X144541904Y-88055776D02*
X144237142Y-88055776D01*
X144237142Y-88055776D02*
X144237142Y-87415776D01*
X144237142Y-87415776D02*
X144541904Y-87415776D01*
X144816190Y-88055776D02*
X144816190Y-87415776D01*
X144816190Y-87415776D02*
X144968571Y-87415776D01*
X144968571Y-87415776D02*
X145060000Y-87446252D01*
X145060000Y-87446252D02*
X145120952Y-87507204D01*
X145120952Y-87507204D02*
X145151429Y-87568157D01*
X145151429Y-87568157D02*
X145181905Y-87690061D01*
X145181905Y-87690061D02*
X145181905Y-87781490D01*
X145181905Y-87781490D02*
X145151429Y-87903395D01*
X145151429Y-87903395D02*
X145120952Y-87964347D01*
X145120952Y-87964347D02*
X145060000Y-88025300D01*
X145060000Y-88025300D02*
X144968571Y-88055776D01*
X144968571Y-88055776D02*
X144816190Y-88055776D01*
X145730476Y-87629109D02*
X145730476Y-88055776D01*
X145578095Y-87385300D02*
X145425714Y-87842442D01*
X145425714Y-87842442D02*
X145821905Y-87842442D01*
X142299580Y-93116666D02*
X142347200Y-93164285D01*
X142347200Y-93164285D02*
X142394819Y-93307142D01*
X142394819Y-93307142D02*
X142394819Y-93402380D01*
X142394819Y-93402380D02*
X142347200Y-93545237D01*
X142347200Y-93545237D02*
X142251961Y-93640475D01*
X142251961Y-93640475D02*
X142156723Y-93688094D01*
X142156723Y-93688094D02*
X141966247Y-93735713D01*
X141966247Y-93735713D02*
X141823390Y-93735713D01*
X141823390Y-93735713D02*
X141632914Y-93688094D01*
X141632914Y-93688094D02*
X141537676Y-93640475D01*
X141537676Y-93640475D02*
X141442438Y-93545237D01*
X141442438Y-93545237D02*
X141394819Y-93402380D01*
X141394819Y-93402380D02*
X141394819Y-93307142D01*
X141394819Y-93307142D02*
X141442438Y-93164285D01*
X141442438Y-93164285D02*
X141490057Y-93116666D01*
X141728152Y-92259523D02*
X142394819Y-92259523D01*
X141347200Y-92497618D02*
X142061485Y-92735713D01*
X142061485Y-92735713D02*
X142061485Y-92116666D01*
X141799580Y-71116666D02*
X141847200Y-71164285D01*
X141847200Y-71164285D02*
X141894819Y-71307142D01*
X141894819Y-71307142D02*
X141894819Y-71402380D01*
X141894819Y-71402380D02*
X141847200Y-71545237D01*
X141847200Y-71545237D02*
X141751961Y-71640475D01*
X141751961Y-71640475D02*
X141656723Y-71688094D01*
X141656723Y-71688094D02*
X141466247Y-71735713D01*
X141466247Y-71735713D02*
X141323390Y-71735713D01*
X141323390Y-71735713D02*
X141132914Y-71688094D01*
X141132914Y-71688094D02*
X141037676Y-71640475D01*
X141037676Y-71640475D02*
X140942438Y-71545237D01*
X140942438Y-71545237D02*
X140894819Y-71402380D01*
X140894819Y-71402380D02*
X140894819Y-71307142D01*
X140894819Y-71307142D02*
X140942438Y-71164285D01*
X140942438Y-71164285D02*
X140990057Y-71116666D01*
X141894819Y-70164285D02*
X141894819Y-70735713D01*
X141894819Y-70449999D02*
X140894819Y-70449999D01*
X140894819Y-70449999D02*
X141037676Y-70545237D01*
X141037676Y-70545237D02*
X141132914Y-70640475D01*
X141132914Y-70640475D02*
X141180533Y-70735713D01*
X142299580Y-100116666D02*
X142347200Y-100164285D01*
X142347200Y-100164285D02*
X142394819Y-100307142D01*
X142394819Y-100307142D02*
X142394819Y-100402380D01*
X142394819Y-100402380D02*
X142347200Y-100545237D01*
X142347200Y-100545237D02*
X142251961Y-100640475D01*
X142251961Y-100640475D02*
X142156723Y-100688094D01*
X142156723Y-100688094D02*
X141966247Y-100735713D01*
X141966247Y-100735713D02*
X141823390Y-100735713D01*
X141823390Y-100735713D02*
X141632914Y-100688094D01*
X141632914Y-100688094D02*
X141537676Y-100640475D01*
X141537676Y-100640475D02*
X141442438Y-100545237D01*
X141442438Y-100545237D02*
X141394819Y-100402380D01*
X141394819Y-100402380D02*
X141394819Y-100307142D01*
X141394819Y-100307142D02*
X141442438Y-100164285D01*
X141442438Y-100164285D02*
X141490057Y-100116666D01*
X141394819Y-99211904D02*
X141394819Y-99688094D01*
X141394819Y-99688094D02*
X141871009Y-99735713D01*
X141871009Y-99735713D02*
X141823390Y-99688094D01*
X141823390Y-99688094D02*
X141775771Y-99592856D01*
X141775771Y-99592856D02*
X141775771Y-99354761D01*
X141775771Y-99354761D02*
X141823390Y-99259523D01*
X141823390Y-99259523D02*
X141871009Y-99211904D01*
X141871009Y-99211904D02*
X141966247Y-99164285D01*
X141966247Y-99164285D02*
X142204342Y-99164285D01*
X142204342Y-99164285D02*
X142299580Y-99211904D01*
X142299580Y-99211904D02*
X142347200Y-99259523D01*
X142347200Y-99259523D02*
X142394819Y-99354761D01*
X142394819Y-99354761D02*
X142394819Y-99592856D01*
X142394819Y-99592856D02*
X142347200Y-99688094D01*
X142347200Y-99688094D02*
X142299580Y-99735713D01*
X144073809Y-94698276D02*
X143769047Y-94698276D01*
X143769047Y-94698276D02*
X143769047Y-94058276D01*
X144287142Y-94363038D02*
X144500476Y-94363038D01*
X144591904Y-94698276D02*
X144287142Y-94698276D01*
X144287142Y-94698276D02*
X144287142Y-94058276D01*
X144287142Y-94058276D02*
X144591904Y-94058276D01*
X144866190Y-94698276D02*
X144866190Y-94058276D01*
X144866190Y-94058276D02*
X145018571Y-94058276D01*
X145018571Y-94058276D02*
X145110000Y-94088752D01*
X145110000Y-94088752D02*
X145170952Y-94149704D01*
X145170952Y-94149704D02*
X145201429Y-94210657D01*
X145201429Y-94210657D02*
X145231905Y-94332561D01*
X145231905Y-94332561D02*
X145231905Y-94423990D01*
X145231905Y-94423990D02*
X145201429Y-94545895D01*
X145201429Y-94545895D02*
X145170952Y-94606847D01*
X145170952Y-94606847D02*
X145110000Y-94667800D01*
X145110000Y-94667800D02*
X145018571Y-94698276D01*
X145018571Y-94698276D02*
X144866190Y-94698276D01*
X145810952Y-94058276D02*
X145506190Y-94058276D01*
X145506190Y-94058276D02*
X145475714Y-94363038D01*
X145475714Y-94363038D02*
X145506190Y-94332561D01*
X145506190Y-94332561D02*
X145567143Y-94302085D01*
X145567143Y-94302085D02*
X145719524Y-94302085D01*
X145719524Y-94302085D02*
X145780476Y-94332561D01*
X145780476Y-94332561D02*
X145810952Y-94363038D01*
X145810952Y-94363038D02*
X145841429Y-94423990D01*
X145841429Y-94423990D02*
X145841429Y-94576371D01*
X145841429Y-94576371D02*
X145810952Y-94637323D01*
X145810952Y-94637323D02*
X145780476Y-94667800D01*
X145780476Y-94667800D02*
X145719524Y-94698276D01*
X145719524Y-94698276D02*
X145567143Y-94698276D01*
X145567143Y-94698276D02*
X145506190Y-94667800D01*
X145506190Y-94667800D02*
X145475714Y-94637323D01*
D11*
%TO.C,LED2*%
X142240000Y-75182500D02*
X147240000Y-75182500D01*
X142240000Y-80182500D02*
X142240000Y-75182500D01*
X146040000Y-80482500D02*
X146440000Y-80882500D01*
X146340000Y-80182500D02*
X142240000Y-80182500D01*
X146340000Y-80182500D02*
X146040000Y-80482500D01*
X146440000Y-80882500D02*
X147240000Y-80182500D01*
X147240000Y-75182500D02*
X147240000Y-79282500D01*
X147240000Y-79282500D02*
X146340000Y-80182500D01*
X147240000Y-79282500D02*
X147240000Y-80182500D01*
X147240000Y-80182500D02*
X146340000Y-80182500D01*
X146460460Y-77682500D02*
G75*
G02*
X143019540Y-77682500I-1720460J0D01*
G01*
X143019540Y-77682500D02*
G75*
G02*
X146460460Y-77682500I1720460J0D01*
G01*
%TO.C,LED1*%
X142240000Y-68390000D02*
X147240000Y-68390000D01*
X142240000Y-73390000D02*
X142240000Y-68390000D01*
X146040000Y-73690000D02*
X146440000Y-74090000D01*
X146340000Y-73390000D02*
X142240000Y-73390000D01*
X146340000Y-73390000D02*
X146040000Y-73690000D01*
X146440000Y-74090000D02*
X147240000Y-73390000D01*
X147240000Y-68390000D02*
X147240000Y-72490000D01*
X147240000Y-72490000D02*
X146340000Y-73390000D01*
X147240000Y-72490000D02*
X147240000Y-73390000D01*
X147240000Y-73390000D02*
X146340000Y-73390000D01*
X146460460Y-70890000D02*
G75*
G02*
X143019540Y-70890000I-1720460J0D01*
G01*
X143019540Y-70890000D02*
G75*
G02*
X146460460Y-70890000I1720460J0D01*
G01*
D12*
%TO.C,C2*%
X139430000Y-77596267D02*
X139430000Y-77303733D01*
X140450000Y-77596267D02*
X140450000Y-77303733D01*
D11*
%TO.C,LED3*%
X142240000Y-81975000D02*
X147240000Y-81975000D01*
X142240000Y-86975000D02*
X142240000Y-81975000D01*
X146040000Y-87275000D02*
X146440000Y-87675000D01*
X146340000Y-86975000D02*
X142240000Y-86975000D01*
X146340000Y-86975000D02*
X146040000Y-87275000D01*
X146440000Y-87675000D02*
X147240000Y-86975000D01*
X147240000Y-81975000D02*
X147240000Y-86075000D01*
X147240000Y-86075000D02*
X146340000Y-86975000D01*
X147240000Y-86075000D02*
X147240000Y-86975000D01*
X147240000Y-86975000D02*
X146340000Y-86975000D01*
X146460460Y-84475000D02*
G75*
G02*
X143019540Y-84475000I-1720460J0D01*
G01*
X143019540Y-84475000D02*
G75*
G02*
X146460460Y-84475000I1720460J0D01*
G01*
D12*
%TO.C,C3*%
X139430000Y-85596267D02*
X139430000Y-85303733D01*
X140450000Y-85596267D02*
X140450000Y-85303733D01*
D11*
%TO.C,LED4*%
X142240000Y-88767500D02*
X147240000Y-88767500D01*
X142240000Y-93767500D02*
X142240000Y-88767500D01*
X146040000Y-94067500D02*
X146440000Y-94467500D01*
X146340000Y-93767500D02*
X142240000Y-93767500D01*
X146340000Y-93767500D02*
X146040000Y-94067500D01*
X146440000Y-94467500D02*
X147240000Y-93767500D01*
X147240000Y-88767500D02*
X147240000Y-92867500D01*
X147240000Y-92867500D02*
X146340000Y-93767500D01*
X147240000Y-92867500D02*
X147240000Y-93767500D01*
X147240000Y-93767500D02*
X146340000Y-93767500D01*
X146460460Y-91267500D02*
G75*
G02*
X143019540Y-91267500I-1720460J0D01*
G01*
X143019540Y-91267500D02*
G75*
G02*
X146460460Y-91267500I1720460J0D01*
G01*
D12*
%TO.C,C4*%
X139430000Y-92596267D02*
X139430000Y-92303733D01*
X140450000Y-92596267D02*
X140450000Y-92303733D01*
%TO.C,C1*%
X139430000Y-69596267D02*
X139430000Y-69303733D01*
X140450000Y-69596267D02*
X140450000Y-69303733D01*
%TO.C,C5*%
X139430000Y-99596267D02*
X139430000Y-99303733D01*
X140450000Y-99596267D02*
X140450000Y-99303733D01*
D11*
%TO.C,LED5*%
X142240000Y-95560000D02*
X147240000Y-95560000D01*
X142240000Y-100560000D02*
X142240000Y-95560000D01*
X146040000Y-100860000D02*
X146440000Y-101260000D01*
X146340000Y-100560000D02*
X142240000Y-100560000D01*
X146340000Y-100560000D02*
X146040000Y-100860000D01*
X146440000Y-101260000D02*
X147240000Y-100560000D01*
X147240000Y-95560000D02*
X147240000Y-99660000D01*
X147240000Y-99660000D02*
X146340000Y-100560000D01*
X147240000Y-99660000D02*
X147240000Y-100560000D01*
X147240000Y-100560000D02*
X146340000Y-100560000D01*
X146460460Y-98060000D02*
G75*
G02*
X143019540Y-98060000I-1720460J0D01*
G01*
X143019540Y-98060000D02*
G75*
G02*
X146460460Y-98060000I1720460J0D01*
G01*
%TD*%
%LPC*%
D13*
%TO.C,LED2*%
X142290000Y-76032500D03*
X142290000Y-79332500D03*
X147190000Y-79332500D03*
X147190000Y-76032500D03*
%TD*%
%TO.C,LED1*%
X142290000Y-69240000D03*
X142290000Y-72540000D03*
X147190000Y-72540000D03*
X147190000Y-69240000D03*
%TD*%
D14*
%TO.C,C2*%
X139940000Y-78312500D03*
X139940000Y-76587500D03*
%TD*%
D13*
%TO.C,LED3*%
X142290000Y-82825000D03*
X142290000Y-86125000D03*
X147190000Y-86125000D03*
X147190000Y-82825000D03*
%TD*%
D15*
%TO.C,H1*%
X144500000Y-52000000D03*
%TD*%
D14*
%TO.C,C3*%
X139940000Y-86312500D03*
X139940000Y-84587500D03*
%TD*%
D13*
%TO.C,LED4*%
X142290000Y-89617500D03*
X142290000Y-92917500D03*
X147190000Y-92917500D03*
X147190000Y-89617500D03*
%TD*%
D14*
%TO.C,C4*%
X139940000Y-93312500D03*
X139940000Y-91587500D03*
%TD*%
D15*
%TO.C,H2*%
X144500000Y-108000000D03*
%TD*%
D14*
%TO.C,C1*%
X139940000Y-70312500D03*
X139940000Y-68587500D03*
%TD*%
%TO.C,C5*%
X139940000Y-100312500D03*
X139940000Y-98587500D03*
%TD*%
D13*
%TO.C,LED5*%
X142290000Y-96410000D03*
X142290000Y-99710000D03*
X147190000Y-99710000D03*
X147190000Y-96410000D03*
%TD*%
D16*
%TO.C,J1*%
X143680000Y-64360000D03*
D17*
X145020000Y-65610000D03*
D18*
X145020000Y-63110000D03*
X145020000Y-60610000D03*
%TD*%
%LPD*%
M02*
