%TF.GenerationSoftware,KiCad,Pcbnew,9.0.5*%
%TF.CreationDate,2025-10-25T18:18:29-05:00*%
%TF.ProjectId,IndicationPCB,496e6469-6361-4746-996f-6e5043422e6b,rev?*%
%TF.SameCoordinates,Original*%
%TF.FileFunction,Copper,L2,Bot*%
%TF.FilePolarity,Positive*%
%FSLAX46Y46*%
G04 Gerber Fmt 4.6, Leading zero omitted, Abs format (unit mm)*
G04 Created by KiCad (PCBNEW 9.0.5) date 2025-10-25 18:18:29*
%MOMM*%
%LPD*%
G01*
G04 APERTURE LIST*
G04 Aperture macros list*
%AMFreePoly0*
4,1,22,0.945671,0.830970,1.026777,0.776777,1.080970,0.695671,1.100000,0.600000,1.100000,-0.600000,1.080970,-0.695671,1.026777,-0.776777,0.945671,-0.830970,0.850000,-0.850000,-0.850000,-0.850000,-0.945671,-0.830970,-1.026777,-0.776777,-1.080970,-0.695671,-1.100000,-0.600000,-1.100000,0.346447,-1.080970,0.442118,-1.026777,0.523224,-0.773224,0.776777,-0.692118,0.830970,-0.596447,0.850000,
0.850000,0.850000,0.945671,0.830970,0.945671,0.830970,$1*%
G04 Aperture macros list end*
%TA.AperFunction,ComponentPad*%
%ADD10FreePoly0,0.000000*%
%TD*%
%TA.AperFunction,ComponentPad*%
%ADD11O,2.200000X1.700000*%
%TD*%
%TA.AperFunction,ViaPad*%
%ADD12C,0.600000*%
%TD*%
%TA.AperFunction,Conductor*%
%ADD13C,0.200000*%
%TD*%
G04 APERTURE END LIST*
D10*
%TO.P,J1,1,Pin_1*%
%TO.N,+5V*%
X145020000Y-65610000D03*
D11*
%TO.P,J1,2,Pin_2*%
%TO.N,GND*%
X145020000Y-63110000D03*
%TO.P,J1,3,Pin_3*%
%TO.N,/DIN*%
X145020000Y-60610000D03*
%TD*%
D12*
%TO.N,/DIN*%
X143740000Y-59250000D03*
X147540000Y-67600000D03*
%TD*%
D13*
%TO.N,/DIN*%
X147540000Y-67600000D02*
X147540000Y-59450000D01*
X147540000Y-59450000D02*
X146140000Y-58050000D01*
X144940000Y-58050000D02*
X143740000Y-59250000D01*
X146140000Y-58050000D02*
X144940000Y-58050000D01*
%TD*%
%TA.AperFunction,Conductor*%
%TO.N,GND*%
G36*
X150506922Y-49001280D02*
G01*
X150597266Y-49011459D01*
X150624331Y-49017636D01*
X150703540Y-49045352D01*
X150728553Y-49057398D01*
X150799606Y-49102043D01*
X150821313Y-49119355D01*
X150880644Y-49178686D01*
X150897957Y-49200395D01*
X150942600Y-49271444D01*
X150954648Y-49296462D01*
X150982362Y-49375666D01*
X150988540Y-49402735D01*
X150998720Y-49493076D01*
X150999500Y-49506961D01*
X150999500Y-110493038D01*
X150998720Y-110506922D01*
X150998720Y-110506923D01*
X150988540Y-110597264D01*
X150982362Y-110624333D01*
X150954648Y-110703537D01*
X150942600Y-110728555D01*
X150897957Y-110799604D01*
X150880644Y-110821313D01*
X150821313Y-110880644D01*
X150799604Y-110897957D01*
X150728555Y-110942600D01*
X150703537Y-110954648D01*
X150624333Y-110982362D01*
X150597264Y-110988540D01*
X150517075Y-110997576D01*
X150506921Y-110998720D01*
X150493038Y-110999500D01*
X138006962Y-110999500D01*
X137993078Y-110998720D01*
X137980553Y-110997308D01*
X137902735Y-110988540D01*
X137875666Y-110982362D01*
X137796462Y-110954648D01*
X137771444Y-110942600D01*
X137700395Y-110897957D01*
X137678686Y-110880644D01*
X137619355Y-110821313D01*
X137602042Y-110799604D01*
X137557399Y-110728555D01*
X137545351Y-110703537D01*
X137517637Y-110624333D01*
X137511459Y-110597263D01*
X137501280Y-110506922D01*
X137500500Y-110493038D01*
X137500500Y-107878711D01*
X142649500Y-107878711D01*
X142649500Y-108121288D01*
X142681161Y-108361785D01*
X142743947Y-108596104D01*
X142836773Y-108820205D01*
X142836776Y-108820212D01*
X142958064Y-109030289D01*
X142958066Y-109030292D01*
X142958067Y-109030293D01*
X143105733Y-109222736D01*
X143105739Y-109222743D01*
X143277256Y-109394260D01*
X143277262Y-109394265D01*
X143469711Y-109541936D01*
X143679788Y-109663224D01*
X143903900Y-109756054D01*
X144138211Y-109818838D01*
X144318586Y-109842584D01*
X144378711Y-109850500D01*
X144378712Y-109850500D01*
X144621289Y-109850500D01*
X144669388Y-109844167D01*
X144861789Y-109818838D01*
X145096100Y-109756054D01*
X145320212Y-109663224D01*
X145530289Y-109541936D01*
X145722738Y-109394265D01*
X145894265Y-109222738D01*
X146041936Y-109030289D01*
X146163224Y-108820212D01*
X146256054Y-108596100D01*
X146318838Y-108361789D01*
X146350500Y-108121288D01*
X146350500Y-107878712D01*
X146318838Y-107638211D01*
X146256054Y-107403900D01*
X146163224Y-107179788D01*
X146041936Y-106969711D01*
X145894265Y-106777262D01*
X145894260Y-106777256D01*
X145722743Y-106605739D01*
X145722736Y-106605733D01*
X145530293Y-106458067D01*
X145530292Y-106458066D01*
X145530289Y-106458064D01*
X145320212Y-106336776D01*
X145320205Y-106336773D01*
X145096104Y-106243947D01*
X144861785Y-106181161D01*
X144621289Y-106149500D01*
X144621288Y-106149500D01*
X144378712Y-106149500D01*
X144378711Y-106149500D01*
X144138214Y-106181161D01*
X143903895Y-106243947D01*
X143679794Y-106336773D01*
X143679785Y-106336777D01*
X143469706Y-106458067D01*
X143277263Y-106605733D01*
X143277256Y-106605739D01*
X143105739Y-106777256D01*
X143105733Y-106777263D01*
X142958067Y-106969706D01*
X142836777Y-107179785D01*
X142836773Y-107179794D01*
X142743947Y-107403895D01*
X142681161Y-107638214D01*
X142649500Y-107878711D01*
X137500500Y-107878711D01*
X137500500Y-64271304D01*
X142779500Y-64271304D01*
X142779500Y-64448695D01*
X142814103Y-64622658D01*
X142814106Y-64622667D01*
X142881983Y-64786540D01*
X142881990Y-64786553D01*
X142980535Y-64934034D01*
X142980538Y-64934038D01*
X143105961Y-65059461D01*
X143105965Y-65059464D01*
X143253446Y-65158009D01*
X143253453Y-65158013D01*
X143332952Y-65190942D01*
X143387355Y-65234782D01*
X143409421Y-65301076D01*
X143409500Y-65305503D01*
X143409500Y-66209997D01*
X143419212Y-66308616D01*
X143438624Y-66406206D01*
X143438629Y-66406228D01*
X143452004Y-66458628D01*
X143452006Y-66458634D01*
X143514103Y-66588424D01*
X143514104Y-66588426D01*
X143514105Y-66588427D01*
X143569375Y-66671145D01*
X143569377Y-66671148D01*
X143569380Y-66671152D01*
X143601809Y-66714473D01*
X143708848Y-66810620D01*
X143791572Y-66865894D01*
X143791576Y-66865897D01*
X143838112Y-66893508D01*
X143838113Y-66893509D01*
X143973789Y-66941374D01*
X143973791Y-66941374D01*
X143973796Y-66941376D01*
X144071380Y-66960787D01*
X144170000Y-66970500D01*
X144170002Y-66970500D01*
X145869998Y-66970500D01*
X145870000Y-66970500D01*
X145968620Y-66960787D01*
X146066204Y-66941376D01*
X146118634Y-66927994D01*
X146248424Y-66865897D01*
X146331152Y-66810620D01*
X146374473Y-66778191D01*
X146470620Y-66671152D01*
X146525897Y-66588424D01*
X146553508Y-66541888D01*
X146582882Y-66458628D01*
X146601374Y-66406210D01*
X146601375Y-66406206D01*
X146601376Y-66406204D01*
X146620787Y-66308620D01*
X146630500Y-66210000D01*
X146630500Y-65010000D01*
X146620787Y-64911380D01*
X146601376Y-64813796D01*
X146587994Y-64761366D01*
X146525897Y-64631576D01*
X146470620Y-64548848D01*
X146438191Y-64505527D01*
X146331152Y-64409380D01*
X146248424Y-64354103D01*
X146248423Y-64354102D01*
X146201886Y-64326490D01*
X146199149Y-64325211D01*
X146197957Y-64324159D01*
X146196650Y-64323384D01*
X146196797Y-64323136D01*
X146146756Y-64278986D01*
X146127672Y-64211773D01*
X146147955Y-64144912D01*
X146163986Y-64125200D01*
X146299728Y-63989458D01*
X146424620Y-63817557D01*
X146521095Y-63628217D01*
X146586757Y-63426129D01*
X146586757Y-63426126D01*
X146597231Y-63360000D01*
X145568482Y-63360000D01*
X145579111Y-63341591D01*
X145620000Y-63188991D01*
X145620000Y-63031009D01*
X145579111Y-62878409D01*
X145568482Y-62860000D01*
X146597231Y-62860000D01*
X146586757Y-62793873D01*
X146586757Y-62793870D01*
X146521095Y-62591782D01*
X146424620Y-62402442D01*
X146299727Y-62230540D01*
X146299723Y-62230535D01*
X146149464Y-62080276D01*
X146149459Y-62080272D01*
X145984781Y-61960627D01*
X145942115Y-61905297D01*
X145936136Y-61835684D01*
X145968741Y-61773889D01*
X145984776Y-61759994D01*
X146149792Y-61640104D01*
X146300104Y-61489792D01*
X146300106Y-61489788D01*
X146300109Y-61489786D01*
X146425048Y-61317820D01*
X146425047Y-61317820D01*
X146425051Y-61317816D01*
X146521557Y-61128412D01*
X146587246Y-60926243D01*
X146620500Y-60716287D01*
X146620500Y-60503713D01*
X146587246Y-60293757D01*
X146521557Y-60091588D01*
X146425051Y-59902184D01*
X146425049Y-59902181D01*
X146425048Y-59902179D01*
X146300109Y-59730213D01*
X146149786Y-59579890D01*
X145977820Y-59454951D01*
X145788414Y-59358444D01*
X145788413Y-59358443D01*
X145788412Y-59358443D01*
X145586243Y-59292754D01*
X145586241Y-59292753D01*
X145586240Y-59292753D01*
X145424957Y-59267208D01*
X145376287Y-59259500D01*
X144879096Y-59259500D01*
X144812057Y-59239815D01*
X144766302Y-59187011D01*
X144756358Y-59117853D01*
X144785383Y-59054297D01*
X144791415Y-59047819D01*
X144968408Y-58870827D01*
X145152416Y-58686819D01*
X145213739Y-58653334D01*
X145240097Y-58650500D01*
X145839903Y-58650500D01*
X145906942Y-58670185D01*
X145927584Y-58686819D01*
X146903181Y-59662416D01*
X146936666Y-59723739D01*
X146939500Y-59750097D01*
X146939500Y-67020234D01*
X146919815Y-67087273D01*
X146918602Y-67089125D01*
X146830609Y-67220814D01*
X146830602Y-67220827D01*
X146770264Y-67366498D01*
X146770261Y-67366510D01*
X146739500Y-67521153D01*
X146739500Y-67678846D01*
X146770261Y-67833489D01*
X146770264Y-67833501D01*
X146830602Y-67979172D01*
X146830609Y-67979185D01*
X146918210Y-68110288D01*
X146918213Y-68110292D01*
X147029707Y-68221786D01*
X147029711Y-68221789D01*
X147160814Y-68309390D01*
X147160827Y-68309397D01*
X147306498Y-68369735D01*
X147306503Y-68369737D01*
X147461153Y-68400499D01*
X147461156Y-68400500D01*
X147461158Y-68400500D01*
X147618844Y-68400500D01*
X147618845Y-68400499D01*
X147773497Y-68369737D01*
X147919179Y-68309394D01*
X148050289Y-68221789D01*
X148161789Y-68110289D01*
X148249394Y-67979179D01*
X148309737Y-67833497D01*
X148340500Y-67678842D01*
X148340500Y-67521158D01*
X148340500Y-67521155D01*
X148340499Y-67521153D01*
X148309738Y-67366510D01*
X148309737Y-67366503D01*
X148309735Y-67366498D01*
X148249397Y-67220827D01*
X148249390Y-67220814D01*
X148161398Y-67089125D01*
X148140520Y-67022447D01*
X148140500Y-67020234D01*
X148140500Y-59539059D01*
X148140501Y-59539046D01*
X148140501Y-59370945D01*
X148140501Y-59370943D01*
X148099577Y-59218215D01*
X148070639Y-59168095D01*
X148020520Y-59081284D01*
X147908716Y-58969480D01*
X147908715Y-58969479D01*
X147904385Y-58965149D01*
X147904374Y-58965139D01*
X146627590Y-57688355D01*
X146627588Y-57688352D01*
X146508717Y-57569481D01*
X146508716Y-57569480D01*
X146421904Y-57519360D01*
X146421904Y-57519359D01*
X146421900Y-57519358D01*
X146371785Y-57490423D01*
X146219057Y-57449499D01*
X146060943Y-57449499D01*
X146053347Y-57449499D01*
X146053331Y-57449500D01*
X145019057Y-57449500D01*
X144860942Y-57449500D01*
X144708215Y-57490423D01*
X144708214Y-57490423D01*
X144708212Y-57490424D01*
X144708209Y-57490425D01*
X144658096Y-57519359D01*
X144658095Y-57519360D01*
X144614689Y-57544420D01*
X144571285Y-57569479D01*
X144571282Y-57569481D01*
X143725339Y-58415425D01*
X143664016Y-58448910D01*
X143661850Y-58449361D01*
X143506508Y-58480261D01*
X143506498Y-58480264D01*
X143360827Y-58540602D01*
X143360814Y-58540609D01*
X143229711Y-58628210D01*
X143229707Y-58628213D01*
X143118213Y-58739707D01*
X143118210Y-58739711D01*
X143030609Y-58870814D01*
X143030602Y-58870827D01*
X142970264Y-59016498D01*
X142970261Y-59016510D01*
X142939500Y-59171153D01*
X142939500Y-59328846D01*
X142970261Y-59483489D01*
X142970264Y-59483501D01*
X143030602Y-59629172D01*
X143030609Y-59629185D01*
X143118210Y-59760288D01*
X143118213Y-59760292D01*
X143229707Y-59871786D01*
X143229711Y-59871789D01*
X143360814Y-59959390D01*
X143360818Y-59959392D01*
X143360821Y-59959394D01*
X143431705Y-59988755D01*
X143486106Y-60032594D01*
X143508172Y-60098888D01*
X143502182Y-60141633D01*
X143452753Y-60293759D01*
X143419500Y-60503713D01*
X143419500Y-60716286D01*
X143452753Y-60926239D01*
X143518444Y-61128414D01*
X143614951Y-61317820D01*
X143739890Y-61489786D01*
X143890209Y-61640105D01*
X143890214Y-61640109D01*
X144055218Y-61759991D01*
X144097884Y-61815320D01*
X144103863Y-61884934D01*
X144071258Y-61946729D01*
X144055218Y-61960627D01*
X143890540Y-62080272D01*
X143890535Y-62080276D01*
X143740276Y-62230535D01*
X143740272Y-62230540D01*
X143615379Y-62402442D01*
X143518904Y-62591782D01*
X143453242Y-62793870D01*
X143453242Y-62793873D01*
X143442769Y-62860000D01*
X144471518Y-62860000D01*
X144460889Y-62878409D01*
X144420000Y-63031009D01*
X144420000Y-63188991D01*
X144460889Y-63341591D01*
X144471518Y-63360000D01*
X143442768Y-63360000D01*
X143445843Y-63379413D01*
X143436888Y-63448706D01*
X143391892Y-63502158D01*
X143370822Y-63513371D01*
X143253459Y-63561983D01*
X143253446Y-63561990D01*
X143105965Y-63660535D01*
X143105961Y-63660538D01*
X142980538Y-63785961D01*
X142980535Y-63785965D01*
X142881990Y-63933446D01*
X142881983Y-63933459D01*
X142814106Y-64097332D01*
X142814103Y-64097341D01*
X142779500Y-64271304D01*
X137500500Y-64271304D01*
X137500500Y-51878711D01*
X142649500Y-51878711D01*
X142649500Y-52121288D01*
X142681161Y-52361785D01*
X142743947Y-52596104D01*
X142836773Y-52820205D01*
X142836776Y-52820212D01*
X142958064Y-53030289D01*
X142958066Y-53030292D01*
X142958067Y-53030293D01*
X143105733Y-53222736D01*
X143105739Y-53222743D01*
X143277256Y-53394260D01*
X143277262Y-53394265D01*
X143469711Y-53541936D01*
X143679788Y-53663224D01*
X143903900Y-53756054D01*
X144138211Y-53818838D01*
X144318586Y-53842584D01*
X144378711Y-53850500D01*
X144378712Y-53850500D01*
X144621289Y-53850500D01*
X144669388Y-53844167D01*
X144861789Y-53818838D01*
X145096100Y-53756054D01*
X145320212Y-53663224D01*
X145530289Y-53541936D01*
X145722738Y-53394265D01*
X145894265Y-53222738D01*
X146041936Y-53030289D01*
X146163224Y-52820212D01*
X146256054Y-52596100D01*
X146318838Y-52361789D01*
X146350500Y-52121288D01*
X146350500Y-51878712D01*
X146318838Y-51638211D01*
X146256054Y-51403900D01*
X146163224Y-51179788D01*
X146041936Y-50969711D01*
X145894265Y-50777262D01*
X145894260Y-50777256D01*
X145722743Y-50605739D01*
X145722736Y-50605733D01*
X145530293Y-50458067D01*
X145530292Y-50458066D01*
X145530289Y-50458064D01*
X145320212Y-50336776D01*
X145320205Y-50336773D01*
X145096104Y-50243947D01*
X144861785Y-50181161D01*
X144621289Y-50149500D01*
X144621288Y-50149500D01*
X144378712Y-50149500D01*
X144378711Y-50149500D01*
X144138214Y-50181161D01*
X143903895Y-50243947D01*
X143679794Y-50336773D01*
X143679785Y-50336777D01*
X143469706Y-50458067D01*
X143277263Y-50605733D01*
X143277256Y-50605739D01*
X143105739Y-50777256D01*
X143105733Y-50777263D01*
X142958067Y-50969706D01*
X142836777Y-51179785D01*
X142836773Y-51179794D01*
X142743947Y-51403895D01*
X142681161Y-51638214D01*
X142649500Y-51878711D01*
X137500500Y-51878711D01*
X137500500Y-49506961D01*
X137501280Y-49493077D01*
X137501280Y-49493076D01*
X137511460Y-49402729D01*
X137517635Y-49375670D01*
X137545353Y-49296456D01*
X137557396Y-49271450D01*
X137602046Y-49200389D01*
X137619351Y-49178690D01*
X137678690Y-49119351D01*
X137700389Y-49102046D01*
X137771450Y-49057396D01*
X137796456Y-49045353D01*
X137875670Y-49017635D01*
X137902733Y-49011459D01*
X137965419Y-49004396D01*
X137993079Y-49001280D01*
X138006962Y-49000500D01*
X138065892Y-49000500D01*
X150434108Y-49000500D01*
X150493038Y-49000500D01*
X150506922Y-49001280D01*
G37*
%TD.AperFunction*%
%TD*%
M02*
