%TF.GenerationSoftware,KiCad,Pcbnew,9.0.1*%
%TF.CreationDate,2025-09-15T21:48:15-05:00*%
%TF.ProjectId,IndicationPCB,496e6469-6361-4746-996f-6e5043422e6b,rev?*%
%TF.SameCoordinates,Original*%
%TF.FileFunction,Soldermask,Bot*%
%TF.FilePolarity,Negative*%
%FSLAX46Y46*%
G04 Gerber Fmt 4.6, Leading zero omitted, Abs format (unit mm)*
G04 Created by KiCad (PCBNEW 9.0.1) date 2025-09-15 21:48:15*
%MOMM*%
%LPD*%
G01*
G04 APERTURE LIST*
G04 Aperture macros list*
%AMRoundRect*
0 Rectangle with rounded corners*
0 $1 Rounding radius*
0 $2 $3 $4 $5 $6 $7 $8 $9 X,Y pos of 4 corners*
0 Add a 4 corners polygon primitive as box body*
4,1,4,$2,$3,$4,$5,$6,$7,$8,$9,$2,$3,0*
0 Add four circle primitives for the rounded corners*
1,1,$1+$1,$2,$3*
1,1,$1+$1,$4,$5*
1,1,$1+$1,$6,$7*
1,1,$1+$1,$8,$9*
0 Add four rect primitives between the rounded corners*
20,1,$1+$1,$2,$3,$4,$5,0*
20,1,$1+$1,$4,$5,$6,$7,0*
20,1,$1+$1,$6,$7,$8,$9,0*
20,1,$1+$1,$8,$9,$2,$3,0*%
G04 Aperture macros list end*
%ADD10C,0.000000*%
%ADD11C,3.200000*%
%ADD12C,1.700000*%
%ADD13RoundRect,0.250000X0.850000X0.600000X-0.850000X0.600000X-0.850000X-0.600000X0.850000X-0.600000X0*%
%ADD14O,2.200000X1.700000*%
G04 APERTURE END LIST*
D10*
%TO.C,LOGO1*%
G36*
X143605524Y-87364038D02*
G01*
X143619167Y-88384573D01*
X144753095Y-88409772D01*
X145887024Y-88434970D01*
X145887024Y-88712153D01*
X145887024Y-88989335D01*
X144488512Y-89002732D01*
X143090000Y-89016128D01*
X143090000Y-87679815D01*
X143090000Y-86343502D01*
X143340941Y-86343502D01*
X143591881Y-86343502D01*
X143605524Y-87364038D01*
G37*
G36*
X144509048Y-76325844D02*
G01*
X144509048Y-77106995D01*
X144761032Y-77106995D01*
X145013016Y-77106995D01*
X145013016Y-76325844D01*
X145013016Y-75544693D01*
X145239802Y-75544693D01*
X145466587Y-75544693D01*
X145466587Y-76552630D01*
X145466587Y-77560566D01*
X144761032Y-77560566D01*
X144055476Y-77560566D01*
X144055476Y-76779415D01*
X144055476Y-75998265D01*
X143803492Y-75998265D01*
X143551508Y-75998265D01*
X143551508Y-76779415D01*
X143551508Y-77560566D01*
X143324722Y-77560566D01*
X143097937Y-77560566D01*
X143097937Y-76552630D01*
X143097937Y-75544693D01*
X143803492Y-75544693D01*
X144509048Y-75544693D01*
X144509048Y-76325844D01*
G37*
G36*
X144488512Y-82323558D02*
G01*
X145887024Y-82336954D01*
X145903130Y-82533738D01*
X145914070Y-82708268D01*
X145902895Y-82830576D01*
X145853491Y-82906785D01*
X145750221Y-82948795D01*
X145577445Y-82968505D01*
X145319526Y-82977814D01*
X144778294Y-82992113D01*
X144778294Y-84075645D01*
X144778294Y-85159177D01*
X145279439Y-85173719D01*
X145416199Y-85179690D01*
X145618757Y-85196515D01*
X145771427Y-85219291D01*
X145848756Y-85244838D01*
X145854580Y-85250203D01*
X145897139Y-85358776D01*
X145901975Y-85557875D01*
X145887024Y-85814335D01*
X144486086Y-85827736D01*
X143085149Y-85841137D01*
X143100174Y-85525355D01*
X143115199Y-85209573D01*
X143683141Y-85195315D01*
X144251084Y-85181056D01*
X144237506Y-84086584D01*
X144223929Y-82992113D01*
X143656964Y-82977863D01*
X143090000Y-82963614D01*
X143090000Y-82636888D01*
X143090000Y-82310162D01*
X144488512Y-82323558D01*
G37*
G36*
X145171144Y-78105214D02*
G01*
X145330868Y-78133873D01*
X145487906Y-78174294D01*
X145612008Y-78231384D01*
X145707279Y-78315658D01*
X145777822Y-78437632D01*
X145827743Y-78607822D01*
X145861144Y-78836743D01*
X145882131Y-79134911D01*
X145894807Y-79512841D01*
X145903276Y-79981049D01*
X145907120Y-80304177D01*
X145908894Y-80641562D01*
X145908097Y-80937719D01*
X145904850Y-81177761D01*
X145899274Y-81346802D01*
X145891491Y-81429958D01*
X145859905Y-81555804D01*
X144937884Y-81555804D01*
X144474953Y-81555804D01*
X143090000Y-81555804D01*
X143090000Y-81228224D01*
X143090000Y-80900645D01*
X143518373Y-80900645D01*
X143946746Y-80900645D01*
X143946746Y-80182221D01*
X144455481Y-80182221D01*
X144456239Y-80446002D01*
X144460796Y-80658322D01*
X144468801Y-80802747D01*
X144479901Y-80862847D01*
X144490988Y-80868750D01*
X144582626Y-80885024D01*
X144740347Y-80896378D01*
X144937884Y-80900645D01*
X145357857Y-80900645D01*
X145357857Y-79948688D01*
X145357446Y-79693502D01*
X145354877Y-79421326D01*
X145348753Y-79223778D01*
X145337713Y-79085752D01*
X145320399Y-78992143D01*
X145295454Y-78927846D01*
X145261516Y-78877756D01*
X145186804Y-78807156D01*
X145079871Y-78768775D01*
X144910538Y-78758780D01*
X144875503Y-78759159D01*
X144684038Y-78783371D01*
X144565907Y-78848713D01*
X144551103Y-78865217D01*
X144522449Y-78915707D01*
X144501115Y-78994425D01*
X144485596Y-79115885D01*
X144474390Y-79294601D01*
X144465993Y-79545084D01*
X144458902Y-79881847D01*
X144458874Y-79883408D01*
X144455481Y-80182221D01*
X143946746Y-80182221D01*
X143946746Y-79946763D01*
X143946746Y-78992881D01*
X143813958Y-78888430D01*
X143735649Y-78838668D01*
X143592287Y-78796224D01*
X143385585Y-78783978D01*
X143090000Y-78783978D01*
X143090000Y-78450234D01*
X143090000Y-78116490D01*
X143542571Y-78138128D01*
X143579095Y-78139932D01*
X143796366Y-78155250D01*
X143941225Y-78178336D01*
X144038649Y-78215003D01*
X144113615Y-78271067D01*
X144123428Y-78280278D01*
X144203618Y-78347269D01*
X144255924Y-78347436D01*
X144321840Y-78283195D01*
X144377034Y-78239144D01*
X144537652Y-78168871D01*
X144746195Y-78118378D01*
X144968686Y-78094785D01*
X145171144Y-78105214D01*
G37*
%TD*%
D11*
%TO.C,H1*%
X144500000Y-52000000D03*
%TD*%
%TO.C,H2*%
X144500000Y-108000000D03*
%TD*%
D12*
%TO.C,J1*%
X140960000Y-65500000D03*
X140960000Y-60500000D03*
D13*
X148140000Y-65500000D03*
D14*
X148140000Y-63000000D03*
X148140000Y-60500000D03*
%TD*%
M02*
