%TF.GenerationSoftware,KiCad,Pcbnew,9.0.3*%
%TF.CreationDate,2025-10-13T20:54:41-05:00*%
%TF.ProjectId,IndicationPCB,496e6469-6361-4746-996f-6e5043422e6b,rev?*%
%TF.SameCoordinates,Original*%
%TF.FileFunction,Copper,L1,Top*%
%TF.FilePolarity,Positive*%
%FSLAX46Y46*%
G04 Gerber Fmt 4.6, Leading zero omitted, Abs format (unit mm)*
G04 Created by KiCad (PCBNEW 9.0.3) date 2025-10-13 20:54:41*
%MOMM*%
%LPD*%
G01*
G04 APERTURE LIST*
G04 Aperture macros list*
%AMRoundRect*
0 Rectangle with rounded corners*
0 $1 Rounding radius*
0 $2 $3 $4 $5 $6 $7 $8 $9 X,Y pos of 4 corners*
0 Add a 4 corners polygon primitive as box body*
4,1,4,$2,$3,$4,$5,$6,$7,$8,$9,$2,$3,0*
0 Add four circle primitives for the rounded corners*
1,1,$1+$1,$2,$3*
1,1,$1+$1,$4,$5*
1,1,$1+$1,$6,$7*
1,1,$1+$1,$8,$9*
0 Add four rect primitives between the rounded corners*
20,1,$1+$1,$2,$3,$4,$5,0*
20,1,$1+$1,$4,$5,$6,$7,0*
20,1,$1+$1,$6,$7,$8,$9,0*
20,1,$1+$1,$8,$9,$2,$3,0*%
%AMFreePoly0*
4,1,22,0.945671,0.830970,1.026777,0.776777,1.080970,0.695671,1.100000,0.600000,1.100000,-0.600000,1.080970,-0.695671,1.026777,-0.776777,0.945671,-0.830970,0.850000,-0.850000,-0.850000,-0.850000,-0.945671,-0.830970,-1.026777,-0.776777,-1.080970,-0.695671,-1.100000,-0.600000,-1.100000,0.346447,-1.080970,0.442118,-1.026777,0.523224,-0.773224,0.776777,-0.692118,0.830970,-0.596447,0.850000,
0.850000,0.850000,0.945671,0.830970,0.945671,0.830970,$1*%
G04 Aperture macros list end*
%TA.AperFunction,SMDPad,CuDef*%
%ADD10R,1.500000X0.900000*%
%TD*%
%TA.AperFunction,SMDPad,CuDef*%
%ADD11RoundRect,0.237500X0.237500X-0.300000X0.237500X0.300000X-0.237500X0.300000X-0.237500X-0.300000X0*%
%TD*%
%TA.AperFunction,ComponentPad*%
%ADD12FreePoly0,0.000000*%
%TD*%
%TA.AperFunction,ComponentPad*%
%ADD13O,2.200000X1.700000*%
%TD*%
%TA.AperFunction,ViaPad*%
%ADD14C,0.600000*%
%TD*%
%TA.AperFunction,Conductor*%
%ADD15C,0.500000*%
%TD*%
%TA.AperFunction,Conductor*%
%ADD16C,0.200000*%
%TD*%
G04 APERTURE END LIST*
D10*
%TO.P,LED2,1-VDD,VDD*%
%TO.N,+5V*%
X142550000Y-78850000D03*
%TO.P,LED2,2-DOUT,DO*%
%TO.N,Net-(LED2-DO)*%
X142550000Y-82150000D03*
%TO.P,LED2,3-GND,GND*%
%TO.N,GND*%
X147450000Y-82150000D03*
%TO.P,LED2,4-DIN,DI*%
%TO.N,Net-(LED1-DO)*%
X147450000Y-78850000D03*
%TD*%
%TO.P,LED1,1-VDD,VDD*%
%TO.N,+5V*%
X142550000Y-71850000D03*
%TO.P,LED1,2-DOUT,DO*%
%TO.N,Net-(LED1-DO)*%
X142550000Y-75150000D03*
%TO.P,LED1,3-GND,GND*%
%TO.N,GND*%
X147450000Y-75150000D03*
%TO.P,LED1,4-DIN,DI*%
%TO.N,/DIN*%
X147450000Y-71850000D03*
%TD*%
D11*
%TO.P,C2,1*%
%TO.N,+5V*%
X140000000Y-80862500D03*
%TO.P,C2,2*%
%TO.N,GND*%
X140000000Y-79137500D03*
%TD*%
D10*
%TO.P,LED3,1-VDD,VDD*%
%TO.N,+5V*%
X142550000Y-86350000D03*
%TO.P,LED3,2-DOUT,DO*%
%TO.N,Net-(LED3-DO)*%
X142550000Y-89650000D03*
%TO.P,LED3,3-GND,GND*%
%TO.N,GND*%
X147450000Y-89650000D03*
%TO.P,LED3,4-DIN,DI*%
%TO.N,Net-(LED2-DO)*%
X147450000Y-86350000D03*
%TD*%
D11*
%TO.P,C3,1*%
%TO.N,+5V*%
X140000000Y-88862500D03*
%TO.P,C3,2*%
%TO.N,GND*%
X140000000Y-87137500D03*
%TD*%
D10*
%TO.P,LED4,1-VDD,VDD*%
%TO.N,+5V*%
X142550000Y-93350000D03*
%TO.P,LED4,2-DOUT,DO*%
%TO.N,Net-(LED4-DO)*%
X142550000Y-96650000D03*
%TO.P,LED4,3-GND,GND*%
%TO.N,GND*%
X147450000Y-96650000D03*
%TO.P,LED4,4-DIN,DI*%
%TO.N,Net-(LED3-DO)*%
X147450000Y-93350000D03*
%TD*%
D11*
%TO.P,C4,1*%
%TO.N,+5V*%
X140000000Y-95862500D03*
%TO.P,C4,2*%
%TO.N,GND*%
X140000000Y-94137500D03*
%TD*%
%TO.P,C1,1*%
%TO.N,+5V*%
X140000000Y-72862500D03*
%TO.P,C1,2*%
%TO.N,GND*%
X140000000Y-71137500D03*
%TD*%
%TO.P,C5,1*%
%TO.N,+5V*%
X140000000Y-102862500D03*
%TO.P,C5,2*%
%TO.N,GND*%
X140000000Y-101137500D03*
%TD*%
D10*
%TO.P,LED5,1-VDD,VDD*%
%TO.N,+5V*%
X142500000Y-100500000D03*
%TO.P,LED5,2-DOUT,DO*%
%TO.N,unconnected-(LED5-DO-Pad2-DOUT)*%
X142500000Y-103800000D03*
%TO.P,LED5,3-GND,GND*%
%TO.N,GND*%
X147400000Y-103800000D03*
%TO.P,LED5,4-DIN,DI*%
%TO.N,Net-(LED4-DO)*%
X147400000Y-100500000D03*
%TD*%
D12*
%TO.P,J1,1,Pin_1*%
%TO.N,+5V*%
X145000000Y-65600000D03*
D13*
%TO.P,J1,2,Pin_2*%
%TO.N,GND*%
X145000000Y-63100000D03*
%TO.P,J1,3,Pin_3*%
%TO.N,/DIN*%
X145000000Y-60600000D03*
%TD*%
D14*
%TO.N,GND*%
X143800000Y-61800000D03*
%TO.N,/DIN*%
X147600000Y-70150000D03*
%TD*%
D15*
%TO.N,+5V*%
X140000000Y-96000000D02*
X142500000Y-98500000D01*
X139500000Y-83300000D02*
X142550000Y-86350000D01*
X141012500Y-71850000D02*
X140000000Y-72862500D01*
X142550000Y-79675000D02*
X141362500Y-80862500D01*
X142550000Y-86350000D02*
X142512500Y-86350000D01*
X140000000Y-88862500D02*
X139500000Y-89362500D01*
X139500000Y-89362500D02*
X139500000Y-90500000D01*
X142350000Y-93350000D02*
X142550000Y-93350000D01*
X142550000Y-71850000D02*
X141012500Y-71850000D01*
X140000000Y-72862500D02*
X140000000Y-76300000D01*
X142550000Y-93350000D02*
X142512500Y-93350000D01*
X139500000Y-81362500D02*
X139500000Y-83300000D01*
X139500000Y-90500000D02*
X142350000Y-93350000D01*
X142362500Y-100500000D02*
X140000000Y-102862500D01*
X142550000Y-71850000D02*
X142550000Y-68050000D01*
X142550000Y-78850000D02*
X142550000Y-79675000D01*
X140000000Y-95862500D02*
X140000000Y-96000000D01*
X142550000Y-68050000D02*
X145000000Y-65600000D01*
X142500000Y-100500000D02*
X142362500Y-100500000D01*
X142500000Y-98500000D02*
X142500000Y-100500000D01*
X141362500Y-80862500D02*
X140000000Y-80862500D01*
X142512500Y-93350000D02*
X140000000Y-95862500D01*
X140000000Y-80862500D02*
X139500000Y-81362500D01*
X142512500Y-86350000D02*
X140000000Y-88862500D01*
X140000000Y-76300000D02*
X142550000Y-78850000D01*
D16*
%TO.N,GND*%
X144900000Y-63000000D02*
X145000000Y-63100000D01*
X144900000Y-62900000D02*
X144900000Y-63000000D01*
X143800000Y-61800000D02*
X144900000Y-62900000D01*
%TO.N,/DIN*%
X147450000Y-71850000D02*
X147600000Y-71700000D01*
X147600000Y-71700000D02*
X147600000Y-70150000D01*
%TO.N,Net-(LED1-DO)*%
X142550000Y-75150000D02*
X143750000Y-75150000D01*
X143750000Y-75150000D02*
X147450000Y-78850000D01*
%TO.N,Net-(LED2-DO)*%
X147450000Y-85950000D02*
X147450000Y-86350000D01*
X143650000Y-82150000D02*
X147450000Y-85950000D01*
X142550000Y-82150000D02*
X143650000Y-82150000D01*
%TO.N,Net-(LED3-DO)*%
X143750000Y-89650000D02*
X147450000Y-93350000D01*
X142550000Y-89650000D02*
X143750000Y-89650000D01*
%TO.N,Net-(LED4-DO)*%
X142550000Y-96650000D02*
X143550000Y-96650000D01*
X143550000Y-96650000D02*
X147400000Y-100500000D01*
%TD*%
%TA.AperFunction,Conductor*%
%TO.N,GND*%
G36*
X150506922Y-49001280D02*
G01*
X150597266Y-49011459D01*
X150624331Y-49017636D01*
X150703540Y-49045352D01*
X150728553Y-49057398D01*
X150799606Y-49102043D01*
X150821313Y-49119355D01*
X150880644Y-49178686D01*
X150897957Y-49200395D01*
X150942600Y-49271444D01*
X150954648Y-49296462D01*
X150982362Y-49375666D01*
X150988540Y-49402735D01*
X150998720Y-49493076D01*
X150999500Y-49506961D01*
X150999500Y-110493038D01*
X150998720Y-110506922D01*
X150998720Y-110506923D01*
X150988540Y-110597264D01*
X150982362Y-110624333D01*
X150954648Y-110703537D01*
X150942600Y-110728555D01*
X150897957Y-110799604D01*
X150880644Y-110821313D01*
X150821313Y-110880644D01*
X150799604Y-110897957D01*
X150728555Y-110942600D01*
X150703537Y-110954648D01*
X150624333Y-110982362D01*
X150597264Y-110988540D01*
X150517075Y-110997576D01*
X150506921Y-110998720D01*
X150493038Y-110999500D01*
X138006962Y-110999500D01*
X137993078Y-110998720D01*
X137980553Y-110997308D01*
X137902735Y-110988540D01*
X137875666Y-110982362D01*
X137796462Y-110954648D01*
X137771444Y-110942600D01*
X137700395Y-110897957D01*
X137678686Y-110880644D01*
X137619355Y-110821313D01*
X137602042Y-110799604D01*
X137557399Y-110728555D01*
X137545351Y-110703537D01*
X137517637Y-110624333D01*
X137511459Y-110597263D01*
X137501280Y-110506922D01*
X137500500Y-110493038D01*
X137500500Y-107878711D01*
X142649500Y-107878711D01*
X142649500Y-108121288D01*
X142681161Y-108361785D01*
X142743947Y-108596104D01*
X142836773Y-108820205D01*
X142836776Y-108820212D01*
X142958064Y-109030289D01*
X142958066Y-109030292D01*
X142958067Y-109030293D01*
X143105733Y-109222736D01*
X143105739Y-109222743D01*
X143277256Y-109394260D01*
X143277262Y-109394265D01*
X143469711Y-109541936D01*
X143679788Y-109663224D01*
X143903900Y-109756054D01*
X144138211Y-109818838D01*
X144318586Y-109842584D01*
X144378711Y-109850500D01*
X144378712Y-109850500D01*
X144621289Y-109850500D01*
X144669388Y-109844167D01*
X144861789Y-109818838D01*
X145096100Y-109756054D01*
X145320212Y-109663224D01*
X145530289Y-109541936D01*
X145722738Y-109394265D01*
X145894265Y-109222738D01*
X146041936Y-109030289D01*
X146163224Y-108820212D01*
X146256054Y-108596100D01*
X146318838Y-108361789D01*
X146350500Y-108121288D01*
X146350500Y-107878712D01*
X146318838Y-107638211D01*
X146256054Y-107403900D01*
X146163224Y-107179788D01*
X146041936Y-106969711D01*
X145894265Y-106777262D01*
X145894260Y-106777256D01*
X145722743Y-106605739D01*
X145722736Y-106605733D01*
X145530293Y-106458067D01*
X145530292Y-106458066D01*
X145530289Y-106458064D01*
X145320212Y-106336776D01*
X145320205Y-106336773D01*
X145096104Y-106243947D01*
X144861785Y-106181161D01*
X144621289Y-106149500D01*
X144621288Y-106149500D01*
X144378712Y-106149500D01*
X144378711Y-106149500D01*
X144138214Y-106181161D01*
X143903895Y-106243947D01*
X143679794Y-106336773D01*
X143679785Y-106336777D01*
X143469706Y-106458067D01*
X143277263Y-106605733D01*
X143277256Y-106605739D01*
X143105739Y-106777256D01*
X143105733Y-106777263D01*
X142958067Y-106969706D01*
X142836777Y-107179785D01*
X142836773Y-107179794D01*
X142743947Y-107403895D01*
X142681161Y-107638214D01*
X142649500Y-107878711D01*
X137500500Y-107878711D01*
X137500500Y-100788345D01*
X139025000Y-100788345D01*
X139025000Y-100887500D01*
X139750000Y-100887500D01*
X139750000Y-100100000D01*
X139713361Y-100100000D01*
X139713343Y-100100001D01*
X139612347Y-100110319D01*
X139448699Y-100164546D01*
X139448688Y-100164551D01*
X139301965Y-100255052D01*
X139301961Y-100255055D01*
X139180055Y-100376961D01*
X139180052Y-100376965D01*
X139089551Y-100523688D01*
X139089546Y-100523699D01*
X139035319Y-100687347D01*
X139025000Y-100788345D01*
X137500500Y-100788345D01*
X137500500Y-93788345D01*
X139025000Y-93788345D01*
X139025000Y-93887500D01*
X139750000Y-93887500D01*
X139750000Y-93100000D01*
X139713361Y-93100000D01*
X139713343Y-93100001D01*
X139612347Y-93110319D01*
X139448699Y-93164546D01*
X139448688Y-93164551D01*
X139301965Y-93255052D01*
X139301961Y-93255055D01*
X139180055Y-93376961D01*
X139180052Y-93376965D01*
X139089551Y-93523688D01*
X139089546Y-93523699D01*
X139035319Y-93687347D01*
X139025000Y-93788345D01*
X137500500Y-93788345D01*
X137500500Y-86788345D01*
X139025000Y-86788345D01*
X139025000Y-86887500D01*
X139750000Y-86887500D01*
X139750000Y-86100000D01*
X139713361Y-86100000D01*
X139713343Y-86100001D01*
X139612347Y-86110319D01*
X139448699Y-86164546D01*
X139448688Y-86164551D01*
X139301965Y-86255052D01*
X139301961Y-86255055D01*
X139180055Y-86376961D01*
X139180052Y-86376965D01*
X139089551Y-86523688D01*
X139089546Y-86523699D01*
X139035319Y-86687347D01*
X139025000Y-86788345D01*
X137500500Y-86788345D01*
X137500500Y-83373920D01*
X138749499Y-83373920D01*
X138778340Y-83518907D01*
X138778343Y-83518917D01*
X138834914Y-83655492D01*
X138867812Y-83704727D01*
X138867813Y-83704730D01*
X138917046Y-83778414D01*
X138917052Y-83778421D01*
X141263181Y-86124548D01*
X141277884Y-86151475D01*
X141294477Y-86177294D01*
X141295368Y-86183494D01*
X141296666Y-86185871D01*
X141299500Y-86212229D01*
X141299500Y-86450269D01*
X141279815Y-86517308D01*
X141263181Y-86537951D01*
X141143943Y-86657188D01*
X141082620Y-86690672D01*
X141012928Y-86685688D01*
X140956995Y-86643816D01*
X140938556Y-86608509D01*
X140910454Y-86523701D01*
X140910448Y-86523688D01*
X140819947Y-86376965D01*
X140819944Y-86376961D01*
X140698038Y-86255055D01*
X140698034Y-86255052D01*
X140551311Y-86164551D01*
X140551300Y-86164546D01*
X140387652Y-86110319D01*
X140286654Y-86100000D01*
X140250000Y-86100000D01*
X140250000Y-87013500D01*
X140230315Y-87080539D01*
X140177511Y-87126294D01*
X140126000Y-87137500D01*
X140000000Y-87137500D01*
X140000000Y-87263500D01*
X139980315Y-87330539D01*
X139927511Y-87376294D01*
X139876000Y-87387500D01*
X139025001Y-87387500D01*
X139025001Y-87486654D01*
X139035319Y-87587652D01*
X139089546Y-87751300D01*
X139089551Y-87751311D01*
X139180052Y-87898034D01*
X139180055Y-87898038D01*
X139193982Y-87911965D01*
X139227467Y-87973288D01*
X139222483Y-88042980D01*
X139193984Y-88087325D01*
X139179661Y-88101648D01*
X139089093Y-88248481D01*
X139089092Y-88248484D01*
X139034826Y-88412247D01*
X139034826Y-88412248D01*
X139034825Y-88412248D01*
X139024500Y-88513315D01*
X139024500Y-88725268D01*
X139017174Y-88750216D01*
X139013655Y-88775983D01*
X139006603Y-88786215D01*
X139004815Y-88792307D01*
X138994783Y-88805808D01*
X138991616Y-88809514D01*
X138917048Y-88884084D01*
X138882081Y-88936417D01*
X138878021Y-88942492D01*
X138878016Y-88942499D01*
X138834913Y-89007008D01*
X138778343Y-89143582D01*
X138778340Y-89143592D01*
X138749500Y-89288579D01*
X138749500Y-89288582D01*
X138749500Y-90573918D01*
X138749500Y-90573920D01*
X138749499Y-90573920D01*
X138778340Y-90718907D01*
X138778343Y-90718917D01*
X138834914Y-90855492D01*
X138867812Y-90904727D01*
X138867813Y-90904730D01*
X138917046Y-90978414D01*
X138917052Y-90978421D01*
X141263181Y-93324548D01*
X141277884Y-93351475D01*
X141294477Y-93377294D01*
X141295368Y-93383494D01*
X141296666Y-93385871D01*
X141299500Y-93412229D01*
X141299500Y-93450269D01*
X141279815Y-93517308D01*
X141263181Y-93537951D01*
X141143943Y-93657188D01*
X141082620Y-93690672D01*
X141012928Y-93685688D01*
X140956995Y-93643816D01*
X140938556Y-93608509D01*
X140910454Y-93523701D01*
X140910448Y-93523688D01*
X140819947Y-93376965D01*
X140819944Y-93376961D01*
X140698038Y-93255055D01*
X140698034Y-93255052D01*
X140551311Y-93164551D01*
X140551300Y-93164546D01*
X140387652Y-93110319D01*
X140286654Y-93100000D01*
X140250000Y-93100000D01*
X140250000Y-94013500D01*
X140230315Y-94080539D01*
X140177511Y-94126294D01*
X140126000Y-94137500D01*
X140000000Y-94137500D01*
X140000000Y-94263500D01*
X139980315Y-94330539D01*
X139927511Y-94376294D01*
X139876000Y-94387500D01*
X139025001Y-94387500D01*
X139025001Y-94486654D01*
X139035319Y-94587652D01*
X139089546Y-94751300D01*
X139089551Y-94751311D01*
X139180052Y-94898034D01*
X139180055Y-94898038D01*
X139193982Y-94911965D01*
X139227467Y-94973288D01*
X139222483Y-95042980D01*
X139193984Y-95087325D01*
X139179661Y-95101648D01*
X139089093Y-95248481D01*
X139089092Y-95248484D01*
X139034826Y-95412247D01*
X139034826Y-95412248D01*
X139034825Y-95412248D01*
X139024500Y-95513315D01*
X139024500Y-96211669D01*
X139024501Y-96211687D01*
X139034825Y-96312752D01*
X139063737Y-96400000D01*
X139089092Y-96476516D01*
X139179660Y-96623350D01*
X139301650Y-96745340D01*
X139448484Y-96835908D01*
X139612247Y-96890174D01*
X139713323Y-96900500D01*
X139787768Y-96900499D01*
X139854807Y-96920183D01*
X139875450Y-96936818D01*
X141713181Y-98774549D01*
X141746666Y-98835872D01*
X141749500Y-98862230D01*
X141749500Y-99433023D01*
X141729815Y-99500062D01*
X141677011Y-99545817D01*
X141649865Y-99553266D01*
X141650068Y-99554124D01*
X141642520Y-99555907D01*
X141507671Y-99606202D01*
X141507664Y-99606206D01*
X141392455Y-99692452D01*
X141392452Y-99692455D01*
X141306206Y-99807664D01*
X141306202Y-99807671D01*
X141255908Y-99942517D01*
X141249501Y-100002116D01*
X141249501Y-100002123D01*
X141249500Y-100002135D01*
X141249500Y-100500269D01*
X141240855Y-100529706D01*
X141234332Y-100559697D01*
X141230576Y-100564713D01*
X141229815Y-100567308D01*
X141213181Y-100587951D01*
X141143943Y-100657188D01*
X141082619Y-100690672D01*
X141012928Y-100685687D01*
X140956994Y-100643816D01*
X140938556Y-100608509D01*
X140910454Y-100523701D01*
X140910448Y-100523688D01*
X140819947Y-100376965D01*
X140819944Y-100376961D01*
X140698038Y-100255055D01*
X140698034Y-100255052D01*
X140551311Y-100164551D01*
X140551300Y-100164546D01*
X140387652Y-100110319D01*
X140286654Y-100100000D01*
X140250000Y-100100000D01*
X140250000Y-101013500D01*
X140230315Y-101080539D01*
X140177511Y-101126294D01*
X140126000Y-101137500D01*
X140000000Y-101137500D01*
X140000000Y-101263500D01*
X139980315Y-101330539D01*
X139927511Y-101376294D01*
X139876000Y-101387500D01*
X139025001Y-101387500D01*
X139025001Y-101486654D01*
X139035319Y-101587652D01*
X139089546Y-101751300D01*
X139089551Y-101751311D01*
X139180052Y-101898034D01*
X139180055Y-101898038D01*
X139193982Y-101911965D01*
X139227467Y-101973288D01*
X139222483Y-102042980D01*
X139193984Y-102087325D01*
X139179661Y-102101648D01*
X139089093Y-102248481D01*
X139089092Y-102248484D01*
X139034826Y-102412247D01*
X139034826Y-102412248D01*
X139034825Y-102412248D01*
X139024500Y-102513315D01*
X139024500Y-103211669D01*
X139024501Y-103211687D01*
X139034825Y-103312752D01*
X139071109Y-103422249D01*
X139089092Y-103476516D01*
X139179660Y-103623350D01*
X139301650Y-103745340D01*
X139448484Y-103835908D01*
X139612247Y-103890174D01*
X139713323Y-103900500D01*
X140286676Y-103900499D01*
X140286684Y-103900498D01*
X140286687Y-103900498D01*
X140342030Y-103894844D01*
X140387753Y-103890174D01*
X140551516Y-103835908D01*
X140698350Y-103745340D01*
X140820340Y-103623350D01*
X140910908Y-103476516D01*
X140965174Y-103312753D01*
X140966259Y-103302135D01*
X141249500Y-103302135D01*
X141249500Y-104297870D01*
X141249501Y-104297876D01*
X141255908Y-104357483D01*
X141306202Y-104492328D01*
X141306206Y-104492335D01*
X141392452Y-104607544D01*
X141392455Y-104607547D01*
X141507664Y-104693793D01*
X141507671Y-104693797D01*
X141642517Y-104744091D01*
X141642516Y-104744091D01*
X141649444Y-104744835D01*
X141702127Y-104750500D01*
X143297872Y-104750499D01*
X143357483Y-104744091D01*
X143492331Y-104693796D01*
X143607546Y-104607546D01*
X143693796Y-104492331D01*
X143744091Y-104357483D01*
X143750500Y-104297873D01*
X143750500Y-104297844D01*
X146150000Y-104297844D01*
X146156401Y-104357372D01*
X146156403Y-104357379D01*
X146206645Y-104492086D01*
X146206649Y-104492093D01*
X146292809Y-104607187D01*
X146292812Y-104607190D01*
X146407906Y-104693350D01*
X146407913Y-104693354D01*
X146542620Y-104743596D01*
X146542627Y-104743598D01*
X146602155Y-104749999D01*
X146602172Y-104750000D01*
X147150000Y-104750000D01*
X147650000Y-104750000D01*
X148197828Y-104750000D01*
X148197844Y-104749999D01*
X148257372Y-104743598D01*
X148257379Y-104743596D01*
X148392086Y-104693354D01*
X148392093Y-104693350D01*
X148507187Y-104607190D01*
X148507190Y-104607187D01*
X148593350Y-104492093D01*
X148593354Y-104492086D01*
X148643596Y-104357379D01*
X148643598Y-104357372D01*
X148649999Y-104297844D01*
X148650000Y-104297827D01*
X148650000Y-104050000D01*
X147650000Y-104050000D01*
X147650000Y-104750000D01*
X147150000Y-104750000D01*
X147150000Y-104050000D01*
X146150000Y-104050000D01*
X146150000Y-104297844D01*
X143750500Y-104297844D01*
X143750499Y-103745340D01*
X143750499Y-103302155D01*
X146150000Y-103302155D01*
X146150000Y-103550000D01*
X147150000Y-103550000D01*
X147650000Y-103550000D01*
X148650000Y-103550000D01*
X148650000Y-103302172D01*
X148649999Y-103302155D01*
X148643598Y-103242627D01*
X148643596Y-103242620D01*
X148593354Y-103107913D01*
X148593350Y-103107906D01*
X148507190Y-102992812D01*
X148507187Y-102992809D01*
X148392093Y-102906649D01*
X148392086Y-102906645D01*
X148257379Y-102856403D01*
X148257372Y-102856401D01*
X148197844Y-102850000D01*
X147650000Y-102850000D01*
X147650000Y-103550000D01*
X147150000Y-103550000D01*
X147150000Y-102850000D01*
X146602155Y-102850000D01*
X146542627Y-102856401D01*
X146542620Y-102856403D01*
X146407913Y-102906645D01*
X146407906Y-102906649D01*
X146292812Y-102992809D01*
X146292809Y-102992812D01*
X146206649Y-103107906D01*
X146206645Y-103107913D01*
X146156403Y-103242620D01*
X146156401Y-103242627D01*
X146150000Y-103302155D01*
X143750499Y-103302155D01*
X143750499Y-103302129D01*
X143750498Y-103302123D01*
X143750497Y-103302116D01*
X143744091Y-103242517D01*
X143732592Y-103211687D01*
X143693797Y-103107671D01*
X143693793Y-103107664D01*
X143607547Y-102992455D01*
X143607544Y-102992452D01*
X143492335Y-102906206D01*
X143492328Y-102906202D01*
X143357482Y-102855908D01*
X143357483Y-102855908D01*
X143297883Y-102849501D01*
X143297881Y-102849500D01*
X143297873Y-102849500D01*
X143297864Y-102849500D01*
X141702129Y-102849500D01*
X141702123Y-102849501D01*
X141642516Y-102855908D01*
X141507671Y-102906202D01*
X141507664Y-102906206D01*
X141392455Y-102992452D01*
X141392452Y-102992455D01*
X141306206Y-103107664D01*
X141306202Y-103107671D01*
X141255908Y-103242517D01*
X141249501Y-103302116D01*
X141249501Y-103302123D01*
X141249500Y-103302135D01*
X140966259Y-103302135D01*
X140975500Y-103211677D01*
X140975499Y-102999729D01*
X140995183Y-102932690D01*
X141011813Y-102912053D01*
X142437048Y-101486817D01*
X142498371Y-101453333D01*
X142524729Y-101450499D01*
X143297871Y-101450499D01*
X143297872Y-101450499D01*
X143357483Y-101444091D01*
X143492331Y-101393796D01*
X143607546Y-101307546D01*
X143693796Y-101192331D01*
X143744091Y-101057483D01*
X143750500Y-100997873D01*
X143750499Y-100002128D01*
X143744091Y-99942517D01*
X143693796Y-99807669D01*
X143693795Y-99807668D01*
X143693793Y-99807664D01*
X143607547Y-99692455D01*
X143607544Y-99692452D01*
X143492335Y-99606206D01*
X143492328Y-99606202D01*
X143357482Y-99555908D01*
X143349938Y-99554126D01*
X143350474Y-99551853D01*
X143296688Y-99529571D01*
X143256843Y-99472177D01*
X143250500Y-99433024D01*
X143250500Y-98426079D01*
X143221659Y-98281092D01*
X143221658Y-98281091D01*
X143221658Y-98281087D01*
X143165084Y-98144505D01*
X143132186Y-98095270D01*
X143132185Y-98095268D01*
X143082956Y-98021589D01*
X143082952Y-98021584D01*
X142873548Y-97812180D01*
X142840063Y-97750857D01*
X142845047Y-97681165D01*
X142886919Y-97625232D01*
X142952383Y-97600815D01*
X142961229Y-97600499D01*
X143347871Y-97600499D01*
X143347872Y-97600499D01*
X143407483Y-97594091D01*
X143505710Y-97557454D01*
X143575398Y-97552471D01*
X143636718Y-97585953D01*
X143636721Y-97585956D01*
X146113181Y-100062416D01*
X146146666Y-100123739D01*
X146149500Y-100150097D01*
X146149500Y-100997870D01*
X146149501Y-100997876D01*
X146155908Y-101057483D01*
X146206202Y-101192328D01*
X146206206Y-101192335D01*
X146292452Y-101307544D01*
X146292455Y-101307547D01*
X146407664Y-101393793D01*
X146407671Y-101393797D01*
X146542517Y-101444091D01*
X146542516Y-101444091D01*
X146549444Y-101444835D01*
X146602127Y-101450500D01*
X148197872Y-101450499D01*
X148257483Y-101444091D01*
X148392331Y-101393796D01*
X148507546Y-101307546D01*
X148593796Y-101192331D01*
X148644091Y-101057483D01*
X148650500Y-100997873D01*
X148650499Y-100002128D01*
X148644091Y-99942517D01*
X148593796Y-99807669D01*
X148593795Y-99807668D01*
X148593793Y-99807664D01*
X148507547Y-99692455D01*
X148507544Y-99692452D01*
X148392335Y-99606206D01*
X148392328Y-99606202D01*
X148257482Y-99555908D01*
X148257483Y-99555908D01*
X148197883Y-99549501D01*
X148197881Y-99549500D01*
X148197873Y-99549500D01*
X148197865Y-99549500D01*
X147350097Y-99549500D01*
X147283058Y-99529815D01*
X147262416Y-99513181D01*
X144897079Y-97147844D01*
X146200000Y-97147844D01*
X146206401Y-97207372D01*
X146206403Y-97207379D01*
X146256645Y-97342086D01*
X146256649Y-97342093D01*
X146342809Y-97457187D01*
X146342812Y-97457190D01*
X146457906Y-97543350D01*
X146457913Y-97543354D01*
X146592620Y-97593596D01*
X146592627Y-97593598D01*
X146652155Y-97599999D01*
X146652172Y-97600000D01*
X147200000Y-97600000D01*
X147700000Y-97600000D01*
X148247828Y-97600000D01*
X148247844Y-97599999D01*
X148307372Y-97593598D01*
X148307379Y-97593596D01*
X148442086Y-97543354D01*
X148442093Y-97543350D01*
X148557187Y-97457190D01*
X148557190Y-97457187D01*
X148643350Y-97342093D01*
X148643354Y-97342086D01*
X148693596Y-97207379D01*
X148693598Y-97207372D01*
X148699999Y-97147844D01*
X148700000Y-97147827D01*
X148700000Y-96900000D01*
X147700000Y-96900000D01*
X147700000Y-97600000D01*
X147200000Y-97600000D01*
X147200000Y-96900000D01*
X146200000Y-96900000D01*
X146200000Y-97147844D01*
X144897079Y-97147844D01*
X144037589Y-96288354D01*
X144030520Y-96281285D01*
X144030520Y-96281284D01*
X143918716Y-96169480D01*
X143918715Y-96169479D01*
X143918712Y-96169477D01*
X143888709Y-96152155D01*
X146200000Y-96152155D01*
X146200000Y-96400000D01*
X147200000Y-96400000D01*
X147700000Y-96400000D01*
X148700000Y-96400000D01*
X148700000Y-96152172D01*
X148699999Y-96152155D01*
X148693598Y-96092627D01*
X148693596Y-96092620D01*
X148643354Y-95957913D01*
X148643350Y-95957906D01*
X148557190Y-95842812D01*
X148557187Y-95842809D01*
X148442093Y-95756649D01*
X148442086Y-95756645D01*
X148307379Y-95706403D01*
X148307372Y-95706401D01*
X148247844Y-95700000D01*
X147700000Y-95700000D01*
X147700000Y-96400000D01*
X147200000Y-96400000D01*
X147200000Y-95700000D01*
X146652155Y-95700000D01*
X146592627Y-95706401D01*
X146592620Y-95706403D01*
X146457913Y-95756645D01*
X146457906Y-95756649D01*
X146342812Y-95842809D01*
X146342809Y-95842812D01*
X146256649Y-95957906D01*
X146256645Y-95957913D01*
X146206403Y-96092620D01*
X146206401Y-96092627D01*
X146200000Y-96152155D01*
X143888709Y-96152155D01*
X143835077Y-96121191D01*
X143786862Y-96070624D01*
X143780895Y-96057137D01*
X143743797Y-95957671D01*
X143743793Y-95957664D01*
X143657547Y-95842455D01*
X143657544Y-95842452D01*
X143542335Y-95756206D01*
X143542328Y-95756202D01*
X143407482Y-95705908D01*
X143407483Y-95705908D01*
X143347883Y-95699501D01*
X143347881Y-95699500D01*
X143347873Y-95699500D01*
X143347864Y-95699500D01*
X141752129Y-95699500D01*
X141752123Y-95699501D01*
X141692516Y-95705908D01*
X141557671Y-95756202D01*
X141557664Y-95756206D01*
X141442455Y-95842452D01*
X141442452Y-95842455D01*
X141356206Y-95957664D01*
X141356203Y-95957669D01*
X141332038Y-96022460D01*
X141290166Y-96078393D01*
X141224702Y-96102810D01*
X141156429Y-96087958D01*
X141128175Y-96066807D01*
X141080298Y-96018930D01*
X141046813Y-95957607D01*
X141051797Y-95887915D01*
X141080298Y-95843568D01*
X142587048Y-94336818D01*
X142648371Y-94303333D01*
X142674729Y-94300499D01*
X143347871Y-94300499D01*
X143347872Y-94300499D01*
X143407483Y-94294091D01*
X143542331Y-94243796D01*
X143657546Y-94157546D01*
X143743796Y-94042331D01*
X143794091Y-93907483D01*
X143800500Y-93847873D01*
X143800499Y-92852128D01*
X143794091Y-92792517D01*
X143743796Y-92657669D01*
X143743795Y-92657668D01*
X143743793Y-92657664D01*
X143657547Y-92542455D01*
X143657544Y-92542452D01*
X143542335Y-92456206D01*
X143542328Y-92456202D01*
X143407482Y-92405908D01*
X143407483Y-92405908D01*
X143347883Y-92399501D01*
X143347881Y-92399500D01*
X143347873Y-92399500D01*
X143347865Y-92399500D01*
X142512229Y-92399500D01*
X142445190Y-92379815D01*
X142424548Y-92363181D01*
X140286819Y-90225451D01*
X140272115Y-90198523D01*
X140255523Y-90172705D01*
X140254631Y-90166504D01*
X140253334Y-90164128D01*
X140250500Y-90137770D01*
X140250500Y-90016173D01*
X140270185Y-89949134D01*
X140322989Y-89903379D01*
X140361899Y-89892815D01*
X140365749Y-89892421D01*
X140387753Y-89890174D01*
X140551516Y-89835908D01*
X140698350Y-89745340D01*
X140820340Y-89623350D01*
X140910908Y-89476516D01*
X140965174Y-89312753D01*
X140975500Y-89211677D01*
X140975500Y-89152135D01*
X141299500Y-89152135D01*
X141299500Y-90147870D01*
X141299501Y-90147876D01*
X141305908Y-90207483D01*
X141356202Y-90342328D01*
X141356206Y-90342335D01*
X141442452Y-90457544D01*
X141442455Y-90457547D01*
X141557664Y-90543793D01*
X141557671Y-90543797D01*
X141692517Y-90594091D01*
X141692516Y-90594091D01*
X141699444Y-90594835D01*
X141752127Y-90600500D01*
X143347872Y-90600499D01*
X143407483Y-90594091D01*
X143542331Y-90543796D01*
X143600563Y-90500203D01*
X143666025Y-90475786D01*
X143734298Y-90490637D01*
X143762554Y-90511789D01*
X146163181Y-92912416D01*
X146196666Y-92973739D01*
X146199500Y-93000097D01*
X146199500Y-93847870D01*
X146199501Y-93847876D01*
X146205908Y-93907483D01*
X146256202Y-94042328D01*
X146256206Y-94042335D01*
X146342452Y-94157544D01*
X146342455Y-94157547D01*
X146457664Y-94243793D01*
X146457671Y-94243797D01*
X146592517Y-94294091D01*
X146592516Y-94294091D01*
X146599444Y-94294835D01*
X146652127Y-94300500D01*
X148247872Y-94300499D01*
X148307483Y-94294091D01*
X148442331Y-94243796D01*
X148557546Y-94157546D01*
X148643796Y-94042331D01*
X148694091Y-93907483D01*
X148700500Y-93847873D01*
X148700499Y-92852128D01*
X148694091Y-92792517D01*
X148643796Y-92657669D01*
X148643795Y-92657668D01*
X148643793Y-92657664D01*
X148557547Y-92542455D01*
X148557544Y-92542452D01*
X148442335Y-92456206D01*
X148442328Y-92456202D01*
X148307482Y-92405908D01*
X148307483Y-92405908D01*
X148247883Y-92399501D01*
X148247881Y-92399500D01*
X148247873Y-92399500D01*
X148247865Y-92399500D01*
X147400097Y-92399500D01*
X147333058Y-92379815D01*
X147312416Y-92363181D01*
X145097079Y-90147844D01*
X146200000Y-90147844D01*
X146206401Y-90207372D01*
X146206403Y-90207379D01*
X146256645Y-90342086D01*
X146256649Y-90342093D01*
X146342809Y-90457187D01*
X146342812Y-90457190D01*
X146457906Y-90543350D01*
X146457913Y-90543354D01*
X146592620Y-90593596D01*
X146592627Y-90593598D01*
X146652155Y-90599999D01*
X146652172Y-90600000D01*
X147200000Y-90600000D01*
X147700000Y-90600000D01*
X148247828Y-90600000D01*
X148247844Y-90599999D01*
X148307372Y-90593598D01*
X148307379Y-90593596D01*
X148442086Y-90543354D01*
X148442093Y-90543350D01*
X148557187Y-90457190D01*
X148557190Y-90457187D01*
X148643350Y-90342093D01*
X148643354Y-90342086D01*
X148693596Y-90207379D01*
X148693598Y-90207372D01*
X148699999Y-90147844D01*
X148700000Y-90147827D01*
X148700000Y-89900000D01*
X147700000Y-89900000D01*
X147700000Y-90600000D01*
X147200000Y-90600000D01*
X147200000Y-89900000D01*
X146200000Y-89900000D01*
X146200000Y-90147844D01*
X145097079Y-90147844D01*
X144237589Y-89288354D01*
X144230520Y-89281285D01*
X144230520Y-89281284D01*
X144118716Y-89169480D01*
X144088708Y-89152155D01*
X146200000Y-89152155D01*
X146200000Y-89400000D01*
X147200000Y-89400000D01*
X147700000Y-89400000D01*
X148700000Y-89400000D01*
X148700000Y-89152172D01*
X148699999Y-89152155D01*
X148693598Y-89092627D01*
X148693596Y-89092620D01*
X148643354Y-88957913D01*
X148643350Y-88957906D01*
X148557190Y-88842812D01*
X148557187Y-88842809D01*
X148442093Y-88756649D01*
X148442086Y-88756645D01*
X148307379Y-88706403D01*
X148307372Y-88706401D01*
X148247844Y-88700000D01*
X147700000Y-88700000D01*
X147700000Y-89400000D01*
X147200000Y-89400000D01*
X147200000Y-88700000D01*
X146652155Y-88700000D01*
X146592627Y-88706401D01*
X146592620Y-88706403D01*
X146457913Y-88756645D01*
X146457906Y-88756649D01*
X146342812Y-88842809D01*
X146342809Y-88842812D01*
X146256649Y-88957906D01*
X146256645Y-88957913D01*
X146206403Y-89092620D01*
X146206401Y-89092627D01*
X146200000Y-89152155D01*
X144088708Y-89152155D01*
X144031904Y-89119360D01*
X144031904Y-89119359D01*
X144031900Y-89119358D01*
X143981785Y-89090423D01*
X143834128Y-89050857D01*
X143774470Y-89014494D01*
X143750042Y-88974417D01*
X143743796Y-88957669D01*
X143743794Y-88957666D01*
X143743793Y-88957664D01*
X143657547Y-88842455D01*
X143657544Y-88842452D01*
X143542335Y-88756206D01*
X143542328Y-88756202D01*
X143407482Y-88705908D01*
X143407483Y-88705908D01*
X143347883Y-88699501D01*
X143347881Y-88699500D01*
X143347873Y-88699500D01*
X143347864Y-88699500D01*
X141752129Y-88699500D01*
X141752123Y-88699501D01*
X141692516Y-88705908D01*
X141557671Y-88756202D01*
X141557664Y-88756206D01*
X141442455Y-88842452D01*
X141442452Y-88842455D01*
X141356206Y-88957664D01*
X141356202Y-88957671D01*
X141305908Y-89092517D01*
X141299501Y-89152116D01*
X141299500Y-89152135D01*
X140975500Y-89152135D01*
X140975499Y-88999729D01*
X140995183Y-88932690D01*
X141011813Y-88912053D01*
X142587048Y-87336817D01*
X142648371Y-87303333D01*
X142674729Y-87300499D01*
X143347871Y-87300499D01*
X143347872Y-87300499D01*
X143407483Y-87294091D01*
X143542331Y-87243796D01*
X143657546Y-87157546D01*
X143743796Y-87042331D01*
X143794091Y-86907483D01*
X143800500Y-86847873D01*
X143800499Y-85852128D01*
X143794091Y-85792517D01*
X143757455Y-85694292D01*
X143743797Y-85657671D01*
X143743793Y-85657664D01*
X143657547Y-85542455D01*
X143657544Y-85542452D01*
X143542335Y-85456206D01*
X143542328Y-85456202D01*
X143407482Y-85405908D01*
X143407483Y-85405908D01*
X143347883Y-85399501D01*
X143347881Y-85399500D01*
X143347873Y-85399500D01*
X143347865Y-85399500D01*
X142712229Y-85399500D01*
X142645190Y-85379815D01*
X142624548Y-85363181D01*
X140286819Y-83025451D01*
X140253334Y-82964128D01*
X140250500Y-82937770D01*
X140250500Y-82016173D01*
X140270185Y-81949134D01*
X140322989Y-81903379D01*
X140361899Y-81892815D01*
X140365749Y-81892421D01*
X140387753Y-81890174D01*
X140551516Y-81835908D01*
X140698350Y-81745340D01*
X140794371Y-81649319D01*
X140855694Y-81615834D01*
X140882052Y-81613000D01*
X141175500Y-81613000D01*
X141242539Y-81632685D01*
X141288294Y-81685489D01*
X141299500Y-81737000D01*
X141299500Y-82647870D01*
X141299501Y-82647876D01*
X141305908Y-82707483D01*
X141356202Y-82842328D01*
X141356206Y-82842335D01*
X141442452Y-82957544D01*
X141442455Y-82957547D01*
X141557664Y-83043793D01*
X141557671Y-83043797D01*
X141692517Y-83094091D01*
X141692516Y-83094091D01*
X141699444Y-83094835D01*
X141752127Y-83100500D01*
X143347872Y-83100499D01*
X143407483Y-83094091D01*
X143542331Y-83043796D01*
X143543373Y-83043016D01*
X143544592Y-83042561D01*
X143550114Y-83039546D01*
X143550547Y-83040339D01*
X143608837Y-83018598D01*
X143677110Y-83033449D01*
X143705366Y-83054601D01*
X146214043Y-85563278D01*
X146247528Y-85624601D01*
X146242544Y-85694292D01*
X146205908Y-85792517D01*
X146199501Y-85852116D01*
X146199501Y-85852123D01*
X146199500Y-85852135D01*
X146199500Y-86847870D01*
X146199501Y-86847876D01*
X146205908Y-86907483D01*
X146256202Y-87042328D01*
X146256206Y-87042335D01*
X146342452Y-87157544D01*
X146342455Y-87157547D01*
X146457664Y-87243793D01*
X146457671Y-87243797D01*
X146592517Y-87294091D01*
X146592516Y-87294091D01*
X146599444Y-87294835D01*
X146652127Y-87300500D01*
X148247872Y-87300499D01*
X148307483Y-87294091D01*
X148442331Y-87243796D01*
X148557546Y-87157546D01*
X148643796Y-87042331D01*
X148694091Y-86907483D01*
X148700500Y-86847873D01*
X148700499Y-85852128D01*
X148694091Y-85792517D01*
X148657455Y-85694292D01*
X148643797Y-85657671D01*
X148643793Y-85657664D01*
X148557547Y-85542455D01*
X148557544Y-85542452D01*
X148442335Y-85456206D01*
X148442328Y-85456202D01*
X148307482Y-85405908D01*
X148307483Y-85405908D01*
X148247883Y-85399501D01*
X148247881Y-85399500D01*
X148247873Y-85399500D01*
X148247865Y-85399500D01*
X147800098Y-85399500D01*
X147733059Y-85379815D01*
X147712417Y-85363181D01*
X147558659Y-85209423D01*
X144997079Y-82647844D01*
X146200000Y-82647844D01*
X146206401Y-82707372D01*
X146206403Y-82707379D01*
X146256645Y-82842086D01*
X146256649Y-82842093D01*
X146342809Y-82957187D01*
X146342812Y-82957190D01*
X146457906Y-83043350D01*
X146457913Y-83043354D01*
X146592620Y-83093596D01*
X146592627Y-83093598D01*
X146652155Y-83099999D01*
X146652172Y-83100000D01*
X147200000Y-83100000D01*
X147700000Y-83100000D01*
X148247828Y-83100000D01*
X148247844Y-83099999D01*
X148307372Y-83093598D01*
X148307379Y-83093596D01*
X148442086Y-83043354D01*
X148442093Y-83043350D01*
X148557187Y-82957190D01*
X148557190Y-82957187D01*
X148643350Y-82842093D01*
X148643354Y-82842086D01*
X148693596Y-82707379D01*
X148693598Y-82707372D01*
X148699999Y-82647844D01*
X148700000Y-82647827D01*
X148700000Y-82400000D01*
X147700000Y-82400000D01*
X147700000Y-83100000D01*
X147200000Y-83100000D01*
X147200000Y-82400000D01*
X146200000Y-82400000D01*
X146200000Y-82647844D01*
X144997079Y-82647844D01*
X144130521Y-81781286D01*
X144130520Y-81781284D01*
X144018716Y-81669480D01*
X143988708Y-81652155D01*
X146200000Y-81652155D01*
X146200000Y-81900000D01*
X147200000Y-81900000D01*
X147700000Y-81900000D01*
X148700000Y-81900000D01*
X148700000Y-81652172D01*
X148699999Y-81652155D01*
X148693598Y-81592627D01*
X148693596Y-81592620D01*
X148643354Y-81457913D01*
X148643350Y-81457906D01*
X148557190Y-81342812D01*
X148557187Y-81342809D01*
X148442093Y-81256649D01*
X148442086Y-81256645D01*
X148307379Y-81206403D01*
X148307372Y-81206401D01*
X148247844Y-81200000D01*
X147700000Y-81200000D01*
X147700000Y-81900000D01*
X147200000Y-81900000D01*
X147200000Y-81200000D01*
X146652155Y-81200000D01*
X146592627Y-81206401D01*
X146592620Y-81206403D01*
X146457913Y-81256645D01*
X146457906Y-81256649D01*
X146342812Y-81342809D01*
X146342809Y-81342812D01*
X146256649Y-81457906D01*
X146256645Y-81457913D01*
X146206403Y-81592620D01*
X146206401Y-81592627D01*
X146200000Y-81652155D01*
X143988708Y-81652155D01*
X143920889Y-81613000D01*
X143881785Y-81590423D01*
X143836881Y-81578390D01*
X143828922Y-81575016D01*
X143808317Y-81558127D01*
X143785573Y-81544263D01*
X143779751Y-81534711D01*
X143774885Y-81530723D01*
X143772129Y-81522207D01*
X143761146Y-81504189D01*
X143743796Y-81457669D01*
X143743794Y-81457667D01*
X143743794Y-81457665D01*
X143657547Y-81342455D01*
X143657544Y-81342452D01*
X143542335Y-81256206D01*
X143542328Y-81256202D01*
X143407482Y-81205908D01*
X143407483Y-81205908D01*
X143347883Y-81199501D01*
X143347881Y-81199500D01*
X143347873Y-81199500D01*
X143347865Y-81199500D01*
X142386229Y-81199500D01*
X142319190Y-81179815D01*
X142273435Y-81127011D01*
X142263491Y-81057853D01*
X142292516Y-80994297D01*
X142298548Y-80987819D01*
X143132949Y-80153418D01*
X143132952Y-80153415D01*
X143167540Y-80101650D01*
X143215084Y-80030495D01*
X143238518Y-79973920D01*
X143271659Y-79893912D01*
X143271661Y-79893898D01*
X143273427Y-79888082D01*
X143275171Y-79888611D01*
X143303587Y-79834283D01*
X143364301Y-79799706D01*
X143379566Y-79797091D01*
X143407483Y-79794091D01*
X143542331Y-79743796D01*
X143657546Y-79657546D01*
X143743796Y-79542331D01*
X143794091Y-79407483D01*
X143800500Y-79347873D01*
X143800499Y-78352128D01*
X143794091Y-78292517D01*
X143780117Y-78255052D01*
X143743797Y-78157671D01*
X143743793Y-78157664D01*
X143657547Y-78042455D01*
X143657544Y-78042452D01*
X143542335Y-77956206D01*
X143542328Y-77956202D01*
X143407482Y-77905908D01*
X143407483Y-77905908D01*
X143347883Y-77899501D01*
X143347881Y-77899500D01*
X143347873Y-77899500D01*
X143347865Y-77899500D01*
X142712229Y-77899500D01*
X142645190Y-77879815D01*
X142624548Y-77863181D01*
X140786819Y-76025451D01*
X140753334Y-75964128D01*
X140750500Y-75937770D01*
X140750500Y-74652135D01*
X141299500Y-74652135D01*
X141299500Y-75647870D01*
X141299501Y-75647876D01*
X141305908Y-75707483D01*
X141356202Y-75842328D01*
X141356206Y-75842335D01*
X141442452Y-75957544D01*
X141442455Y-75957547D01*
X141557664Y-76043793D01*
X141557671Y-76043797D01*
X141692517Y-76094091D01*
X141692516Y-76094091D01*
X141699444Y-76094835D01*
X141752127Y-76100500D01*
X143347872Y-76100499D01*
X143407483Y-76094091D01*
X143542331Y-76043796D01*
X143600563Y-76000203D01*
X143666025Y-75975786D01*
X143734298Y-75990637D01*
X143762554Y-76011789D01*
X146163181Y-78412416D01*
X146196666Y-78473739D01*
X146199500Y-78500097D01*
X146199500Y-79347870D01*
X146199501Y-79347876D01*
X146205908Y-79407483D01*
X146256202Y-79542328D01*
X146256206Y-79542335D01*
X146342452Y-79657544D01*
X146342455Y-79657547D01*
X146457664Y-79743793D01*
X146457671Y-79743797D01*
X146592517Y-79794091D01*
X146592516Y-79794091D01*
X146599444Y-79794835D01*
X146652127Y-79800500D01*
X148247872Y-79800499D01*
X148307483Y-79794091D01*
X148442331Y-79743796D01*
X148557546Y-79657546D01*
X148643796Y-79542331D01*
X148694091Y-79407483D01*
X148700500Y-79347873D01*
X148700499Y-78352128D01*
X148694091Y-78292517D01*
X148680117Y-78255052D01*
X148643797Y-78157671D01*
X148643793Y-78157664D01*
X148557547Y-78042455D01*
X148557544Y-78042452D01*
X148442335Y-77956206D01*
X148442328Y-77956202D01*
X148307482Y-77905908D01*
X148307483Y-77905908D01*
X148247883Y-77899501D01*
X148247881Y-77899500D01*
X148247873Y-77899500D01*
X148247865Y-77899500D01*
X147400097Y-77899500D01*
X147333058Y-77879815D01*
X147312416Y-77863181D01*
X145097079Y-75647844D01*
X146200000Y-75647844D01*
X146206401Y-75707372D01*
X146206403Y-75707379D01*
X146256645Y-75842086D01*
X146256649Y-75842093D01*
X146342809Y-75957187D01*
X146342812Y-75957190D01*
X146457906Y-76043350D01*
X146457913Y-76043354D01*
X146592620Y-76093596D01*
X146592627Y-76093598D01*
X146652155Y-76099999D01*
X146652172Y-76100000D01*
X147200000Y-76100000D01*
X147700000Y-76100000D01*
X148247828Y-76100000D01*
X148247844Y-76099999D01*
X148307372Y-76093598D01*
X148307379Y-76093596D01*
X148442086Y-76043354D01*
X148442093Y-76043350D01*
X148557187Y-75957190D01*
X148557190Y-75957187D01*
X148643350Y-75842093D01*
X148643354Y-75842086D01*
X148693596Y-75707379D01*
X148693598Y-75707372D01*
X148699999Y-75647844D01*
X148700000Y-75647827D01*
X148700000Y-75400000D01*
X147700000Y-75400000D01*
X147700000Y-76100000D01*
X147200000Y-76100000D01*
X147200000Y-75400000D01*
X146200000Y-75400000D01*
X146200000Y-75647844D01*
X145097079Y-75647844D01*
X144237589Y-74788354D01*
X144230520Y-74781285D01*
X144230520Y-74781284D01*
X144118716Y-74669480D01*
X144088708Y-74652155D01*
X146200000Y-74652155D01*
X146200000Y-74900000D01*
X147200000Y-74900000D01*
X147700000Y-74900000D01*
X148700000Y-74900000D01*
X148700000Y-74652172D01*
X148699999Y-74652155D01*
X148693598Y-74592627D01*
X148693596Y-74592620D01*
X148643354Y-74457913D01*
X148643350Y-74457906D01*
X148557190Y-74342812D01*
X148557187Y-74342809D01*
X148442093Y-74256649D01*
X148442086Y-74256645D01*
X148307379Y-74206403D01*
X148307372Y-74206401D01*
X148247844Y-74200000D01*
X147700000Y-74200000D01*
X147700000Y-74900000D01*
X147200000Y-74900000D01*
X147200000Y-74200000D01*
X146652155Y-74200000D01*
X146592627Y-74206401D01*
X146592620Y-74206403D01*
X146457913Y-74256645D01*
X146457906Y-74256649D01*
X146342812Y-74342809D01*
X146342809Y-74342812D01*
X146256649Y-74457906D01*
X146256645Y-74457913D01*
X146206403Y-74592620D01*
X146206401Y-74592627D01*
X146200000Y-74652155D01*
X144088708Y-74652155D01*
X144031904Y-74619360D01*
X144031904Y-74619359D01*
X144031900Y-74619358D01*
X143981785Y-74590423D01*
X143834128Y-74550857D01*
X143774470Y-74514494D01*
X143750042Y-74474417D01*
X143743796Y-74457669D01*
X143743794Y-74457666D01*
X143743793Y-74457664D01*
X143657547Y-74342455D01*
X143657544Y-74342452D01*
X143542335Y-74256206D01*
X143542328Y-74256202D01*
X143407482Y-74205908D01*
X143407483Y-74205908D01*
X143347883Y-74199501D01*
X143347881Y-74199500D01*
X143347873Y-74199500D01*
X143347864Y-74199500D01*
X141752129Y-74199500D01*
X141752123Y-74199501D01*
X141692516Y-74205908D01*
X141557671Y-74256202D01*
X141557664Y-74256206D01*
X141442455Y-74342452D01*
X141442452Y-74342455D01*
X141356206Y-74457664D01*
X141356202Y-74457671D01*
X141305908Y-74592517D01*
X141299501Y-74652116D01*
X141299500Y-74652135D01*
X140750500Y-74652135D01*
X140750500Y-73744552D01*
X140770185Y-73677513D01*
X140786819Y-73656871D01*
X140820340Y-73623350D01*
X140910908Y-73476516D01*
X140965174Y-73312753D01*
X140975500Y-73211677D01*
X140975499Y-72999728D01*
X140995183Y-72932689D01*
X141011813Y-72912052D01*
X141266707Y-72657158D01*
X141328029Y-72623675D01*
X141397721Y-72628659D01*
X141435044Y-72652646D01*
X141435355Y-72652232D01*
X141441148Y-72656569D01*
X141442068Y-72657160D01*
X141442455Y-72657547D01*
X141557664Y-72743793D01*
X141557671Y-72743797D01*
X141692517Y-72794091D01*
X141692516Y-72794091D01*
X141699444Y-72794835D01*
X141752127Y-72800500D01*
X143347872Y-72800499D01*
X143407483Y-72794091D01*
X143542331Y-72743796D01*
X143657546Y-72657546D01*
X143743796Y-72542331D01*
X143794091Y-72407483D01*
X143800500Y-72347873D01*
X143800499Y-71352135D01*
X146199500Y-71352135D01*
X146199500Y-72347870D01*
X146199501Y-72347876D01*
X146205908Y-72407483D01*
X146256202Y-72542328D01*
X146256206Y-72542335D01*
X146342452Y-72657544D01*
X146342455Y-72657547D01*
X146457664Y-72743793D01*
X146457671Y-72743797D01*
X146592517Y-72794091D01*
X146592516Y-72794091D01*
X146599444Y-72794835D01*
X146652127Y-72800500D01*
X148247872Y-72800499D01*
X148307483Y-72794091D01*
X148442331Y-72743796D01*
X148557546Y-72657546D01*
X148643796Y-72542331D01*
X148694091Y-72407483D01*
X148700500Y-72347873D01*
X148700499Y-71352128D01*
X148694091Y-71292517D01*
X148683268Y-71263500D01*
X148643797Y-71157671D01*
X148643793Y-71157664D01*
X148557547Y-71042455D01*
X148557544Y-71042452D01*
X148442335Y-70956206D01*
X148442328Y-70956202D01*
X148307482Y-70905908D01*
X148306858Y-70905761D01*
X148306853Y-70905762D01*
X148306843Y-70905757D01*
X148299938Y-70904126D01*
X148300262Y-70902752D01*
X148277003Y-70892130D01*
X148246688Y-70879571D01*
X148245381Y-70877688D01*
X148243297Y-70876737D01*
X148225560Y-70849138D01*
X148206843Y-70822177D01*
X148206374Y-70819283D01*
X148205523Y-70817959D01*
X148200500Y-70783024D01*
X148200500Y-70729765D01*
X148220185Y-70662726D01*
X148221398Y-70660874D01*
X148309390Y-70529185D01*
X148309390Y-70529184D01*
X148309394Y-70529179D01*
X148311669Y-70523688D01*
X148369735Y-70383501D01*
X148369737Y-70383497D01*
X148400500Y-70228842D01*
X148400500Y-70071158D01*
X148400500Y-70071155D01*
X148400499Y-70071153D01*
X148369738Y-69916510D01*
X148369737Y-69916503D01*
X148369735Y-69916498D01*
X148309397Y-69770827D01*
X148309390Y-69770814D01*
X148221789Y-69639711D01*
X148221786Y-69639707D01*
X148110292Y-69528213D01*
X148110288Y-69528210D01*
X147979185Y-69440609D01*
X147979172Y-69440602D01*
X147833501Y-69380264D01*
X147833489Y-69380261D01*
X147678845Y-69349500D01*
X147678842Y-69349500D01*
X147521158Y-69349500D01*
X147521155Y-69349500D01*
X147366510Y-69380261D01*
X147366498Y-69380264D01*
X147220827Y-69440602D01*
X147220814Y-69440609D01*
X147089711Y-69528210D01*
X147089707Y-69528213D01*
X146978213Y-69639707D01*
X146978210Y-69639711D01*
X146890609Y-69770814D01*
X146890602Y-69770827D01*
X146830264Y-69916498D01*
X146830261Y-69916510D01*
X146799500Y-70071153D01*
X146799500Y-70228846D01*
X146830261Y-70383489D01*
X146830264Y-70383501D01*
X146890602Y-70529172D01*
X146890609Y-70529185D01*
X146978602Y-70660874D01*
X146984252Y-70678920D01*
X146994477Y-70694830D01*
X146998928Y-70725789D01*
X146999480Y-70727551D01*
X146999500Y-70729765D01*
X146999500Y-70775500D01*
X146979815Y-70842539D01*
X146927011Y-70888294D01*
X146875501Y-70899500D01*
X146652130Y-70899500D01*
X146652123Y-70899501D01*
X146592516Y-70905908D01*
X146457671Y-70956202D01*
X146457664Y-70956206D01*
X146342455Y-71042452D01*
X146342452Y-71042455D01*
X146256206Y-71157664D01*
X146256202Y-71157671D01*
X146205908Y-71292517D01*
X146201821Y-71330539D01*
X146199501Y-71352123D01*
X146199500Y-71352135D01*
X143800499Y-71352135D01*
X143800499Y-71352128D01*
X143794091Y-71292517D01*
X143783268Y-71263500D01*
X143743797Y-71157671D01*
X143743793Y-71157664D01*
X143657547Y-71042455D01*
X143657544Y-71042452D01*
X143542335Y-70956206D01*
X143542328Y-70956202D01*
X143407482Y-70905908D01*
X143399938Y-70904126D01*
X143400474Y-70901853D01*
X143346688Y-70879571D01*
X143306843Y-70822177D01*
X143300500Y-70783024D01*
X143300500Y-68412229D01*
X143320185Y-68345190D01*
X143336819Y-68324548D01*
X144664548Y-66996819D01*
X144725871Y-66963334D01*
X144752229Y-66960500D01*
X145849998Y-66960500D01*
X145850000Y-66960500D01*
X145948620Y-66950787D01*
X146046204Y-66931376D01*
X146098634Y-66917994D01*
X146228424Y-66855897D01*
X146311152Y-66800620D01*
X146354473Y-66768191D01*
X146450620Y-66661152D01*
X146505897Y-66578424D01*
X146533508Y-66531888D01*
X146581376Y-66396204D01*
X146600787Y-66298620D01*
X146610500Y-66200000D01*
X146610500Y-65000000D01*
X146600787Y-64901380D01*
X146581376Y-64803796D01*
X146567994Y-64751366D01*
X146505897Y-64621576D01*
X146450620Y-64538848D01*
X146418191Y-64495527D01*
X146311152Y-64399380D01*
X146228424Y-64344103D01*
X146228423Y-64344102D01*
X146181886Y-64316490D01*
X146179149Y-64315211D01*
X146177957Y-64314159D01*
X146176650Y-64313384D01*
X146176797Y-64313136D01*
X146126756Y-64268986D01*
X146107672Y-64201773D01*
X146127955Y-64134912D01*
X146143986Y-64115200D01*
X146279728Y-63979458D01*
X146404620Y-63807557D01*
X146501095Y-63618217D01*
X146566757Y-63416129D01*
X146566757Y-63416126D01*
X146577231Y-63350000D01*
X145548482Y-63350000D01*
X145559111Y-63331591D01*
X145600000Y-63178991D01*
X145600000Y-63021009D01*
X145559111Y-62868409D01*
X145548482Y-62850000D01*
X146577231Y-62850000D01*
X146566757Y-62783873D01*
X146566757Y-62783870D01*
X146501095Y-62581782D01*
X146404620Y-62392442D01*
X146279727Y-62220540D01*
X146279723Y-62220535D01*
X146129464Y-62070276D01*
X146129459Y-62070272D01*
X145964781Y-61950627D01*
X145922115Y-61895297D01*
X145916136Y-61825684D01*
X145948741Y-61763889D01*
X145964776Y-61749994D01*
X146129792Y-61630104D01*
X146280104Y-61479792D01*
X146280106Y-61479788D01*
X146280109Y-61479786D01*
X146405048Y-61307820D01*
X146405047Y-61307820D01*
X146405051Y-61307816D01*
X146501557Y-61118412D01*
X146567246Y-60916243D01*
X146600500Y-60706287D01*
X146600500Y-60493713D01*
X146567246Y-60283757D01*
X146501557Y-60081588D01*
X146405051Y-59892184D01*
X146405049Y-59892181D01*
X146405048Y-59892179D01*
X146280109Y-59720213D01*
X146129786Y-59569890D01*
X145957820Y-59444951D01*
X145768414Y-59348444D01*
X145768413Y-59348443D01*
X145768412Y-59348443D01*
X145566243Y-59282754D01*
X145566241Y-59282753D01*
X145566240Y-59282753D01*
X145404957Y-59257208D01*
X145356287Y-59249500D01*
X144643713Y-59249500D01*
X144595042Y-59257208D01*
X144433760Y-59282753D01*
X144231585Y-59348444D01*
X144042179Y-59444951D01*
X143870213Y-59569890D01*
X143719890Y-59720213D01*
X143594951Y-59892179D01*
X143498444Y-60081585D01*
X143432753Y-60283760D01*
X143399500Y-60493713D01*
X143399500Y-60706286D01*
X143432753Y-60916239D01*
X143498444Y-61118414D01*
X143594951Y-61307820D01*
X143719890Y-61479786D01*
X143870209Y-61630105D01*
X143870214Y-61630109D01*
X144035218Y-61749991D01*
X144077884Y-61805320D01*
X144083863Y-61874934D01*
X144051258Y-61936729D01*
X144035218Y-61950627D01*
X143870540Y-62070272D01*
X143870535Y-62070276D01*
X143720276Y-62220535D01*
X143720272Y-62220540D01*
X143595379Y-62392442D01*
X143498904Y-62581782D01*
X143433242Y-62783870D01*
X143433242Y-62783873D01*
X143422769Y-62850000D01*
X144451518Y-62850000D01*
X144440889Y-62868409D01*
X144400000Y-63021009D01*
X144400000Y-63178991D01*
X144440889Y-63331591D01*
X144451518Y-63350000D01*
X143422768Y-63350000D01*
X143425843Y-63369413D01*
X143416888Y-63438706D01*
X143371892Y-63492158D01*
X143350822Y-63503371D01*
X143233459Y-63551983D01*
X143233446Y-63551990D01*
X143085965Y-63650535D01*
X143085961Y-63650538D01*
X142960538Y-63775961D01*
X142960535Y-63775965D01*
X142861990Y-63923446D01*
X142861983Y-63923459D01*
X142794106Y-64087332D01*
X142794103Y-64087341D01*
X142759500Y-64261304D01*
X142759500Y-64438695D01*
X142794103Y-64612658D01*
X142794106Y-64612667D01*
X142861983Y-64776540D01*
X142861990Y-64776553D01*
X142960535Y-64924034D01*
X142960538Y-64924038D01*
X143085961Y-65049461D01*
X143085965Y-65049464D01*
X143233446Y-65148009D01*
X143233453Y-65148013D01*
X143312952Y-65180942D01*
X143367355Y-65224782D01*
X143389421Y-65291076D01*
X143389500Y-65295503D01*
X143389500Y-66097769D01*
X143369815Y-66164808D01*
X143353181Y-66185450D01*
X141967050Y-67571580D01*
X141967044Y-67571588D01*
X141917812Y-67645268D01*
X141917813Y-67645269D01*
X141884921Y-67694496D01*
X141884914Y-67694508D01*
X141828342Y-67831086D01*
X141828340Y-67831092D01*
X141799500Y-67976079D01*
X141799500Y-70783023D01*
X141779815Y-70850062D01*
X141727011Y-70895817D01*
X141699865Y-70903266D01*
X141700068Y-70904124D01*
X141692520Y-70905907D01*
X141557671Y-70956202D01*
X141557664Y-70956206D01*
X141442457Y-71042451D01*
X141442451Y-71042457D01*
X141436948Y-71049809D01*
X141433291Y-71052546D01*
X141431393Y-71056703D01*
X141405575Y-71073294D01*
X141381015Y-71091681D01*
X141375385Y-71092696D01*
X141372615Y-71094477D01*
X141337680Y-71099500D01*
X141098999Y-71099500D01*
X141031960Y-71079815D01*
X140986205Y-71027011D01*
X140974999Y-70975500D01*
X140974999Y-70788360D01*
X140974998Y-70788345D01*
X140964680Y-70687347D01*
X140910453Y-70523699D01*
X140910448Y-70523688D01*
X140819947Y-70376965D01*
X140819944Y-70376961D01*
X140698038Y-70255055D01*
X140698034Y-70255052D01*
X140551311Y-70164551D01*
X140551300Y-70164546D01*
X140387652Y-70110319D01*
X140286654Y-70100000D01*
X140250000Y-70100000D01*
X140250000Y-71013500D01*
X140230315Y-71080539D01*
X140177511Y-71126294D01*
X140126000Y-71137500D01*
X140000000Y-71137500D01*
X140000000Y-71263500D01*
X139980315Y-71330539D01*
X139927511Y-71376294D01*
X139876000Y-71387500D01*
X139025001Y-71387500D01*
X139025001Y-71486654D01*
X139035319Y-71587652D01*
X139089546Y-71751300D01*
X139089551Y-71751311D01*
X139180052Y-71898034D01*
X139180055Y-71898038D01*
X139193982Y-71911965D01*
X139227467Y-71973288D01*
X139222483Y-72042980D01*
X139193984Y-72087325D01*
X139179661Y-72101648D01*
X139089093Y-72248481D01*
X139089092Y-72248484D01*
X139034826Y-72412247D01*
X139034826Y-72412248D01*
X139034825Y-72412248D01*
X139024500Y-72513315D01*
X139024500Y-73211669D01*
X139024501Y-73211687D01*
X139034825Y-73312752D01*
X139089092Y-73476515D01*
X139089093Y-73476518D01*
X139179661Y-73623351D01*
X139213181Y-73656871D01*
X139246666Y-73718194D01*
X139249500Y-73744552D01*
X139249500Y-76373918D01*
X139249500Y-76373920D01*
X139249499Y-76373920D01*
X139278340Y-76518907D01*
X139278343Y-76518917D01*
X139334914Y-76655492D01*
X139367812Y-76704727D01*
X139367813Y-76704730D01*
X139417046Y-76778414D01*
X139417052Y-76778421D01*
X140558048Y-77919416D01*
X140591533Y-77980739D01*
X140586549Y-78050431D01*
X140544677Y-78106364D01*
X140479213Y-78130781D01*
X140431364Y-78124803D01*
X140387653Y-78110319D01*
X140286654Y-78100000D01*
X140250000Y-78100000D01*
X140250000Y-78887500D01*
X140974999Y-78887500D01*
X140974999Y-78788360D01*
X140974998Y-78788345D01*
X140964680Y-78687347D01*
X140950196Y-78643635D01*
X140947794Y-78573806D01*
X140983526Y-78513765D01*
X141046047Y-78482572D01*
X141115506Y-78490133D01*
X141155583Y-78516950D01*
X141263181Y-78624548D01*
X141296666Y-78685871D01*
X141299500Y-78712229D01*
X141299500Y-79347870D01*
X141299501Y-79347876D01*
X141305908Y-79407483D01*
X141356202Y-79542328D01*
X141356203Y-79542329D01*
X141356204Y-79542331D01*
X141405304Y-79607920D01*
X141429721Y-79673384D01*
X141414870Y-79741657D01*
X141393718Y-79769912D01*
X141087949Y-80075682D01*
X141061020Y-80090386D01*
X141035205Y-80106977D01*
X141029004Y-80107868D01*
X141026628Y-80109166D01*
X141000270Y-80112000D01*
X140905346Y-80112000D01*
X140838307Y-80092315D01*
X140792552Y-80039511D01*
X140782608Y-79970353D01*
X140811633Y-79906797D01*
X140817665Y-79900319D01*
X140819943Y-79898040D01*
X140819945Y-79898037D01*
X140910448Y-79751311D01*
X140910453Y-79751300D01*
X140964680Y-79587652D01*
X140974999Y-79486654D01*
X140975000Y-79486641D01*
X140975000Y-79387500D01*
X139025001Y-79387500D01*
X139025001Y-79486654D01*
X139035319Y-79587652D01*
X139089546Y-79751300D01*
X139089551Y-79751311D01*
X139180052Y-79898034D01*
X139180055Y-79898038D01*
X139193982Y-79911965D01*
X139227467Y-79973288D01*
X139222483Y-80042980D01*
X139193984Y-80087325D01*
X139179661Y-80101648D01*
X139089093Y-80248481D01*
X139089092Y-80248484D01*
X139034826Y-80412247D01*
X139034826Y-80412248D01*
X139034825Y-80412248D01*
X139024500Y-80513315D01*
X139024500Y-80725268D01*
X139004815Y-80792307D01*
X138988182Y-80812948D01*
X138917051Y-80884080D01*
X138917047Y-80884085D01*
X138867812Y-80957771D01*
X138834921Y-81006996D01*
X138834914Y-81007008D01*
X138778342Y-81143586D01*
X138778340Y-81143592D01*
X138749500Y-81288579D01*
X138749500Y-81288582D01*
X138749500Y-83373918D01*
X138749500Y-83373920D01*
X138749499Y-83373920D01*
X137500500Y-83373920D01*
X137500500Y-78788345D01*
X139025000Y-78788345D01*
X139025000Y-78887500D01*
X139750000Y-78887500D01*
X139750000Y-78100000D01*
X139713361Y-78100000D01*
X139713343Y-78100001D01*
X139612347Y-78110319D01*
X139448699Y-78164546D01*
X139448688Y-78164551D01*
X139301965Y-78255052D01*
X139301961Y-78255055D01*
X139180055Y-78376961D01*
X139180052Y-78376965D01*
X139089551Y-78523688D01*
X139089546Y-78523699D01*
X139035319Y-78687347D01*
X139025000Y-78788345D01*
X137500500Y-78788345D01*
X137500500Y-70788345D01*
X139025000Y-70788345D01*
X139025000Y-70887500D01*
X139750000Y-70887500D01*
X139750000Y-70100000D01*
X139713361Y-70100000D01*
X139713343Y-70100001D01*
X139612347Y-70110319D01*
X139448699Y-70164546D01*
X139448688Y-70164551D01*
X139301965Y-70255052D01*
X139301961Y-70255055D01*
X139180055Y-70376961D01*
X139180052Y-70376965D01*
X139089551Y-70523688D01*
X139089546Y-70523699D01*
X139035319Y-70687347D01*
X139025000Y-70788345D01*
X137500500Y-70788345D01*
X137500500Y-51878711D01*
X142649500Y-51878711D01*
X142649500Y-52121288D01*
X142681161Y-52361785D01*
X142743947Y-52596104D01*
X142836773Y-52820205D01*
X142836776Y-52820212D01*
X142958064Y-53030289D01*
X142958066Y-53030292D01*
X142958067Y-53030293D01*
X143105733Y-53222736D01*
X143105739Y-53222743D01*
X143277256Y-53394260D01*
X143277262Y-53394265D01*
X143469711Y-53541936D01*
X143679788Y-53663224D01*
X143903900Y-53756054D01*
X144138211Y-53818838D01*
X144318586Y-53842584D01*
X144378711Y-53850500D01*
X144378712Y-53850500D01*
X144621289Y-53850500D01*
X144669388Y-53844167D01*
X144861789Y-53818838D01*
X145096100Y-53756054D01*
X145320212Y-53663224D01*
X145530289Y-53541936D01*
X145722738Y-53394265D01*
X145894265Y-53222738D01*
X146041936Y-53030289D01*
X146163224Y-52820212D01*
X146256054Y-52596100D01*
X146318838Y-52361789D01*
X146350500Y-52121288D01*
X146350500Y-51878712D01*
X146318838Y-51638211D01*
X146256054Y-51403900D01*
X146163224Y-51179788D01*
X146041936Y-50969711D01*
X145894265Y-50777262D01*
X145894260Y-50777256D01*
X145722743Y-50605739D01*
X145722736Y-50605733D01*
X145530293Y-50458067D01*
X145530292Y-50458066D01*
X145530289Y-50458064D01*
X145320212Y-50336776D01*
X145320205Y-50336773D01*
X145096104Y-50243947D01*
X144861785Y-50181161D01*
X144621289Y-50149500D01*
X144621288Y-50149500D01*
X144378712Y-50149500D01*
X144378711Y-50149500D01*
X144138214Y-50181161D01*
X143903895Y-50243947D01*
X143679794Y-50336773D01*
X143679785Y-50336777D01*
X143469706Y-50458067D01*
X143277263Y-50605733D01*
X143277256Y-50605739D01*
X143105739Y-50777256D01*
X143105733Y-50777263D01*
X142958067Y-50969706D01*
X142836777Y-51179785D01*
X142836773Y-51179794D01*
X142743947Y-51403895D01*
X142681161Y-51638214D01*
X142649500Y-51878711D01*
X137500500Y-51878711D01*
X137500500Y-49506961D01*
X137501280Y-49493077D01*
X137501280Y-49493076D01*
X137511460Y-49402729D01*
X137517635Y-49375670D01*
X137545353Y-49296456D01*
X137557396Y-49271450D01*
X137602046Y-49200389D01*
X137619351Y-49178690D01*
X137678690Y-49119351D01*
X137700389Y-49102046D01*
X137771450Y-49057396D01*
X137796456Y-49045353D01*
X137875670Y-49017635D01*
X137902733Y-49011459D01*
X137965419Y-49004396D01*
X137993079Y-49001280D01*
X138006962Y-49000500D01*
X138065892Y-49000500D01*
X150434108Y-49000500D01*
X150493038Y-49000500D01*
X150506922Y-49001280D01*
G37*
%TD.AperFunction*%
%TD*%
M02*
